{"glyphs":{"0":{"ha":736,"x_min":47,"x_max":689,"o":"m 47 492 q 124 849 47 713 q 368 985 200 985 q 613 849 536 985 q 689 492 689 713 q 613 132 689 264 q 368 0 538 0 q 123 132 199 0 q 47 492 47 264 m 536 492 q 503 795 536 676 q 368 914 469 914 q 233 795 267 914 q 200 492 200 676 q 211 276 200 365 q 259 128 222 186 q 368 71 296 71 q 477 128 440 71 q 525 276 514 186 q 536 492 536 365 z "},"1":{"ha":736,"x_min":104,"x_max":650,"o":"m 174 831 q 140 824 157 824 q 114 836 124 824 q 104 864 104 849 q 133 894 104 885 l 329 971 q 404 985 367 985 q 458 968 442 985 q 475 915 475 951 l 475 74 l 594 74 q 638 63 626 74 q 650 33 650 51 q 642 9 650 18 q 608 0 633 0 l 194 0 q 161 9 169 0 q 153 33 153 18 q 165 63 153 51 q 208 74 176 74 l 328 74 l 328 889 l 174 831 z "},"2":{"ha":736,"x_min":49,"x_max":660,"o":"m 125 688 q 80 704 94 688 q 65 757 65 721 l 65 840 q 72 875 65 864 q 97 899 78 886 q 234 965 168 946 q 378 985 300 985 q 581 915 515 985 q 647 738 647 844 q 540 447 647 603 q 164 74 432 290 l 526 74 l 526 160 q 545 229 526 208 q 600 250 564 250 q 645 233 631 250 q 660 181 660 217 l 660 44 q 639 10 660 21 q 576 0 618 0 l 83 0 q 58 11 67 0 q 49 39 49 22 q 69 86 49 68 l 89 104 q 410 477 329 328 q 490 717 490 626 q 456 855 490 796 q 333 914 422 914 q 199 878 267 914 l 199 778 q 182 708 199 728 q 125 688 165 688 z "},"3":{"ha":736,"x_min":42,"x_max":661,"o":"m 101 296 q 158 276 142 296 q 175 206 175 256 l 175 106 q 317 71 235 71 q 452 123 399 71 q 506 279 506 175 q 453 432 506 389 q 301 475 400 475 l 261 475 q 245 486 251 475 q 239 513 239 497 q 245 540 239 528 q 261 551 251 551 l 301 551 q 433 599 390 551 q 476 746 476 647 q 433 873 476 832 q 318 914 390 914 q 251 905 286 914 q 189 881 217 896 l 189 781 q 172 710 189 731 q 115 690 156 690 q 70 707 85 690 q 56 760 56 724 l 56 843 q 63 881 56 868 q 88 906 69 894 q 216 966 153 947 q 353 985 279 985 q 561 919 493 985 q 629 746 629 854 q 578 601 629 660 q 454 528 528 543 l 454 515 q 604 446 547 503 q 661 281 661 389 q 620 133 661 196 q 505 35 579 69 q 333 0 431 0 q 74 72 196 0 q 42 143 42 92 l 42 226 q 56 279 42 263 q 101 296 71 296 z "},"4":{"ha":736,"x_min":-10,"x_max":722,"o":"m 433 240 l 29 240 q -10 274 -10 240 q 0 307 -10 288 l 413 933 q 510 985 446 985 q 564 968 547 985 q 581 915 581 951 l 581 314 l 667 314 q 710 303 699 314 q 722 274 722 292 q 714 249 722 258 q 681 240 706 240 l 581 240 l 581 74 l 660 74 q 703 63 692 74 q 715 33 715 51 q 707 9 715 18 q 674 0 699 0 l 313 0 q 279 9 288 0 q 271 33 271 18 q 283 63 271 51 q 326 74 294 74 l 433 74 l 433 240 m 433 803 l 107 314 l 433 314 l 433 803 z "},"5":{"ha":736,"x_min":78,"x_max":664,"o":"m 225 574 q 404 639 293 639 q 664 340 664 639 q 632 180 664 257 q 528 51 600 103 q 342 0 456 0 q 219 13 276 0 q 110 57 163 25 q 78 128 78 76 l 78 190 q 92 243 78 226 q 138 260 107 260 q 194 240 178 260 q 211 169 211 219 l 211 90 q 263 74 238 78 q 335 71 289 71 q 460 140 411 71 q 508 332 508 208 q 463 501 508 453 q 350 550 417 550 q 268 530 306 550 q 210 476 231 510 q 153 449 190 449 q 114 492 114 449 l 146 944 q 194 985 147 985 l 601 985 q 640 969 631 985 q 649 931 649 953 q 633 883 649 906 q 586 861 617 861 l 247 861 l 225 574 z "},"6":{"ha":736,"x_min":69,"x_max":681,"o":"m 586 746 q 529 765 546 746 q 513 832 513 785 l 513 900 q 426 914 479 914 q 327 881 374 914 q 249 769 281 849 q 218 558 218 689 l 218 500 q 306 593 249 564 q 426 622 363 622 q 615 541 549 622 q 681 324 681 460 q 644 151 681 224 q 540 39 607 78 q 386 0 474 0 q 138 121 207 0 q 69 438 69 242 q 165 867 69 750 q 421 985 261 985 q 508 977 469 985 q 589 954 547 969 q 631 929 615 944 q 646 883 646 914 l 646 813 q 586 746 646 746 m 386 533 q 275 474 321 533 q 229 313 229 415 q 265 145 229 219 q 382 71 300 71 q 491 133 453 71 q 529 325 529 194 q 492 484 529 435 q 386 533 456 533 z "},"7":{"ha":736,"x_min":56,"x_max":672,"o":"m 56 933 q 76 974 56 963 q 139 985 96 985 l 621 985 q 660 971 647 985 q 672 936 672 957 q 657 882 672 907 q 472 499 533 686 q 375 93 410 311 q 369 53 374 83 q 347 12 365 24 q 289 0 328 0 q 226 10 244 0 q 208 42 208 21 q 226 138 208 68 q 374 567 288 365 q 560 911 460 769 l 189 911 l 189 832 q 172 762 189 782 q 115 742 156 742 q 70 758 85 742 q 56 811 56 775 l 56 933 z "},"8":{"ha":736,"x_min":51,"x_max":685,"o":"m 510 528 q 640 443 596 508 q 685 290 685 378 q 599 76 685 153 q 368 0 514 0 q 137 76 222 0 q 51 290 51 153 q 96 440 51 376 q 226 528 140 504 l 226 539 q 113 610 158 556 q 68 739 68 665 q 97 857 68 801 q 193 949 126 913 q 368 985 260 985 q 543 949 476 985 q 639 858 610 913 q 668 740 668 803 q 622 610 668 667 q 510 539 576 554 l 510 528 m 368 565 q 476 609 433 565 q 519 743 519 653 q 474 874 519 833 q 368 914 428 914 q 263 874 308 914 q 217 743 217 833 q 260 609 217 653 q 368 565 303 565 m 206 288 q 252 126 206 181 q 368 71 299 71 q 484 126 438 71 q 531 288 531 181 q 483 448 531 397 q 368 499 436 499 q 253 448 300 499 q 206 288 206 397 z "},"9":{"ha":736,"x_min":56,"x_max":667,"o":"m 150 239 q 207 219 190 239 q 224 153 224 200 l 224 85 q 314 71 257 71 q 412 106 365 71 q 488 220 458 140 q 518 426 518 300 l 518 485 q 431 392 488 421 q 311 363 375 363 q 122 446 189 363 q 56 665 56 529 q 94 836 56 764 q 203 947 133 908 q 360 985 272 985 q 551 928 483 985 q 643 778 619 871 q 667 557 667 686 q 315 0 667 0 q 228 8 267 0 q 147 31 189 15 q 106 56 121 40 q 90 101 90 71 l 90 172 q 150 239 90 239 m 351 451 q 462 510 417 451 q 507 672 507 569 q 476 842 507 769 q 364 914 446 914 q 249 853 292 914 q 207 664 207 792 q 351 451 207 451 z "},"\u0000":{"ha":0,"x_min":0,"x_max":0,"o":""},"\r":{"ha":417,"x_min":0,"x_max":0,"o":""}," ":{"ha":417,"x_min":0,"x_max":0,"o":""},"A":{"ha":857,"x_min":21,"x_max":836,"o":"m 143 74 q 105 15 126 29 q 58 0 83 0 q 30 10 39 0 q 21 38 21 21 q 28 72 21 54 l 354 951 q 381 976 360 967 q 431 985 403 985 q 485 975 461 985 q 515 947 510 965 l 833 67 q 836 46 836 53 q 823 13 836 26 q 782 0 810 0 q 723 15 753 0 q 678 74 693 31 l 604 264 l 214 264 l 143 74 m 415 821 l 407 821 l 236 336 l 583 336 l 415 821 z "},"Á":{"ha":857,"x_min":21,"x_max":836,"o":"m 143 74 q 105 15 126 29 q 58 0 83 0 q 30 10 39 0 q 21 38 21 21 q 28 72 21 54 l 354 951 q 381 976 360 967 q 431 985 403 985 q 485 975 461 985 q 515 947 510 965 l 833 67 q 836 46 836 53 q 823 13 836 26 q 782 0 810 0 q 723 15 753 0 q 678 74 693 31 l 604 264 l 214 264 l 143 74 m 415 821 l 407 821 l 236 336 l 583 336 l 415 821 m 453 1086 q 431 1070 446 1076 q 401 1064 417 1064 q 373 1072 383 1064 q 363 1092 363 1079 q 365 1104 363 1096 l 444 1301 q 476 1328 453 1319 q 526 1338 499 1338 q 583 1328 561 1338 q 606 1304 606 1319 q 600 1290 606 1301 l 453 1086 z "},"Ă":{"ha":857,"x_min":21,"x_max":836,"o":"m 143 74 q 105 15 126 29 q 58 0 83 0 q 30 10 39 0 q 21 38 21 21 q 28 72 21 54 l 354 951 q 381 976 360 967 q 431 985 403 985 q 485 975 461 985 q 515 947 510 965 l 833 67 q 836 46 836 53 q 823 13 836 26 q 782 0 810 0 q 723 15 753 0 q 678 74 693 31 l 604 264 l 214 264 l 143 74 m 415 821 l 407 821 l 236 336 l 583 336 l 415 821 m 632 1236 q 576 1110 632 1161 q 428 1060 519 1060 q 281 1110 338 1060 q 225 1236 225 1161 q 235 1264 225 1253 q 263 1275 244 1275 q 292 1265 279 1275 q 313 1238 306 1254 q 358 1169 331 1188 q 428 1151 386 1151 q 498 1169 469 1151 q 544 1238 526 1188 q 565 1265 551 1254 q 594 1275 578 1275 q 622 1264 613 1275 q 632 1236 632 1253 z "},"Ắ":{"ha":857,"x_min":21,"x_max":836,"o":"m 143 74 q 105 15 126 29 q 58 0 83 0 q 30 10 39 0 q 21 38 21 21 q 28 72 21 54 l 354 951 q 381 976 360 967 q 431 985 403 985 q 485 975 461 985 q 515 947 510 965 l 833 67 q 836 46 836 53 q 823 13 836 26 q 782 0 810 0 q 723 15 753 0 q 678 74 693 31 l 604 264 l 214 264 l 143 74 m 415 821 l 407 821 l 236 336 l 583 336 l 415 821 m 632 1236 q 576 1110 632 1161 q 428 1060 519 1060 q 281 1110 338 1060 q 225 1236 225 1161 q 235 1264 225 1253 q 263 1275 244 1275 q 292 1265 279 1275 q 313 1238 306 1254 q 358 1169 331 1188 q 428 1151 386 1151 q 498 1169 469 1151 q 544 1238 526 1188 q 565 1265 551 1254 q 594 1275 578 1275 q 622 1264 613 1275 q 632 1236 632 1253 m 453 1251 q 431 1235 446 1242 q 401 1229 417 1229 q 373 1237 383 1229 q 363 1257 363 1244 q 365 1269 363 1261 l 444 1467 q 476 1494 453 1485 q 526 1503 499 1503 q 583 1494 561 1503 q 606 1469 606 1485 q 600 1456 606 1467 l 453 1251 z "},"Ặ":{"ha":857,"x_min":21,"x_max":836,"o":"m 143 74 q 105 15 126 29 q 58 0 83 0 q 30 10 39 0 q 21 38 21 21 q 28 72 21 54 l 354 951 q 381 976 360 967 q 431 985 403 985 q 485 975 461 985 q 515 947 510 965 l 833 67 q 836 46 836 53 q 823 13 836 26 q 782 0 810 0 q 723 15 753 0 q 678 74 693 31 l 604 264 l 214 264 l 143 74 m 415 821 l 407 821 l 236 336 l 583 336 l 415 821 m 632 1236 q 576 1110 632 1161 q 428 1060 519 1060 q 281 1110 338 1060 q 225 1236 225 1161 q 235 1264 225 1253 q 263 1275 244 1275 q 292 1265 279 1275 q 313 1238 306 1254 q 358 1169 331 1188 q 428 1151 386 1151 q 498 1169 469 1151 q 544 1238 526 1188 q 565 1265 551 1254 q 594 1275 578 1275 q 622 1264 613 1275 q 632 1236 632 1253 m 343 -182 q 368 -122 343 -147 q 429 -96 393 -96 q 490 -122 464 -96 q 515 -182 515 -147 q 490 -243 515 -218 q 429 -268 464 -268 q 368 -243 393 -268 q 343 -182 343 -218 z "},"Ằ":{"ha":857,"x_min":21,"x_max":836,"o":"m 143 74 q 105 15 126 29 q 58 0 83 0 q 30 10 39 0 q 21 38 21 21 q 28 72 21 54 l 354 951 q 381 976 360 967 q 431 985 403 985 q 485 975 461 985 q 515 947 510 965 l 833 67 q 836 46 836 53 q 823 13 836 26 q 782 0 810 0 q 723 15 753 0 q 678 74 693 31 l 604 264 l 214 264 l 143 74 m 415 821 l 407 821 l 236 336 l 583 336 l 415 821 m 632 1236 q 576 1110 632 1161 q 428 1060 519 1060 q 281 1110 338 1060 q 225 1236 225 1161 q 235 1264 225 1253 q 263 1275 244 1275 q 292 1265 279 1275 q 313 1238 306 1254 q 358 1169 331 1188 q 428 1151 386 1151 q 498 1169 469 1151 q 544 1238 526 1188 q 565 1265 551 1254 q 594 1275 578 1275 q 622 1264 613 1275 q 632 1236 632 1253 m 271 1456 q 267 1469 267 1463 q 288 1494 267 1485 q 344 1503 308 1503 q 396 1494 372 1503 q 426 1467 419 1485 l 506 1269 q 508 1256 508 1264 q 497 1236 508 1243 q 469 1229 486 1229 q 440 1235 454 1229 q 418 1251 426 1242 l 271 1456 z "},"Ẳ":{"ha":857,"x_min":21,"x_max":836,"o":"m 143 74 q 105 15 126 29 q 58 0 83 0 q 30 10 39 0 q 21 38 21 21 q 28 72 21 54 l 354 951 q 381 976 360 967 q 431 985 403 985 q 485 975 461 985 q 515 947 510 965 l 833 67 q 836 46 836 53 q 823 13 836 26 q 782 0 810 0 q 723 15 753 0 q 678 74 693 31 l 604 264 l 214 264 l 143 74 m 415 821 l 407 821 l 236 336 l 583 336 l 415 821 m 632 1236 q 576 1110 632 1161 q 428 1060 519 1060 q 281 1110 338 1060 q 225 1236 225 1161 q 235 1264 225 1253 q 263 1275 244 1275 q 292 1265 279 1275 q 313 1238 306 1254 q 358 1169 331 1188 q 428 1151 386 1151 q 498 1169 469 1151 q 544 1238 526 1188 q 565 1265 551 1254 q 594 1275 578 1275 q 622 1264 613 1275 q 632 1236 632 1253 m 415 1306 q 481 1370 467 1353 q 494 1413 494 1388 q 480 1453 494 1438 q 438 1468 465 1468 q 406 1463 418 1468 q 376 1450 393 1458 q 340 1438 354 1438 q 322 1445 329 1438 q 314 1464 314 1453 q 358 1517 314 1497 q 458 1536 403 1536 q 563 1504 529 1536 q 597 1429 597 1472 q 573 1356 597 1390 q 520 1294 549 1322 q 483 1258 492 1267 q 426 1233 460 1233 q 394 1242 407 1233 q 381 1263 381 1250 q 394 1286 381 1274 l 415 1306 z "},"Ẵ":{"ha":857,"x_min":21,"x_max":836,"o":"m 143 74 q 105 15 126 29 q 58 0 83 0 q 30 10 39 0 q 21 38 21 21 q 28 72 21 54 l 354 951 q 381 976 360 967 q 431 985 403 985 q 485 975 461 985 q 515 947 510 965 l 833 67 q 836 46 836 53 q 823 13 836 26 q 782 0 810 0 q 723 15 753 0 q 678 74 693 31 l 604 264 l 214 264 l 143 74 m 415 821 l 407 821 l 236 336 l 583 336 l 415 821 m 632 1236 q 576 1110 632 1161 q 428 1060 519 1060 q 281 1110 338 1060 q 225 1236 225 1161 q 235 1264 225 1253 q 263 1275 244 1275 q 292 1265 279 1275 q 313 1238 306 1254 q 358 1169 331 1188 q 428 1151 386 1151 q 498 1169 469 1151 q 544 1238 526 1188 q 565 1265 551 1254 q 594 1275 578 1275 q 622 1264 613 1275 q 632 1236 632 1253 m 344 1392 q 315 1384 324 1392 q 299 1361 306 1376 q 285 1340 292 1347 q 261 1333 278 1333 q 222 1361 222 1333 q 239 1418 222 1388 q 288 1470 256 1449 q 361 1492 319 1492 q 449 1471 403 1488 q 472 1460 454 1468 q 506 1449 490 1453 q 535 1446 521 1446 q 576 1469 564 1446 q 583 1482 578 1472 q 597 1497 588 1492 q 621 1503 606 1503 q 644 1495 636 1503 q 651 1476 651 1488 q 642 1439 651 1458 q 590 1368 621 1390 q 524 1346 558 1346 q 478 1351 499 1346 q 428 1369 457 1357 q 344 1392 368 1392 z "},"Â":{"ha":857,"x_min":21,"x_max":836,"o":"m 143 74 q 105 15 126 29 q 58 0 83 0 q 30 10 39 0 q 21 38 21 21 q 28 72 21 54 l 354 951 q 381 976 360 967 q 431 985 403 985 q 485 975 461 985 q 515 947 510 965 l 833 67 q 836 46 836 53 q 823 13 836 26 q 782 0 810 0 q 723 15 753 0 q 678 74 693 31 l 604 264 l 214 264 l 143 74 m 415 821 l 407 821 l 236 336 l 583 336 l 415 821 m 357 1103 q 267 1061 317 1061 q 229 1070 244 1061 q 214 1090 214 1079 q 219 1103 214 1097 l 361 1250 q 429 1275 385 1275 q 497 1250 475 1275 l 639 1103 q 644 1090 644 1097 q 629 1070 644 1079 q 592 1061 614 1061 q 501 1103 542 1061 l 429 1175 l 357 1103 z "},"Ấ":{"ha":857,"x_min":21,"x_max":836,"o":"m 635 1233 q 588 1214 618 1214 q 564 1220 574 1214 q 554 1238 554 1226 q 557 1249 554 1244 l 622 1406 q 649 1429 629 1421 q 693 1438 668 1438 q 742 1429 724 1438 q 760 1407 760 1421 q 757 1396 760 1399 l 635 1233 m 357 1103 q 267 1061 317 1061 q 229 1070 244 1061 q 214 1090 214 1079 q 219 1103 214 1097 l 361 1250 q 429 1275 385 1275 q 497 1250 475 1275 l 639 1103 q 644 1090 644 1097 q 629 1070 644 1079 q 592 1061 614 1061 q 501 1103 542 1061 l 429 1175 l 357 1103 m 143 74 q 105 15 126 29 q 58 0 83 0 q 30 10 39 0 q 21 38 21 21 q 28 72 21 54 l 354 951 q 381 976 360 967 q 431 985 403 985 q 485 975 461 985 q 515 947 510 965 l 833 67 q 836 46 836 53 q 823 13 836 26 q 782 0 810 0 q 723 15 753 0 q 678 74 693 31 l 604 264 l 214 264 l 143 74 m 415 821 l 407 821 l 236 336 l 583 336 l 415 821 z "},"Ậ":{"ha":857,"x_min":21,"x_max":836,"o":"m 143 74 q 105 15 126 29 q 58 0 83 0 q 30 10 39 0 q 21 38 21 21 q 28 72 21 54 l 354 951 q 381 976 360 967 q 431 985 403 985 q 485 975 461 985 q 515 947 510 965 l 833 67 q 836 46 836 53 q 823 13 836 26 q 782 0 810 0 q 723 15 753 0 q 678 74 693 31 l 604 264 l 214 264 l 143 74 m 415 821 l 407 821 l 236 336 l 583 336 l 415 821 m 357 1103 q 267 1061 317 1061 q 229 1070 244 1061 q 214 1090 214 1079 q 219 1103 214 1097 l 361 1250 q 429 1275 385 1275 q 497 1250 475 1275 l 639 1103 q 644 1090 644 1097 q 629 1070 644 1079 q 592 1061 614 1061 q 501 1103 542 1061 l 429 1175 l 357 1103 m 343 -182 q 368 -122 343 -147 q 429 -96 393 -96 q 490 -122 464 -96 q 515 -182 515 -147 q 490 -243 515 -218 q 429 -268 464 -268 q 368 -243 393 -268 q 343 -182 343 -218 z "},"Ầ":{"ha":857,"x_min":21,"x_max":836,"o":"m 453 1396 q 450 1407 450 1399 q 468 1429 450 1421 q 517 1438 486 1438 q 561 1429 542 1438 q 588 1406 581 1421 l 653 1249 q 656 1238 656 1244 q 646 1220 656 1226 q 622 1214 636 1214 q 575 1233 592 1214 l 453 1396 m 357 1103 q 267 1061 317 1061 q 229 1070 244 1061 q 214 1090 214 1079 q 219 1103 214 1097 l 361 1250 q 429 1275 385 1275 q 497 1250 475 1275 l 639 1103 q 644 1090 644 1097 q 629 1070 644 1079 q 592 1061 614 1061 q 501 1103 542 1061 l 429 1175 l 357 1103 m 143 74 q 105 15 126 29 q 58 0 83 0 q 30 10 39 0 q 21 38 21 21 q 28 72 21 54 l 354 951 q 381 976 360 967 q 431 985 403 985 q 485 975 461 985 q 515 947 510 965 l 833 67 q 836 46 836 53 q 823 13 836 26 q 782 0 810 0 q 723 15 753 0 q 678 74 693 31 l 604 264 l 214 264 l 143 74 m 415 821 l 407 821 l 236 336 l 583 336 l 415 821 z "},"Ẩ":{"ha":857,"x_min":21,"x_max":836,"o":"m 143 74 q 105 15 126 29 q 58 0 83 0 q 30 10 39 0 q 21 38 21 21 q 28 72 21 54 l 354 951 q 381 976 360 967 q 431 985 403 985 q 485 975 461 985 q 515 947 510 965 l 833 67 q 836 46 836 53 q 823 13 836 26 q 782 0 810 0 q 723 15 753 0 q 678 74 693 31 l 604 264 l 214 264 l 143 74 m 415 821 l 407 821 l 236 336 l 583 336 l 415 821 m 357 1103 q 267 1061 317 1061 q 229 1070 244 1061 q 214 1090 214 1079 q 219 1103 214 1097 l 361 1250 q 429 1275 385 1275 q 497 1250 475 1275 l 639 1103 q 644 1090 644 1097 q 629 1070 644 1079 q 592 1061 614 1061 q 501 1103 542 1061 l 429 1175 l 357 1103 m 606 1268 q 671 1333 657 1315 q 685 1375 685 1350 q 670 1415 685 1400 q 628 1431 656 1431 q 596 1426 608 1431 q 567 1413 583 1421 q 531 1400 544 1400 q 512 1408 519 1400 q 504 1426 504 1415 q 549 1479 504 1460 q 649 1499 593 1499 q 753 1467 719 1499 q 788 1392 788 1435 q 763 1319 788 1353 q 710 1257 739 1285 q 674 1221 682 1229 q 617 1196 650 1196 q 584 1204 597 1196 q 571 1225 571 1213 q 585 1249 571 1236 l 606 1268 z "},"Ẫ":{"ha":857,"x_min":21,"x_max":836,"o":"m 143 74 q 105 15 126 29 q 58 0 83 0 q 30 10 39 0 q 21 38 21 21 q 28 72 21 54 l 354 951 q 381 976 360 967 q 431 985 403 985 q 485 975 461 985 q 515 947 510 965 l 833 67 q 836 46 836 53 q 823 13 836 26 q 782 0 810 0 q 723 15 753 0 q 678 74 693 31 l 604 264 l 214 264 l 143 74 m 415 821 l 407 821 l 236 336 l 583 336 l 415 821 m 357 1103 q 267 1061 317 1061 q 229 1070 244 1061 q 214 1090 214 1079 q 219 1103 214 1097 l 361 1250 q 429 1275 385 1275 q 497 1250 475 1275 l 639 1103 q 644 1090 644 1097 q 629 1070 644 1079 q 592 1061 614 1061 q 501 1103 542 1061 l 429 1175 l 357 1103 m 336 1364 q 306 1356 315 1364 q 290 1333 297 1349 q 276 1313 283 1319 q 253 1306 269 1306 q 214 1333 214 1306 q 231 1390 214 1360 q 279 1442 247 1421 q 353 1464 311 1464 q 440 1443 394 1460 q 464 1433 446 1440 q 497 1422 482 1425 q 526 1418 513 1418 q 568 1442 556 1418 q 574 1454 569 1444 q 588 1469 579 1464 q 613 1475 597 1475 q 635 1467 628 1475 q 643 1449 643 1460 q 633 1411 643 1431 q 581 1340 613 1363 q 515 1318 550 1318 q 469 1324 490 1318 q 419 1342 449 1329 q 336 1364 360 1364 z "},"Ȁ":{"ha":857,"x_min":21,"x_max":836,"o":"m 206 1282 q 201 1294 201 1286 q 220 1319 201 1310 q 269 1328 239 1328 q 313 1319 293 1328 q 340 1292 333 1310 l 406 1118 q 407 1106 407 1113 q 398 1086 407 1093 q 374 1079 389 1079 q 348 1085 361 1079 q 328 1101 335 1092 l 206 1282 m 400 1282 q 396 1294 396 1286 q 415 1319 396 1310 q 464 1328 433 1328 q 508 1319 488 1328 q 535 1292 528 1310 l 600 1118 q 601 1106 601 1113 q 592 1086 601 1093 q 568 1079 583 1079 q 542 1085 556 1079 q 522 1101 529 1092 l 400 1282 m 143 74 q 105 15 126 29 q 58 0 83 0 q 30 10 39 0 q 21 38 21 21 q 28 72 21 54 l 354 951 q 381 976 360 967 q 431 985 403 985 q 485 975 461 985 q 515 947 510 965 l 833 67 q 836 46 836 53 q 823 13 836 26 q 782 0 810 0 q 723 15 753 0 q 678 74 693 31 l 604 264 l 214 264 l 143 74 m 415 821 l 407 821 l 236 336 l 583 336 l 415 821 z "},"Ä":{"ha":857,"x_min":21,"x_max":836,"o":"m 143 74 q 105 15 126 29 q 58 0 83 0 q 30 10 39 0 q 21 38 21 21 q 28 72 21 54 l 354 951 q 381 976 360 967 q 431 985 403 985 q 485 975 461 985 q 515 947 510 965 l 833 67 q 836 46 836 53 q 823 13 836 26 q 782 0 810 0 q 723 15 753 0 q 678 74 693 31 l 604 264 l 214 264 l 143 74 m 415 821 l 407 821 l 236 336 l 583 336 l 415 821 m 190 1183 q 219 1250 190 1221 q 283 1279 247 1279 q 351 1251 322 1279 q 381 1183 381 1222 q 351 1117 381 1146 q 283 1089 322 1089 q 219 1118 247 1089 q 190 1183 190 1147 m 478 1182 q 506 1249 478 1221 q 572 1278 535 1278 q 639 1249 610 1278 q 668 1182 668 1221 q 639 1117 668 1146 q 572 1088 610 1088 q 506 1117 535 1088 q 478 1182 478 1146 z "},"Ạ":{"ha":857,"x_min":21,"x_max":836,"o":"m 143 74 q 105 15 126 29 q 58 0 83 0 q 30 10 39 0 q 21 38 21 21 q 28 72 21 54 l 354 951 q 381 976 360 967 q 431 985 403 985 q 485 975 461 985 q 515 947 510 965 l 833 67 q 836 46 836 53 q 823 13 836 26 q 782 0 810 0 q 723 15 753 0 q 678 74 693 31 l 604 264 l 214 264 l 143 74 m 415 821 l 407 821 l 236 336 l 583 336 l 415 821 m 343 -182 q 368 -122 343 -147 q 429 -96 393 -96 q 490 -122 464 -96 q 515 -182 515 -147 q 490 -243 515 -218 q 429 -268 464 -268 q 368 -243 393 -268 q 343 -182 343 -218 z "},"À":{"ha":857,"x_min":21,"x_max":836,"o":"m 143 74 q 105 15 126 29 q 58 0 83 0 q 30 10 39 0 q 21 38 21 21 q 28 72 21 54 l 354 951 q 381 976 360 967 q 431 985 403 985 q 485 975 461 985 q 515 947 510 965 l 833 67 q 836 46 836 53 q 823 13 836 26 q 782 0 810 0 q 723 15 753 0 q 678 74 693 31 l 604 264 l 214 264 l 143 74 m 415 821 l 407 821 l 236 336 l 583 336 l 415 821 m 271 1290 q 267 1304 267 1297 q 288 1328 267 1319 q 344 1338 308 1338 q 396 1328 372 1338 q 426 1301 419 1319 l 506 1104 q 508 1090 508 1099 q 497 1071 508 1078 q 469 1064 486 1064 q 440 1070 454 1064 q 418 1086 426 1076 l 271 1290 z "},"Ả":{"ha":857,"x_min":21,"x_max":836,"o":"m 143 74 q 105 15 126 29 q 58 0 83 0 q 30 10 39 0 q 21 38 21 21 q 28 72 21 54 l 354 951 q 381 976 360 967 q 431 985 403 985 q 485 975 461 985 q 515 947 510 965 l 833 67 q 836 46 836 53 q 823 13 836 26 q 782 0 810 0 q 723 15 753 0 q 678 74 693 31 l 604 264 l 214 264 l 143 74 m 415 821 l 407 821 l 236 336 l 583 336 l 415 821 m 403 1099 q 468 1163 454 1146 q 482 1206 482 1181 q 467 1246 482 1231 q 425 1261 453 1261 q 393 1256 406 1261 q 364 1243 381 1251 q 328 1231 342 1231 q 309 1238 317 1231 q 301 1257 301 1246 q 346 1310 301 1290 q 446 1329 390 1329 q 551 1297 517 1329 q 585 1222 585 1265 q 560 1149 585 1183 q 508 1088 536 1115 q 471 1051 479 1060 q 414 1026 447 1026 q 381 1035 394 1026 q 368 1056 368 1043 q 382 1079 368 1067 l 403 1099 z "},"Ȃ":{"ha":857,"x_min":21,"x_max":836,"o":"m 143 74 q 105 15 126 29 q 58 0 83 0 q 30 10 39 0 q 21 38 21 21 q 28 72 21 54 l 354 951 q 381 976 360 967 q 431 985 403 985 q 485 975 461 985 q 515 947 510 965 l 833 67 q 836 46 836 53 q 823 13 836 26 q 782 0 810 0 q 723 15 753 0 q 678 74 693 31 l 604 264 l 214 264 l 143 74 m 415 821 l 407 821 l 236 336 l 583 336 l 415 821 m 632 1099 q 622 1071 632 1082 q 594 1060 613 1060 q 565 1070 578 1060 q 544 1097 551 1081 q 498 1165 526 1147 q 428 1183 469 1183 q 358 1165 386 1183 q 313 1097 331 1147 q 292 1070 306 1081 q 263 1060 279 1060 q 235 1071 244 1060 q 225 1099 225 1082 q 281 1224 225 1174 q 428 1275 338 1275 q 576 1224 519 1275 q 632 1099 632 1174 z "},"Ā":{"ha":857,"x_min":21,"x_max":836,"o":"m 143 74 q 105 15 126 29 q 58 0 83 0 q 30 10 39 0 q 21 38 21 21 q 28 72 21 54 l 354 951 q 381 976 360 967 q 431 985 403 985 q 485 975 461 985 q 515 947 510 965 l 833 67 q 836 46 836 53 q 823 13 836 26 q 782 0 810 0 q 723 15 753 0 q 678 74 693 31 l 604 264 l 214 264 l 143 74 m 415 821 l 407 821 l 236 336 l 583 336 l 415 821 m 253 1093 q 229 1105 239 1093 q 219 1135 219 1117 q 229 1166 219 1154 q 253 1178 239 1178 l 606 1178 q 628 1166 618 1178 q 639 1135 639 1154 q 630 1104 639 1115 q 606 1093 621 1093 l 253 1093 z "},"Ą":{"ha":857,"x_min":21,"x_max":915,"o":"m 889 -178 q 908 -185 900 -178 q 915 -204 915 -193 q 866 -257 915 -237 q 763 -276 817 -276 q 664 -243 696 -276 q 632 -162 632 -210 q 753 3 632 -71 q 678 74 699 17 l 604 264 l 214 264 l 143 74 q 105 15 126 29 q 58 0 83 0 q 30 10 39 0 q 21 38 21 21 q 28 72 21 54 l 354 951 q 381 976 360 967 q 431 985 403 985 q 485 975 461 985 q 515 947 510 965 l 833 67 q 836 46 836 53 q 824 14 836 26 l 844 14 q 738 -149 738 -75 q 753 -192 738 -175 q 796 -208 769 -208 q 828 -203 815 -208 q 856 -190 842 -199 q 889 -178 874 -178 m 236 336 l 583 336 l 415 821 l 407 821 l 236 336 z "},"Å":{"ha":857,"x_min":21,"x_max":836,"o":"m 143 74 q 105 15 126 29 q 58 0 83 0 q 30 10 39 0 q 21 38 21 21 q 28 72 21 54 l 354 951 q 381 976 360 967 q 431 985 403 985 q 485 975 461 985 q 515 947 510 965 l 833 67 q 836 46 836 53 q 823 13 836 26 q 782 0 810 0 q 723 15 753 0 q 678 74 693 31 l 604 264 l 214 264 l 143 74 m 415 821 l 407 821 l 236 336 l 583 336 l 415 821 m 279 1207 q 322 1314 279 1271 q 429 1357 365 1357 q 535 1314 492 1357 q 579 1207 579 1271 q 535 1101 579 1144 q 429 1057 492 1057 q 322 1101 365 1057 q 279 1207 279 1144 m 356 1207 q 378 1156 356 1178 q 429 1135 400 1135 q 479 1156 457 1135 q 501 1207 501 1178 q 479 1258 501 1236 q 429 1281 457 1281 q 378 1258 400 1281 q 356 1207 356 1236 z "},"Ǻ":{"ha":857,"x_min":21,"x_max":836,"o":"m 615 1128 q 592 1134 601 1128 q 582 1151 582 1140 q 585 1163 582 1158 l 650 1319 q 676 1343 657 1335 q 721 1351 696 1351 q 769 1343 751 1351 q 788 1321 788 1335 q 785 1310 788 1313 l 663 1147 q 615 1128 646 1128 m 833 67 q 836 46 836 53 q 823 13 836 26 q 782 0 810 0 q 723 15 753 0 q 678 74 693 31 l 604 264 l 214 264 l 143 74 q 105 15 126 29 q 58 0 83 0 q 30 10 39 0 q 21 38 21 21 q 28 72 21 54 l 347 932 q 297 985 315 951 q 279 1058 279 1019 q 322 1165 279 1122 q 429 1208 365 1208 q 535 1165 492 1208 q 579 1058 579 1122 q 563 990 579 1021 q 518 938 547 958 l 833 67 m 429 1132 q 378 1110 400 1132 q 356 1058 356 1088 q 378 1008 356 1029 q 429 986 400 986 q 479 1008 457 986 q 501 1058 501 1029 q 479 1110 501 1088 q 429 1132 457 1132 m 236 336 l 583 336 l 415 821 l 407 821 l 236 336 z "},"Ã":{"ha":857,"x_min":21,"x_max":836,"o":"m 143 74 q 105 15 126 29 q 58 0 83 0 q 30 10 39 0 q 21 38 21 21 q 28 72 21 54 l 354 951 q 381 976 360 967 q 431 985 403 985 q 485 975 461 985 q 515 947 510 965 l 833 67 q 836 46 836 53 q 823 13 836 26 q 782 0 810 0 q 723 15 753 0 q 678 74 693 31 l 604 264 l 214 264 l 143 74 m 415 821 l 407 821 l 236 336 l 583 336 l 415 821 m 336 1129 q 306 1122 315 1129 q 290 1099 297 1114 q 276 1078 283 1085 q 253 1071 269 1071 q 214 1099 214 1071 q 231 1156 214 1125 q 279 1208 247 1186 q 353 1229 311 1229 q 440 1208 394 1225 q 464 1198 446 1206 q 497 1187 482 1190 q 526 1183 513 1183 q 568 1207 556 1183 q 574 1219 569 1210 q 588 1235 579 1229 q 613 1240 597 1240 q 635 1233 628 1240 q 643 1214 643 1225 q 633 1176 643 1196 q 581 1106 613 1128 q 515 1083 550 1083 q 469 1089 490 1083 q 419 1107 449 1094 q 336 1129 360 1129 z "},"Æ":{"ha":1164,"x_min":21,"x_max":1108,"o":"m 1049 242 q 1094 225 1079 242 q 1108 172 1108 208 l 1108 51 q 1088 11 1108 22 q 1025 0 1068 0 l 601 0 q 553 17 569 0 q 538 69 538 33 l 538 264 l 242 264 l 143 74 q 105 15 126 29 q 58 0 83 0 q 30 10 39 0 q 21 39 21 21 q 28 72 21 54 l 479 951 q 532 985 496 985 l 1004 985 q 1067 974 1047 985 q 1088 933 1088 963 l 1088 813 q 1073 760 1088 776 q 1028 743 1058 743 q 967 764 988 743 q 947 833 947 785 l 947 911 l 688 911 l 688 547 l 910 547 q 938 535 928 547 q 949 508 949 524 q 936 483 949 494 q 910 471 924 471 l 688 471 l 688 74 l 968 74 l 968 151 q 988 221 968 200 q 1049 242 1008 242 m 279 336 l 538 336 l 538 821 l 532 821 l 279 336 z "},"Ǽ":{"ha":1164,"x_min":21,"x_max":1108,"o":"m 1049 242 q 1094 225 1079 242 q 1108 172 1108 208 l 1108 51 q 1088 11 1108 22 q 1025 0 1068 0 l 601 0 q 553 17 569 0 q 538 69 538 33 l 538 264 l 242 264 l 143 74 q 105 15 126 29 q 58 0 83 0 q 30 10 39 0 q 21 39 21 21 q 28 72 21 54 l 479 951 q 532 985 496 985 l 1004 985 q 1067 974 1047 985 q 1088 933 1088 963 l 1088 813 q 1073 760 1088 776 q 1028 743 1058 743 q 967 764 988 743 q 947 833 947 785 l 947 911 l 688 911 l 688 547 l 910 547 q 938 535 928 547 q 949 508 949 524 q 936 483 949 494 q 910 471 924 471 l 688 471 l 688 74 l 968 74 l 968 151 q 988 221 968 200 q 1049 242 1008 242 m 279 336 l 538 336 l 538 821 l 532 821 l 279 336 m 689 1086 q 667 1070 682 1076 q 638 1064 653 1064 q 609 1072 619 1064 q 599 1092 599 1079 q 601 1104 599 1096 l 681 1301 q 712 1328 689 1319 q 763 1338 735 1338 q 819 1328 797 1338 q 842 1304 842 1319 q 836 1290 842 1301 l 689 1086 z "},"B":{"ha":931,"x_min":139,"x_max":847,"o":"m 139 915 q 155 968 139 951 q 203 985 171 985 l 488 985 q 796 738 796 985 q 753 608 796 668 q 639 529 711 547 l 639 522 q 796 442 744 504 q 847 294 847 381 q 738 63 847 126 q 494 0 629 0 l 203 0 q 155 17 171 0 q 139 69 139 33 l 139 915 m 289 553 l 449 553 q 537 572 493 553 q 610 633 581 590 q 639 742 639 675 q 576 872 639 832 q 438 911 514 911 l 289 911 l 289 553 m 289 74 l 475 74 q 624 122 557 74 q 690 281 690 169 q 656 394 690 350 q 568 459 621 439 q 461 479 515 479 l 289 479 l 289 74 z "},"C":{"ha":807,"x_min":74,"x_max":779,"o":"m 699 735 q 638 756 658 735 q 618 825 618 776 l 618 903 q 517 914 567 914 q 308 803 385 914 q 231 481 231 693 q 306 163 231 254 q 526 72 381 72 q 708 113 613 72 l 735 124 q 746 126 743 126 q 769 113 760 126 q 779 85 779 100 q 761 57 779 65 l 738 47 q 623 12 681 24 q 488 0 565 0 q 175 126 276 0 q 74 483 74 251 q 128 764 74 651 q 279 931 183 876 q 499 985 375 985 q 701 956 610 985 q 747 931 735 944 q 758 888 758 918 l 758 804 q 744 751 758 768 q 699 735 729 735 z "},"Ć":{"ha":807,"x_min":74,"x_max":779,"o":"m 699 735 q 638 756 658 735 q 618 825 618 776 l 618 903 q 517 914 567 914 q 308 803 385 914 q 231 481 231 693 q 306 163 231 254 q 526 72 381 72 q 708 113 613 72 l 735 124 q 746 126 743 126 q 769 113 760 126 q 779 85 779 100 q 761 57 779 65 l 738 47 q 623 12 681 24 q 488 0 565 0 q 175 126 276 0 q 74 483 74 251 q 128 764 74 651 q 279 931 183 876 q 499 985 375 985 q 701 956 610 985 q 747 931 735 944 q 758 888 758 918 l 758 804 q 744 751 758 768 q 699 735 729 735 m 522 1086 q 501 1070 515 1076 q 471 1064 486 1064 q 442 1072 453 1064 q 432 1092 432 1079 q 435 1104 432 1096 l 514 1301 q 545 1328 522 1319 q 596 1338 568 1338 q 653 1328 631 1338 q 675 1304 675 1319 q 669 1290 675 1301 l 522 1086 z "},"Č":{"ha":807,"x_min":74,"x_max":779,"o":"m 699 735 q 638 756 658 735 q 618 825 618 776 l 618 903 q 517 914 567 914 q 308 803 385 914 q 231 481 231 693 q 306 163 231 254 q 526 72 381 72 q 708 113 613 72 l 735 124 q 746 126 743 126 q 769 113 760 126 q 779 85 779 100 q 761 57 779 65 l 738 47 q 623 12 681 24 q 488 0 565 0 q 175 126 276 0 q 74 483 74 251 q 128 764 74 651 q 279 931 183 876 q 499 985 375 985 q 701 956 610 985 q 747 931 735 944 q 758 888 758 918 l 758 804 q 744 751 758 768 q 699 735 729 735 m 575 1233 q 672 1276 619 1276 q 713 1267 697 1276 q 729 1246 729 1258 q 724 1233 729 1239 l 571 1082 q 503 1056 544 1056 q 425 1082 451 1056 l 272 1233 q 267 1246 267 1239 q 283 1267 267 1258 q 324 1276 299 1276 q 421 1233 376 1276 l 497 1158 l 575 1233 z "},"Ç":{"ha":807,"x_min":74,"x_max":779,"o":"m 746 126 q 769 113 760 126 q 779 85 779 100 q 761 57 779 65 l 738 47 q 638 15 688 26 q 525 1 589 3 l 525 -53 q 665 -156 665 -53 q 622 -243 665 -211 q 511 -275 579 -275 q 426 -260 468 -275 q 385 -218 385 -244 q 393 -199 385 -207 q 414 -192 401 -192 q 446 -199 425 -192 q 494 -207 476 -207 q 544 -193 528 -207 q 560 -160 560 -179 q 535 -115 560 -125 q 453 -104 510 -104 l 453 1 q 167 136 260 11 q 74 483 74 261 q 128 764 74 651 q 279 931 183 876 q 499 985 375 985 q 701 956 610 985 q 747 931 735 944 q 758 888 758 918 l 758 804 q 744 751 758 768 q 699 735 729 735 q 638 756 658 735 q 618 825 618 776 l 618 903 q 517 914 567 914 q 308 803 385 914 q 231 481 231 693 q 306 163 231 254 q 526 72 381 72 q 708 113 613 72 l 735 124 q 746 126 743 126 z "},"Ĉ":{"ha":807,"x_min":74,"x_max":779,"o":"m 699 735 q 638 756 658 735 q 618 825 618 776 l 618 903 q 517 914 567 914 q 308 803 385 914 q 231 481 231 693 q 306 163 231 254 q 526 72 381 72 q 708 113 613 72 l 735 124 q 746 126 743 126 q 769 113 760 126 q 779 85 779 100 q 761 57 779 65 l 738 47 q 623 12 681 24 q 488 0 565 0 q 175 126 276 0 q 74 483 74 251 q 128 764 74 651 q 279 931 183 876 q 499 985 375 985 q 701 956 610 985 q 747 931 735 944 q 758 888 758 918 l 758 804 q 744 751 758 768 q 699 735 729 735 m 426 1103 q 336 1061 386 1061 q 299 1070 314 1061 q 283 1090 283 1079 q 289 1103 283 1097 l 431 1250 q 499 1275 454 1275 q 567 1250 544 1275 l 708 1103 q 714 1090 714 1097 q 699 1070 714 1079 q 661 1061 683 1061 q 571 1103 611 1061 l 499 1175 l 426 1103 z "},"Ċ":{"ha":807,"x_min":74,"x_max":779,"o":"m 699 735 q 638 756 658 735 q 618 825 618 776 l 618 903 q 517 914 567 914 q 308 803 385 914 q 231 481 231 693 q 306 163 231 254 q 526 72 381 72 q 708 113 613 72 l 735 124 q 746 126 743 126 q 769 113 760 126 q 779 85 779 100 q 761 57 779 65 l 738 47 q 623 12 681 24 q 488 0 565 0 q 175 126 276 0 q 74 483 74 251 q 128 764 74 651 q 279 931 183 876 q 499 985 375 985 q 701 956 610 985 q 747 931 735 944 q 758 888 758 918 l 758 804 q 744 751 758 768 q 699 735 729 735 m 413 1161 q 438 1222 413 1197 q 499 1247 463 1247 q 559 1222 533 1247 q 585 1161 585 1197 q 559 1101 585 1126 q 499 1075 533 1075 q 438 1101 463 1075 q 413 1161 413 1126 z "},"D":{"ha":963,"x_min":139,"x_max":889,"o":"m 139 915 q 155 968 139 951 q 203 985 171 985 l 401 985 q 889 497 889 985 q 813 203 889 315 q 628 46 738 92 q 408 0 519 0 l 203 0 q 155 17 171 0 q 139 69 139 33 l 139 915 m 289 74 l 319 74 l 319 75 l 385 75 q 635 179 539 75 q 732 497 732 283 q 637 813 732 714 q 385 911 542 911 l 289 911 l 289 74 z "},"Ǳ":{"ha":1785,"x_min":139,"x_max":1729,"o":"m 139 915 q 155 968 139 951 q 203 985 171 985 l 401 985 q 889 497 889 985 q 813 203 889 315 q 628 46 738 92 q 408 0 519 0 l 203 0 q 155 17 171 0 q 139 69 139 33 l 139 915 m 289 74 l 319 74 l 319 75 l 385 75 q 635 179 539 75 q 732 497 732 283 q 637 813 732 714 q 385 911 542 911 l 289 911 l 289 74 m 1081 0 q 1034 19 1050 0 q 1018 68 1018 39 q 1021 95 1018 81 q 1029 118 1024 110 l 1561 911 l 1189 911 l 1189 833 q 1169 764 1189 785 q 1108 743 1149 743 q 1063 760 1078 743 q 1049 813 1049 776 l 1049 933 q 1069 974 1049 963 q 1132 985 1089 985 l 1656 985 q 1702 964 1686 985 q 1718 914 1718 943 q 1715 888 1718 901 q 1707 867 1713 874 l 1163 74 l 1589 74 l 1589 151 q 1609 221 1589 200 q 1669 242 1629 242 q 1715 225 1700 242 q 1729 172 1729 208 l 1729 51 q 1709 11 1729 22 q 1646 0 1689 0 l 1081 0 z "},"Ǆ":{"ha":1785,"x_min":139,"x_max":1729,"o":"m 139 915 q 155 968 139 951 q 203 985 171 985 l 401 985 q 889 497 889 985 q 813 203 889 315 q 628 46 738 92 q 408 0 519 0 l 203 0 q 155 17 171 0 q 139 69 139 33 l 139 915 m 289 74 l 319 74 l 319 75 l 385 75 q 635 179 539 75 q 732 497 732 283 q 637 813 732 714 q 385 911 542 911 l 289 911 l 289 74 m 1081 0 q 1034 19 1050 0 q 1018 68 1018 39 q 1021 95 1018 81 q 1029 118 1024 110 l 1561 911 l 1189 911 l 1189 833 q 1169 764 1189 785 q 1108 743 1149 743 q 1063 760 1078 743 q 1049 813 1049 776 l 1049 933 q 1069 974 1049 963 q 1132 985 1089 985 l 1656 985 q 1702 964 1686 985 q 1718 914 1718 943 q 1715 888 1718 901 q 1707 867 1713 874 l 1163 74 l 1589 74 l 1589 151 q 1609 221 1589 200 q 1669 242 1629 242 q 1715 225 1700 242 q 1729 172 1729 208 l 1729 51 q 1709 11 1729 22 q 1646 0 1689 0 l 1081 0 m 1450 1233 q 1547 1276 1494 1276 q 1588 1267 1572 1276 q 1604 1246 1604 1258 q 1599 1233 1604 1239 l 1446 1082 q 1378 1056 1419 1056 q 1300 1082 1326 1056 l 1147 1233 q 1142 1246 1142 1239 q 1158 1267 1142 1258 q 1199 1276 1174 1276 q 1296 1233 1251 1276 l 1372 1158 l 1450 1233 z "},"Ð":{"ha":963,"x_min":21,"x_max":889,"o":"m 139 915 q 155 968 139 951 q 203 985 171 985 l 401 985 q 889 497 889 985 q 813 203 889 315 q 628 46 738 92 q 408 0 519 0 l 203 0 q 155 17 171 0 q 139 69 139 33 l 139 471 l 50 471 q 28 482 36 471 q 21 508 21 493 q 28 535 21 524 q 50 547 36 547 l 139 547 l 139 915 m 289 547 l 524 547 q 545 535 538 547 q 553 508 553 524 q 545 482 553 493 q 524 471 538 471 l 289 471 l 289 74 l 319 74 l 319 75 l 385 75 q 635 179 539 75 q 732 497 732 283 q 637 813 732 714 q 385 911 542 911 l 289 911 l 289 547 z "},"Ď":{"ha":963,"x_min":139,"x_max":889,"o":"m 139 915 q 155 968 139 951 q 203 985 171 985 l 401 985 q 889 497 889 985 q 813 203 889 315 q 628 46 738 92 q 408 0 519 0 l 203 0 q 155 17 171 0 q 139 69 139 33 l 139 915 m 289 74 l 319 74 l 319 75 l 385 75 q 635 179 539 75 q 732 497 732 283 q 637 813 732 714 q 385 911 542 911 l 289 911 l 289 74 m 558 1233 q 656 1276 603 1276 q 697 1267 681 1276 q 713 1246 713 1258 q 707 1233 713 1239 l 554 1082 q 486 1056 528 1056 q 408 1082 435 1056 l 256 1233 q 250 1246 250 1239 q 266 1267 250 1258 q 307 1276 282 1276 q 404 1233 360 1276 l 481 1158 l 558 1233 z "},"Đ":{"ha":963,"x_min":21,"x_max":889,"o":"m 139 915 q 155 968 139 951 q 203 985 171 985 l 401 985 q 889 497 889 985 q 813 203 889 315 q 628 46 738 92 q 408 0 519 0 l 203 0 q 155 17 171 0 q 139 69 139 33 l 139 471 l 50 471 q 28 482 36 471 q 21 508 21 493 q 28 535 21 524 q 50 547 36 547 l 139 547 l 139 915 m 289 547 l 524 547 q 545 535 538 547 q 553 508 553 524 q 545 482 553 493 q 524 471 538 471 l 289 471 l 289 74 l 319 74 l 319 75 l 385 75 q 635 179 539 75 q 732 497 732 283 q 637 813 732 714 q 385 911 542 911 l 289 911 l 289 547 z "},"ǲ":{"ha":1621,"x_min":139,"x_max":1579,"o":"m 139 915 q 155 968 139 951 q 203 985 171 985 l 401 985 q 889 497 889 985 q 813 203 889 315 q 628 46 738 92 q 408 0 519 0 l 203 0 q 155 17 171 0 q 139 69 139 33 l 139 915 m 289 74 l 319 74 l 319 75 l 385 75 q 635 179 539 75 q 732 497 732 283 q 637 813 732 714 q 385 911 542 911 l 289 911 l 289 74 m 1528 697 q 1567 685 1554 697 q 1579 657 1579 674 q 1573 624 1579 640 q 1558 596 1567 607 l 1158 65 l 1442 65 l 1442 99 q 1458 170 1442 153 q 1518 188 1474 188 q 1558 173 1547 188 q 1569 129 1569 158 l 1569 43 q 1525 0 1569 0 l 1057 0 q 1017 12 1029 0 q 1004 40 1004 24 q 1025 101 1004 72 l 1422 632 l 1161 632 l 1161 599 q 1145 527 1161 544 q 1085 510 1129 510 q 1044 524 1056 510 q 1033 568 1033 539 l 1033 654 q 1078 697 1033 697 l 1528 697 z "},"ǅ":{"ha":1621,"x_min":139,"x_max":1579,"o":"m 139 915 q 155 968 139 951 q 203 985 171 985 l 401 985 q 889 497 889 985 q 813 203 889 315 q 628 46 738 92 q 408 0 519 0 l 203 0 q 155 17 171 0 q 139 69 139 33 l 139 915 m 289 74 l 319 74 l 319 75 l 385 75 q 635 179 539 75 q 732 497 732 283 q 637 813 732 714 q 385 911 542 911 l 289 911 l 289 74 m 1528 697 q 1567 685 1554 697 q 1579 657 1579 674 q 1573 624 1579 640 q 1558 596 1567 607 l 1158 65 l 1442 65 l 1442 99 q 1458 170 1442 153 q 1518 188 1474 188 q 1558 173 1547 188 q 1569 129 1569 158 l 1569 43 q 1525 0 1569 0 l 1057 0 q 1017 12 1029 0 q 1004 40 1004 24 q 1025 101 1004 72 l 1422 632 l 1161 632 l 1161 599 q 1145 527 1161 544 q 1085 510 1129 510 q 1044 524 1056 510 q 1033 568 1033 539 l 1033 654 q 1078 697 1033 697 l 1528 697 m 1383 946 q 1481 989 1428 989 q 1522 980 1506 989 q 1538 958 1538 971 q 1532 946 1538 951 l 1379 794 q 1311 768 1353 768 q 1233 794 1260 768 l 1081 946 q 1075 958 1075 951 q 1091 980 1075 971 q 1132 989 1107 989 q 1229 946 1185 989 l 1306 871 l 1383 946 z "},"E":{"ha":835,"x_min":139,"x_max":779,"o":"m 699 743 q 638 764 658 743 q 618 833 618 785 l 618 911 l 289 911 l 289 547 l 581 547 q 609 535 599 547 q 619 508 619 524 q 607 483 619 494 q 581 471 594 471 l 289 471 l 289 74 l 639 74 l 639 151 q 659 221 639 200 q 719 242 679 242 q 765 225 750 242 q 779 172 779 208 l 779 51 q 759 11 779 22 q 696 0 739 0 l 203 0 q 155 17 171 0 q 139 69 139 33 l 139 915 q 155 968 139 951 q 203 985 171 985 l 675 985 q 738 974 718 985 q 758 933 758 963 l 758 813 q 744 760 758 776 q 699 743 729 743 z "},"É":{"ha":835,"x_min":139,"x_max":779,"o":"m 699 743 q 638 764 658 743 q 618 833 618 785 l 618 911 l 289 911 l 289 547 l 581 547 q 609 535 599 547 q 619 508 619 524 q 607 483 619 494 q 581 471 594 471 l 289 471 l 289 74 l 639 74 l 639 151 q 659 221 639 200 q 719 242 679 242 q 765 225 750 242 q 779 172 779 208 l 779 51 q 759 11 779 22 q 696 0 739 0 l 203 0 q 155 17 171 0 q 139 69 139 33 l 139 915 q 155 968 139 951 q 203 985 171 985 l 675 985 q 738 974 718 985 q 758 933 758 963 l 758 813 q 744 760 758 776 q 699 743 729 743 m 506 1086 q 484 1070 499 1076 q 454 1064 469 1064 q 426 1072 436 1064 q 415 1092 415 1079 q 418 1104 415 1096 l 497 1301 q 528 1328 506 1319 q 579 1338 551 1338 q 636 1328 614 1338 q 658 1304 658 1319 q 653 1290 658 1301 l 506 1086 z "},"Ĕ":{"ha":835,"x_min":139,"x_max":779,"o":"m 699 743 q 638 764 658 743 q 618 833 618 785 l 618 911 l 289 911 l 289 547 l 581 547 q 609 535 599 547 q 619 508 619 524 q 607 483 619 494 q 581 471 594 471 l 289 471 l 289 74 l 639 74 l 639 151 q 659 221 639 200 q 719 242 679 242 q 765 225 750 242 q 779 172 779 208 l 779 51 q 759 11 779 22 q 696 0 739 0 l 203 0 q 155 17 171 0 q 139 69 139 33 l 139 915 q 155 968 139 951 q 203 985 171 985 l 675 985 q 738 974 718 985 q 758 933 758 963 l 758 813 q 744 760 758 776 q 699 743 729 743 m 685 1236 q 628 1110 685 1161 q 481 1060 572 1060 q 334 1110 390 1060 q 278 1236 278 1161 q 288 1264 278 1253 q 315 1275 297 1275 q 345 1265 332 1275 q 365 1238 358 1254 q 411 1169 383 1188 q 481 1151 439 1151 q 551 1169 522 1151 q 597 1238 579 1188 q 617 1265 604 1254 q 647 1275 631 1275 q 675 1264 665 1275 q 685 1236 685 1253 z "},"Ě":{"ha":835,"x_min":139,"x_max":779,"o":"m 699 743 q 638 764 658 743 q 618 833 618 785 l 618 911 l 289 911 l 289 547 l 581 547 q 609 535 599 547 q 619 508 619 524 q 607 483 619 494 q 581 471 594 471 l 289 471 l 289 74 l 639 74 l 639 151 q 659 221 639 200 q 719 242 679 242 q 765 225 750 242 q 779 172 779 208 l 779 51 q 759 11 779 22 q 696 0 739 0 l 203 0 q 155 17 171 0 q 139 69 139 33 l 139 915 q 155 968 139 951 q 203 985 171 985 l 675 985 q 738 974 718 985 q 758 933 758 963 l 758 813 q 744 760 758 776 q 699 743 729 743 m 558 1233 q 656 1276 603 1276 q 697 1267 681 1276 q 713 1246 713 1258 q 707 1233 713 1239 l 554 1082 q 486 1056 528 1056 q 408 1082 435 1056 l 256 1233 q 250 1246 250 1239 q 266 1267 250 1258 q 307 1276 282 1276 q 404 1233 360 1276 l 481 1158 l 558 1233 z "},"Ê":{"ha":835,"x_min":139,"x_max":779,"o":"m 699 743 q 638 764 658 743 q 618 833 618 785 l 618 911 l 289 911 l 289 547 l 581 547 q 609 535 599 547 q 619 508 619 524 q 607 483 619 494 q 581 471 594 471 l 289 471 l 289 74 l 639 74 l 639 151 q 659 221 639 200 q 719 242 679 242 q 765 225 750 242 q 779 172 779 208 l 779 51 q 759 11 779 22 q 696 0 739 0 l 203 0 q 155 17 171 0 q 139 69 139 33 l 139 915 q 155 968 139 951 q 203 985 171 985 l 675 985 q 738 974 718 985 q 758 933 758 963 l 758 813 q 744 760 758 776 q 699 743 729 743 m 410 1103 q 319 1061 369 1061 q 282 1070 297 1061 q 267 1090 267 1079 q 272 1103 267 1097 l 414 1250 q 482 1275 438 1275 q 550 1250 528 1275 l 692 1103 q 697 1090 697 1097 q 682 1070 697 1079 q 644 1061 667 1061 q 554 1103 594 1061 l 482 1175 l 410 1103 z "},"Ế":{"ha":835,"x_min":139,"x_max":813,"o":"m 688 1233 q 640 1214 671 1214 q 617 1220 626 1214 q 607 1238 607 1226 q 610 1249 607 1244 l 675 1406 q 701 1429 682 1421 q 746 1438 721 1438 q 794 1429 776 1438 q 813 1407 813 1421 q 810 1396 813 1399 l 688 1233 m 410 1103 q 319 1061 369 1061 q 282 1070 297 1061 q 267 1090 267 1079 q 272 1103 267 1097 l 414 1250 q 482 1275 436 1275 q 550 1250 528 1275 l 692 1103 q 697 1090 697 1097 q 682 1070 697 1079 q 644 1061 667 1061 q 554 1103 594 1061 l 482 1175 l 410 1103 m 699 743 q 638 764 658 743 q 618 833 618 785 l 618 911 l 289 911 l 289 547 l 581 547 q 609 535 599 547 q 619 508 619 524 q 607 483 619 494 q 581 471 594 471 l 289 471 l 289 74 l 639 74 l 639 151 q 659 221 639 200 q 719 242 679 242 q 765 225 750 242 q 779 172 779 208 l 779 51 q 759 11 779 22 q 696 0 739 0 l 203 0 q 155 17 171 0 q 139 69 139 33 l 139 915 q 155 968 139 951 q 203 985 171 985 l 675 985 q 738 974 718 985 q 758 933 758 963 l 758 813 q 744 760 758 776 q 699 743 729 743 z "},"Ệ":{"ha":835,"x_min":139,"x_max":779,"o":"m 699 743 q 638 764 658 743 q 618 833 618 785 l 618 911 l 289 911 l 289 547 l 581 547 q 609 535 599 547 q 619 508 619 524 q 607 483 619 494 q 581 471 594 471 l 289 471 l 289 74 l 639 74 l 639 151 q 659 221 639 200 q 719 242 679 242 q 765 225 750 242 q 779 172 779 208 l 779 51 q 759 11 779 22 q 696 0 739 0 l 203 0 q 155 17 171 0 q 139 69 139 33 l 139 915 q 155 968 139 951 q 203 985 171 985 l 675 985 q 738 974 718 985 q 758 933 758 963 l 758 813 q 744 760 758 776 q 699 743 729 743 m 410 1103 q 319 1061 369 1061 q 282 1070 297 1061 q 267 1090 267 1079 q 272 1103 267 1097 l 414 1250 q 482 1275 438 1275 q 550 1250 528 1275 l 692 1103 q 697 1090 697 1097 q 682 1070 697 1079 q 644 1061 667 1061 q 554 1103 594 1061 l 482 1175 l 410 1103 z "},"Ề":{"ha":835,"x_min":139,"x_max":779,"o":"m 506 1396 q 503 1407 503 1399 q 521 1429 503 1421 q 569 1438 539 1438 q 614 1429 594 1438 q 640 1406 633 1421 l 706 1249 q 708 1238 708 1244 q 699 1220 708 1226 q 675 1214 689 1214 q 628 1233 644 1214 l 506 1396 m 410 1103 q 319 1061 369 1061 q 282 1070 297 1061 q 267 1090 267 1079 q 272 1103 267 1097 l 414 1250 q 482 1275 436 1275 q 550 1250 528 1275 l 692 1103 q 697 1090 697 1097 q 682 1070 697 1079 q 644 1061 667 1061 q 554 1103 594 1061 l 482 1175 l 410 1103 m 699 743 q 638 764 658 743 q 618 833 618 785 l 618 911 l 289 911 l 289 547 l 581 547 q 609 535 599 547 q 619 508 619 524 q 607 483 619 494 q 581 471 594 471 l 289 471 l 289 74 l 639 74 l 639 151 q 659 221 639 200 q 719 242 679 242 q 765 225 750 242 q 779 172 779 208 l 779 51 q 759 11 779 22 q 696 0 739 0 l 203 0 q 155 17 171 0 q 139 69 139 33 l 139 915 q 155 968 139 951 q 203 985 171 985 l 675 985 q 738 974 718 985 q 758 933 758 963 l 758 813 q 744 760 758 776 q 699 743 729 743 z "},"Ể":{"ha":835,"x_min":139,"x_max":840,"o":"m 699 743 q 638 764 658 743 q 618 833 618 785 l 618 911 l 289 911 l 289 547 l 581 547 q 609 535 599 547 q 619 508 619 524 q 607 483 619 494 q 581 471 594 471 l 289 471 l 289 74 l 639 74 l 639 151 q 659 221 639 200 q 719 242 679 242 q 765 225 750 242 q 779 172 779 208 l 779 51 q 759 11 779 22 q 696 0 739 0 l 203 0 q 155 17 171 0 q 139 69 139 33 l 139 915 q 155 968 139 951 q 203 985 171 985 l 675 985 q 738 974 718 985 q 758 933 758 963 l 758 813 q 744 760 758 776 q 699 743 729 743 m 410 1103 q 319 1061 369 1061 q 282 1070 297 1061 q 267 1090 267 1079 q 272 1103 267 1097 l 414 1250 q 482 1275 438 1275 q 550 1250 528 1275 l 692 1103 q 697 1090 697 1097 q 682 1070 697 1079 q 644 1061 667 1061 q 554 1103 594 1061 l 482 1175 l 410 1103 m 658 1268 q 724 1333 710 1315 q 738 1375 738 1350 q 723 1415 738 1400 q 681 1431 708 1431 q 649 1426 661 1431 q 619 1413 636 1421 q 583 1400 597 1400 q 565 1408 572 1400 q 557 1426 557 1415 q 601 1479 557 1460 q 701 1499 646 1499 q 806 1467 772 1499 q 840 1392 840 1435 q 816 1319 840 1353 q 763 1257 792 1285 q 726 1221 735 1229 q 669 1196 703 1196 q 637 1204 650 1196 q 624 1225 624 1213 q 638 1249 624 1236 l 658 1268 z "},"Ễ":{"ha":835,"x_min":139,"x_max":779,"o":"m 699 743 q 638 764 658 743 q 618 833 618 785 l 618 911 l 289 911 l 289 547 l 581 547 q 609 535 599 547 q 619 508 619 524 q 607 483 619 494 q 581 471 594 471 l 289 471 l 289 74 l 639 74 l 639 151 q 659 221 639 200 q 719 242 679 242 q 765 225 750 242 q 779 172 779 208 l 779 51 q 759 11 779 22 q 696 0 739 0 l 203 0 q 155 17 171 0 q 139 69 139 33 l 139 915 q 155 968 139 951 q 203 985 171 985 l 675 985 q 738 974 718 985 q 758 933 758 963 l 758 813 q 744 760 758 776 q 699 743 729 743 m 410 1103 q 319 1061 369 1061 q 282 1070 297 1061 q 267 1090 267 1079 q 272 1103 267 1097 l 414 1250 q 482 1275 438 1275 q 550 1250 528 1275 l 692 1103 q 697 1090 697 1097 q 682 1070 697 1079 q 644 1061 667 1061 q 554 1103 594 1061 l 482 1175 l 410 1103 m 389 1364 q 359 1356 368 1364 q 343 1333 350 1349 q 329 1313 336 1319 q 306 1306 322 1306 q 267 1333 267 1306 q 283 1390 267 1360 q 332 1442 300 1421 q 406 1464 364 1464 q 493 1443 447 1460 q 517 1433 499 1440 q 550 1422 535 1425 q 579 1418 565 1418 q 621 1442 608 1418 q 627 1454 622 1444 q 641 1469 632 1464 q 665 1475 650 1475 q 688 1467 681 1475 q 696 1449 696 1460 q 686 1411 696 1431 q 634 1340 665 1363 q 568 1318 603 1318 q 522 1324 543 1318 q 472 1342 501 1329 q 389 1364 413 1364 z "},"Ȅ":{"ha":835,"x_min":139,"x_max":779,"o":"m 258 1282 q 254 1294 254 1286 q 273 1319 254 1310 q 322 1328 292 1328 q 366 1319 346 1328 q 393 1292 386 1310 l 458 1118 q 460 1106 460 1113 q 451 1086 460 1093 q 426 1079 442 1079 q 401 1085 414 1079 q 381 1101 388 1092 l 258 1282 m 453 1282 q 449 1294 449 1286 q 467 1319 449 1310 q 517 1328 486 1328 q 560 1319 540 1328 q 588 1292 581 1310 l 653 1118 q 654 1106 654 1113 q 645 1086 654 1093 q 621 1079 636 1079 q 595 1085 608 1079 q 575 1101 582 1092 l 453 1282 m 699 743 q 638 764 658 743 q 618 833 618 785 l 618 911 l 289 911 l 289 547 l 581 547 q 609 535 599 547 q 619 508 619 524 q 607 483 619 494 q 581 471 594 471 l 289 471 l 289 74 l 639 74 l 639 151 q 659 221 639 200 q 719 242 679 242 q 765 225 750 242 q 779 172 779 208 l 779 51 q 759 11 779 22 q 696 0 739 0 l 203 0 q 155 17 171 0 q 139 69 139 33 l 139 915 q 155 968 139 951 q 203 985 171 985 l 675 985 q 738 974 718 985 q 758 933 758 963 l 758 813 q 744 760 758 776 q 699 743 729 743 z "},"Ë":{"ha":835,"x_min":139,"x_max":779,"o":"m 699 743 q 638 764 658 743 q 618 833 618 785 l 618 911 l 289 911 l 289 547 l 581 547 q 609 535 599 547 q 619 508 619 524 q 607 483 619 494 q 581 471 594 471 l 289 471 l 289 74 l 639 74 l 639 151 q 659 221 639 200 q 719 242 679 242 q 765 225 750 242 q 779 172 779 208 l 779 51 q 759 11 779 22 q 696 0 739 0 l 203 0 q 155 17 171 0 q 139 69 139 33 l 139 915 q 155 968 139 951 q 203 985 171 985 l 675 985 q 738 974 718 985 q 758 933 758 963 l 758 813 q 744 760 758 776 q 699 743 729 743 m 243 1183 q 272 1250 243 1221 q 336 1279 300 1279 q 404 1251 375 1279 q 433 1183 433 1222 q 404 1117 433 1146 q 336 1089 375 1089 q 272 1118 300 1089 q 243 1183 243 1147 m 531 1182 q 559 1249 531 1221 q 625 1278 588 1278 q 692 1249 663 1278 q 721 1182 721 1221 q 692 1117 721 1146 q 625 1088 663 1088 q 559 1117 588 1088 q 531 1182 531 1146 z "},"Ė":{"ha":835,"x_min":139,"x_max":779,"o":"m 699 743 q 638 764 658 743 q 618 833 618 785 l 618 911 l 289 911 l 289 547 l 581 547 q 609 535 599 547 q 619 508 619 524 q 607 483 619 494 q 581 471 594 471 l 289 471 l 289 74 l 639 74 l 639 151 q 659 221 639 200 q 719 242 679 242 q 765 225 750 242 q 779 172 779 208 l 779 51 q 759 11 779 22 q 696 0 739 0 l 203 0 q 155 17 171 0 q 139 69 139 33 l 139 915 q 155 968 139 951 q 203 985 171 985 l 675 985 q 738 974 718 985 q 758 933 758 963 l 758 813 q 744 760 758 776 q 699 743 729 743 m 396 1161 q 421 1222 396 1197 q 482 1247 446 1247 q 542 1222 517 1247 q 568 1161 568 1197 q 542 1101 568 1126 q 482 1075 517 1075 q 421 1101 446 1075 q 396 1161 396 1126 z "},"Ẹ":{"ha":835,"x_min":139,"x_max":779,"o":"m 699 743 q 638 764 658 743 q 618 833 618 785 l 618 911 l 289 911 l 289 547 l 581 547 q 609 535 599 547 q 619 508 619 524 q 607 483 619 494 q 581 471 594 471 l 289 471 l 289 74 l 639 74 l 639 151 q 659 221 639 200 q 719 242 679 242 q 765 225 750 242 q 779 172 779 208 l 779 51 q 759 11 779 22 q 696 0 739 0 l 203 0 q 155 17 171 0 q 139 69 139 33 l 139 915 q 155 968 139 951 q 203 985 171 985 l 675 985 q 738 974 718 985 q 758 933 758 963 l 758 813 q 744 760 758 776 q 699 743 729 743 m 332 -182 q 357 -122 332 -147 q 418 -96 382 -96 q 478 -122 453 -96 q 504 -182 504 -147 q 478 -243 504 -218 q 418 -268 453 -268 q 357 -243 382 -268 q 332 -182 332 -218 z "},"È":{"ha":835,"x_min":139,"x_max":779,"o":"m 699 743 q 638 764 658 743 q 618 833 618 785 l 618 911 l 289 911 l 289 547 l 581 547 q 609 535 599 547 q 619 508 619 524 q 607 483 619 494 q 581 471 594 471 l 289 471 l 289 74 l 639 74 l 639 151 q 659 221 639 200 q 719 242 679 242 q 765 225 750 242 q 779 172 779 208 l 779 51 q 759 11 779 22 q 696 0 739 0 l 203 0 q 155 17 171 0 q 139 69 139 33 l 139 915 q 155 968 139 951 q 203 985 171 985 l 675 985 q 738 974 718 985 q 758 933 758 963 l 758 813 q 744 760 758 776 q 699 743 729 743 m 324 1290 q 319 1304 319 1297 q 340 1328 319 1319 q 397 1338 361 1338 q 449 1328 425 1338 q 479 1301 472 1319 l 558 1104 q 561 1090 561 1099 q 550 1071 561 1078 q 522 1064 539 1064 q 493 1070 507 1064 q 471 1086 479 1076 l 324 1290 z "},"Ẻ":{"ha":835,"x_min":139,"x_max":779,"o":"m 699 743 q 638 764 658 743 q 618 833 618 785 l 618 911 l 289 911 l 289 547 l 581 547 q 609 535 599 547 q 619 508 619 524 q 607 483 619 494 q 581 471 594 471 l 289 471 l 289 74 l 639 74 l 639 151 q 659 221 639 200 q 719 242 679 242 q 765 225 750 242 q 779 172 779 208 l 779 51 q 759 11 779 22 q 696 0 739 0 l 203 0 q 155 17 171 0 q 139 69 139 33 l 139 915 q 155 968 139 951 q 203 985 171 985 l 675 985 q 738 974 718 985 q 758 933 758 963 l 758 813 q 744 760 758 776 q 699 743 729 743 m 456 1099 q 521 1163 507 1146 q 535 1206 535 1181 q 520 1246 535 1231 q 478 1261 506 1261 q 446 1256 458 1261 q 417 1243 433 1251 q 381 1231 394 1231 q 362 1238 369 1231 q 354 1257 354 1246 q 399 1310 354 1290 q 499 1329 443 1329 q 603 1297 569 1329 q 638 1222 638 1265 q 613 1149 638 1183 q 560 1088 589 1115 q 524 1051 532 1060 q 467 1026 500 1026 q 434 1035 447 1026 q 421 1056 421 1043 q 435 1079 421 1067 l 456 1099 z "},"Ȇ":{"ha":835,"x_min":139,"x_max":779,"o":"m 699 743 q 638 764 658 743 q 618 833 618 785 l 618 911 l 289 911 l 289 547 l 581 547 q 609 535 599 547 q 619 508 619 524 q 607 483 619 494 q 581 471 594 471 l 289 471 l 289 74 l 639 74 l 639 151 q 659 221 639 200 q 719 242 679 242 q 765 225 750 242 q 779 172 779 208 l 779 51 q 759 11 779 22 q 696 0 739 0 l 203 0 q 155 17 171 0 q 139 69 139 33 l 139 915 q 155 968 139 951 q 203 985 171 985 l 675 985 q 738 974 718 985 q 758 933 758 963 l 758 813 q 744 760 758 776 q 699 743 729 743 m 685 1099 q 675 1071 685 1082 q 647 1060 665 1060 q 617 1070 631 1060 q 597 1097 604 1081 q 551 1165 579 1147 q 481 1183 522 1183 q 411 1165 439 1183 q 365 1097 383 1147 q 345 1070 358 1081 q 315 1060 332 1060 q 288 1071 297 1060 q 278 1099 278 1082 q 334 1224 278 1174 q 481 1275 390 1275 q 628 1224 572 1275 q 685 1099 685 1174 z "},"Ē":{"ha":835,"x_min":139,"x_max":779,"o":"m 699 743 q 638 764 658 743 q 618 833 618 785 l 618 911 l 289 911 l 289 547 l 581 547 q 609 535 599 547 q 619 508 619 524 q 607 483 619 494 q 581 471 594 471 l 289 471 l 289 74 l 639 74 l 639 151 q 659 221 639 200 q 719 242 679 242 q 765 225 750 242 q 779 172 779 208 l 779 51 q 759 11 779 22 q 696 0 739 0 l 203 0 q 155 17 171 0 q 139 69 139 33 l 139 915 q 155 968 139 951 q 203 985 171 985 l 675 985 q 738 974 718 985 q 758 933 758 963 l 758 813 q 744 760 758 776 q 699 743 729 743 m 306 1093 q 282 1105 292 1093 q 272 1135 272 1117 q 282 1166 272 1154 q 306 1178 292 1178 l 658 1178 q 681 1166 671 1178 q 692 1135 692 1154 q 683 1104 692 1115 q 658 1093 674 1093 l 306 1093 z "},"Ę":{"ha":835,"x_min":139,"x_max":896,"o":"m 869 -178 q 888 -185 881 -178 q 896 -204 896 -193 q 847 -257 896 -237 q 743 -276 797 -276 q 644 -243 676 -276 q 613 -162 613 -210 q 732 3 613 -72 q 696 0 721 0 l 203 0 q 155 17 171 0 q 139 69 139 33 l 139 915 q 155 968 139 951 q 203 985 171 985 l 675 985 q 738 974 718 985 q 758 933 758 963 l 758 813 q 744 760 758 776 q 699 743 729 743 q 638 764 658 743 q 618 833 618 785 l 618 911 l 289 911 l 289 547 l 581 547 q 609 535 599 547 q 619 508 619 524 q 607 483 619 494 q 581 471 594 471 l 289 471 l 289 74 l 639 74 l 639 151 q 659 221 639 200 q 719 242 679 242 q 765 225 750 242 q 779 172 779 208 l 779 51 q 764 14 779 26 l 825 14 q 718 -149 718 -75 q 734 -192 718 -175 q 776 -208 750 -208 q 809 -203 796 -208 q 836 -190 822 -199 q 869 -178 854 -178 z "},"Ẽ":{"ha":835,"x_min":139,"x_max":779,"o":"m 699 743 q 638 764 658 743 q 618 833 618 785 l 618 911 l 289 911 l 289 547 l 581 547 q 609 535 599 547 q 619 508 619 524 q 607 483 619 494 q 581 471 594 471 l 289 471 l 289 74 l 639 74 l 639 151 q 659 221 639 200 q 719 242 679 242 q 765 225 750 242 q 779 172 779 208 l 779 51 q 759 11 779 22 q 696 0 739 0 l 203 0 q 155 17 171 0 q 139 69 139 33 l 139 915 q 155 968 139 951 q 203 985 171 985 l 675 985 q 738 974 718 985 q 758 933 758 963 l 758 813 q 744 760 758 776 q 699 743 729 743 m 389 1129 q 359 1122 368 1129 q 343 1099 350 1114 q 329 1078 336 1085 q 306 1071 322 1071 q 267 1099 267 1071 q 283 1156 267 1125 q 332 1208 300 1186 q 406 1229 364 1229 q 493 1208 447 1225 q 517 1198 499 1206 q 550 1187 535 1190 q 579 1183 565 1183 q 621 1207 608 1183 q 627 1219 622 1210 q 641 1235 632 1229 q 665 1240 650 1240 q 688 1233 681 1240 q 696 1214 696 1225 q 686 1176 696 1196 q 634 1106 665 1128 q 568 1083 603 1083 q 522 1089 543 1083 q 472 1107 501 1094 q 389 1129 413 1129 z "},"F":{"ha":772,"x_min":139,"x_max":758,"o":"m 289 90 q 268 21 289 42 q 203 0 247 0 q 155 17 171 0 q 139 69 139 33 l 139 915 q 155 968 139 951 q 203 985 171 985 l 675 985 q 738 974 718 985 q 758 933 758 963 l 758 826 q 744 774 758 790 q 699 757 729 757 q 638 778 658 757 q 618 847 618 799 l 618 911 l 289 911 l 289 540 l 581 540 q 619 501 619 540 q 609 474 619 483 q 581 464 599 464 l 289 464 l 289 90 z "},"G":{"ha":944,"x_min":74,"x_max":847,"o":"m 742 735 q 681 756 701 735 q 661 825 661 776 l 661 903 q 549 914 617 914 q 385 865 457 914 q 272 719 314 817 q 231 482 231 622 q 308 163 231 254 q 535 71 385 71 q 701 99 635 71 l 701 399 l 546 399 q 520 410 529 399 q 511 436 511 421 q 522 463 511 451 q 550 475 532 475 l 786 475 q 835 462 822 475 q 847 419 847 449 l 847 132 q 837 77 847 93 q 803 51 826 61 q 662 12 732 24 q 508 0 592 0 q 179 126 285 0 q 74 485 74 251 q 135 764 74 651 q 299 931 196 876 q 532 985 403 985 q 744 954 644 985 q 790 930 778 943 q 801 886 801 917 l 801 804 q 787 751 801 768 q 742 735 772 735 z "},"Ğ":{"ha":944,"x_min":74,"x_max":847,"o":"m 742 735 q 681 756 701 735 q 661 825 661 776 l 661 903 q 549 914 617 914 q 385 865 457 914 q 272 719 314 817 q 231 482 231 622 q 308 163 231 254 q 535 71 385 71 q 701 99 635 71 l 701 399 l 546 399 q 520 410 529 399 q 511 436 511 421 q 522 463 511 451 q 550 475 532 475 l 786 475 q 835 462 822 475 q 847 419 847 449 l 847 132 q 837 77 847 93 q 803 51 826 61 q 662 12 732 24 q 508 0 592 0 q 179 126 285 0 q 74 485 74 251 q 135 764 74 651 q 299 931 196 876 q 532 985 403 985 q 744 954 644 985 q 790 930 778 943 q 801 886 801 917 l 801 804 q 787 751 801 768 q 742 735 772 735 m 731 1236 q 674 1110 731 1161 q 526 1060 618 1060 q 380 1110 436 1060 q 324 1236 324 1161 q 333 1264 324 1253 q 361 1275 343 1275 q 391 1265 378 1275 q 411 1238 404 1254 q 457 1169 429 1188 q 526 1151 485 1151 q 597 1169 568 1151 q 643 1238 625 1188 q 663 1265 650 1254 q 693 1275 676 1275 q 721 1264 711 1275 q 731 1236 731 1253 z "},"Ǧ":{"ha":944,"x_min":74,"x_max":847,"o":"m 742 735 q 681 756 701 735 q 661 825 661 776 l 661 903 q 549 914 617 914 q 385 865 457 914 q 272 719 314 817 q 231 482 231 622 q 308 163 231 254 q 535 71 385 71 q 701 99 635 71 l 701 399 l 546 399 q 520 410 529 399 q 511 436 511 421 q 522 463 511 451 q 550 475 532 475 l 786 475 q 835 462 822 475 q 847 419 847 449 l 847 132 q 837 77 847 93 q 803 51 826 61 q 662 12 732 24 q 508 0 592 0 q 179 126 285 0 q 74 485 74 251 q 135 764 74 651 q 299 931 196 876 q 532 985 403 985 q 744 954 644 985 q 790 930 778 943 q 801 886 801 917 l 801 804 q 787 751 801 768 q 742 735 772 735 m 604 1233 q 701 1276 649 1276 q 742 1267 726 1276 q 758 1246 758 1258 q 753 1233 758 1239 l 600 1082 q 532 1056 574 1056 q 454 1082 481 1056 l 301 1233 q 296 1246 296 1239 q 312 1267 296 1258 q 353 1276 328 1276 q 450 1233 406 1276 l 526 1158 l 604 1233 z "},"Ĝ":{"ha":944,"x_min":74,"x_max":847,"o":"m 742 735 q 681 756 701 735 q 661 825 661 776 l 661 903 q 549 914 617 914 q 385 865 457 914 q 272 719 314 817 q 231 482 231 622 q 308 163 231 254 q 535 71 385 71 q 701 99 635 71 l 701 399 l 546 399 q 520 410 529 399 q 511 436 511 421 q 522 463 511 451 q 550 475 532 475 l 786 475 q 835 462 822 475 q 847 419 847 449 l 847 132 q 837 77 847 93 q 803 51 826 61 q 662 12 732 24 q 508 0 592 0 q 179 126 285 0 q 74 485 74 251 q 135 764 74 651 q 299 931 196 876 q 532 985 403 985 q 744 954 644 985 q 790 930 778 943 q 801 886 801 917 l 801 804 q 787 751 801 768 q 742 735 772 735 m 456 1103 q 365 1061 415 1061 q 328 1070 343 1061 q 313 1090 313 1079 q 318 1103 313 1097 l 460 1250 q 528 1275 483 1275 q 596 1250 574 1275 l 738 1103 q 743 1090 743 1097 q 728 1070 743 1079 q 690 1061 713 1061 q 600 1103 640 1061 l 528 1175 l 456 1103 z "},"Ģ":{"ha":944,"x_min":74,"x_max":847,"o":"m 742 735 q 681 756 701 735 q 661 825 661 776 l 661 903 q 549 914 617 914 q 385 865 457 914 q 272 719 314 817 q 231 482 231 622 q 308 163 231 254 q 535 71 385 71 q 701 99 635 71 l 701 399 l 546 399 q 520 410 529 399 q 511 436 511 421 q 522 463 511 451 q 550 475 532 475 l 786 475 q 835 462 822 475 q 847 419 847 449 l 847 132 q 837 77 847 93 q 803 51 826 61 q 662 12 732 24 q 508 0 592 0 q 179 126 285 0 q 74 485 74 251 q 135 764 74 651 q 299 931 196 876 q 532 985 403 985 q 744 954 644 985 q 790 930 778 943 q 801 886 801 917 l 801 804 q 787 751 801 768 q 742 735 772 735 m 513 -314 q 483 -342 497 -333 q 449 -350 468 -350 q 423 -342 433 -350 q 413 -319 413 -333 l 446 -137 q 525 -78 457 -78 q 600 -137 600 -78 q 580 -213 600 -172 q 513 -314 560 -254 z "},"Ġ":{"ha":944,"x_min":74,"x_max":847,"o":"m 742 735 q 681 756 701 735 q 661 825 661 776 l 661 903 q 549 914 617 914 q 385 865 457 914 q 272 719 314 817 q 231 482 231 622 q 308 163 231 254 q 535 71 385 71 q 701 99 635 71 l 701 399 l 546 399 q 520 410 529 399 q 511 436 511 421 q 522 463 511 451 q 550 475 532 475 l 786 475 q 835 462 822 475 q 847 419 847 449 l 847 132 q 837 77 847 93 q 803 51 826 61 q 662 12 732 24 q 508 0 592 0 q 179 126 285 0 q 74 485 74 251 q 135 764 74 651 q 299 931 196 876 q 532 985 403 985 q 744 954 644 985 q 790 930 778 943 q 801 886 801 917 l 801 804 q 787 751 801 768 q 742 735 772 735 m 442 1161 q 467 1222 442 1197 q 528 1247 492 1247 q 588 1222 563 1247 q 614 1161 614 1197 q 588 1101 614 1126 q 528 1075 563 1075 q 467 1101 492 1075 q 442 1161 442 1126 z "},"H":{"ha":1031,"x_min":139,"x_max":892,"o":"m 828 985 q 876 968 860 985 q 892 915 892 951 l 892 69 q 878 16 892 32 q 831 0 864 0 q 765 27 788 0 q 742 107 742 54 l 742 471 l 289 471 l 289 90 q 268 21 289 42 q 203 0 247 0 q 155 17 171 0 q 139 69 139 33 l 139 915 q 153 969 139 953 q 200 985 167 985 q 266 958 243 985 q 289 878 289 931 l 289 547 l 742 547 l 742 894 q 763 964 742 943 q 828 985 783 985 z "},"Ħ":{"ha":1031,"x_min":139,"x_max":892,"o":"m 828 985 q 876 968 860 985 q 892 915 892 951 l 892 69 q 878 16 892 32 q 831 0 864 0 q 765 27 788 0 q 742 107 742 54 l 742 471 l 289 471 l 289 90 q 268 21 289 42 q 203 0 247 0 q 155 17 171 0 q 139 69 139 33 l 139 915 q 153 969 139 953 q 200 985 167 985 q 266 958 243 985 q 289 878 289 931 l 289 547 l 742 547 l 742 894 q 763 964 742 943 q 828 985 783 985 z "},"Ĥ":{"ha":1031,"x_min":139,"x_max":892,"o":"m 828 985 q 876 968 860 985 q 892 915 892 951 l 892 69 q 878 16 892 32 q 831 0 864 0 q 765 27 788 0 q 742 107 742 54 l 742 471 l 289 471 l 289 90 q 268 21 289 42 q 203 0 247 0 q 155 17 171 0 q 139 69 139 33 l 139 915 q 153 969 139 953 q 200 985 167 985 q 266 958 243 985 q 289 878 289 931 l 289 547 l 742 547 l 742 894 q 763 964 742 943 q 828 985 783 985 m 443 1103 q 353 1061 403 1061 q 315 1070 331 1061 q 300 1090 300 1079 q 306 1103 300 1097 l 447 1250 q 515 1275 471 1275 q 583 1250 561 1275 l 725 1103 q 731 1090 731 1097 q 715 1070 731 1079 q 678 1061 700 1061 q 588 1103 628 1061 l 515 1175 l 443 1103 z "},"I":{"ha":567,"x_min":28,"x_max":539,"o":"m 69 0 q 36 9 44 0 q 28 33 28 18 q 40 63 28 51 q 83 74 51 74 l 208 74 l 208 911 l 83 911 q 40 922 51 911 q 28 951 28 933 q 36 976 28 967 q 69 985 44 985 l 497 985 q 531 976 522 985 q 539 951 539 967 q 527 922 539 933 q 483 911 515 911 l 358 911 l 358 74 l 483 74 q 527 63 515 74 q 539 33 539 51 q 531 9 539 18 q 497 0 522 0 l 69 0 z "},"Í":{"ha":567,"x_min":28,"x_max":539,"o":"m 69 0 q 36 9 44 0 q 28 33 28 18 q 40 63 28 51 q 83 74 51 74 l 208 74 l 208 911 l 83 911 q 40 922 51 911 q 28 951 28 933 q 36 976 28 967 q 69 985 44 985 l 497 985 q 531 976 522 985 q 539 951 539 967 q 527 922 539 933 q 483 911 515 911 l 358 911 l 358 74 l 483 74 q 527 63 515 74 q 539 33 539 51 q 531 9 539 18 q 497 0 522 0 l 69 0 m 307 1086 q 285 1070 300 1076 q 256 1064 271 1064 q 227 1072 238 1064 q 217 1092 217 1079 q 219 1104 217 1096 l 299 1301 q 330 1328 307 1319 q 381 1338 353 1338 q 438 1328 415 1338 q 460 1304 460 1319 q 454 1290 460 1301 l 307 1086 z "},"Ĭ":{"ha":567,"x_min":28,"x_max":539,"o":"m 69 0 q 36 9 44 0 q 28 33 28 18 q 40 63 28 51 q 83 74 51 74 l 208 74 l 208 911 l 83 911 q 40 922 51 911 q 28 951 28 933 q 36 976 28 967 q 69 985 44 985 l 497 985 q 531 976 522 985 q 539 951 539 967 q 527 922 539 933 q 483 911 515 911 l 358 911 l 358 74 l 483 74 q 527 63 515 74 q 539 33 539 51 q 531 9 539 18 q 497 0 522 0 l 69 0 m 486 1236 q 430 1110 486 1161 q 282 1060 374 1060 q 135 1110 192 1060 q 79 1236 79 1161 q 89 1264 79 1253 q 117 1275 99 1275 q 147 1265 133 1275 q 167 1238 160 1254 q 213 1169 185 1188 q 282 1151 240 1151 q 352 1169 324 1151 q 399 1238 381 1188 q 419 1265 406 1254 q 449 1275 432 1275 q 476 1264 467 1275 q 486 1236 486 1253 z "},"Î":{"ha":567,"x_min":28,"x_max":539,"o":"m 69 0 q 36 9 44 0 q 28 33 28 18 q 40 63 28 51 q 83 74 51 74 l 208 74 l 208 911 l 83 911 q 40 922 51 911 q 28 951 28 933 q 36 976 28 967 q 69 985 44 985 l 497 985 q 531 976 522 985 q 539 951 539 967 q 527 922 539 933 q 483 911 515 911 l 358 911 l 358 74 l 483 74 q 527 63 515 74 q 539 33 539 51 q 531 9 539 18 q 497 0 522 0 l 69 0 m 211 1103 q 121 1061 171 1061 q 83 1070 99 1061 q 68 1090 68 1079 q 74 1103 68 1097 l 215 1250 q 283 1275 239 1275 q 351 1250 329 1275 l 493 1103 q 499 1090 499 1097 q 483 1070 499 1079 q 446 1061 468 1061 q 356 1103 396 1061 l 283 1175 l 211 1103 z "},"Ȉ":{"ha":567,"x_min":28,"x_max":539,"o":"m 60 1282 q 56 1294 56 1286 q 74 1319 56 1310 q 124 1328 93 1328 q 167 1319 147 1328 q 194 1292 188 1310 l 260 1118 q 261 1106 261 1113 q 252 1086 261 1093 q 228 1079 243 1079 q 202 1085 215 1079 q 182 1101 189 1092 l 60 1282 m 254 1282 q 250 1294 250 1286 q 269 1319 250 1310 q 318 1328 288 1328 q 362 1319 342 1328 q 389 1292 382 1310 l 454 1118 q 456 1106 456 1113 q 447 1086 456 1093 q 422 1079 438 1079 q 397 1085 410 1079 q 376 1101 383 1092 l 254 1282 m 69 0 q 36 9 44 0 q 28 33 28 18 q 40 63 28 51 q 83 74 51 74 l 208 74 l 208 911 l 83 911 q 40 922 51 911 q 28 951 28 933 q 36 976 28 967 q 69 985 44 985 l 497 985 q 531 976 522 985 q 539 951 539 967 q 527 922 539 933 q 483 911 515 911 l 358 911 l 358 74 l 483 74 q 527 63 515 74 q 539 33 539 51 q 531 9 539 18 q 497 0 522 0 l 69 0 z "},"Ï":{"ha":567,"x_min":28,"x_max":539,"o":"m 69 0 q 36 9 44 0 q 28 33 28 18 q 40 63 28 51 q 83 74 51 74 l 208 74 l 208 911 l 83 911 q 40 922 51 911 q 28 951 28 933 q 36 976 28 967 q 69 985 44 985 l 497 985 q 531 976 522 985 q 539 951 539 967 q 527 922 539 933 q 483 911 515 911 l 358 911 l 358 74 l 483 74 q 527 63 515 74 q 539 33 539 51 q 531 9 539 18 q 497 0 522 0 l 69 0 m 44 1183 q 73 1250 44 1221 q 138 1279 101 1279 q 206 1251 176 1279 q 235 1183 235 1222 q 206 1117 235 1146 q 138 1089 176 1089 q 73 1118 101 1089 q 44 1183 44 1147 m 332 1182 q 360 1249 332 1221 q 426 1278 389 1278 q 493 1249 464 1278 q 522 1182 522 1221 q 493 1117 522 1146 q 426 1088 464 1088 q 360 1117 389 1088 q 332 1182 332 1146 z "},"İ":{"ha":567,"x_min":28,"x_max":539,"o":"m 69 0 q 36 9 44 0 q 28 33 28 18 q 40 63 28 51 q 83 74 51 74 l 208 74 l 208 911 l 83 911 q 40 922 51 911 q 28 951 28 933 q 36 976 28 967 q 69 985 44 985 l 497 985 q 531 976 522 985 q 539 951 539 967 q 527 922 539 933 q 483 911 515 911 l 358 911 l 358 74 l 483 74 q 527 63 515 74 q 539 33 539 51 q 531 9 539 18 q 497 0 522 0 l 69 0 m 197 1161 q 222 1222 197 1197 q 283 1247 247 1247 q 344 1222 318 1247 q 369 1161 369 1197 q 344 1101 369 1126 q 283 1075 318 1075 q 222 1101 247 1075 q 197 1161 197 1126 z "},"Ị":{"ha":567,"x_min":28,"x_max":539,"o":"m 69 0 q 36 9 44 0 q 28 33 28 18 q 40 63 28 51 q 83 74 51 74 l 208 74 l 208 911 l 83 911 q 40 922 51 911 q 28 951 28 933 q 36 976 28 967 q 69 985 44 985 l 497 985 q 531 976 522 985 q 539 951 539 967 q 527 922 539 933 q 483 911 515 911 l 358 911 l 358 74 l 483 74 q 527 63 515 74 q 539 33 539 51 q 531 9 539 18 q 497 0 522 0 l 69 0 m 197 -182 q 222 -122 197 -147 q 283 -96 247 -96 q 344 -122 318 -96 q 369 -182 369 -147 q 344 -243 369 -218 q 283 -268 318 -268 q 222 -243 247 -268 q 197 -182 197 -218 z "},"Ì":{"ha":567,"x_min":28,"x_max":539,"o":"m 69 0 q 36 9 44 0 q 28 33 28 18 q 40 63 28 51 q 83 74 51 74 l 208 74 l 208 911 l 83 911 q 40 922 51 911 q 28 951 28 933 q 36 976 28 967 q 69 985 44 985 l 497 985 q 531 976 522 985 q 539 951 539 967 q 527 922 539 933 q 483 911 515 911 l 358 911 l 358 74 l 483 74 q 527 63 515 74 q 539 33 539 51 q 531 9 539 18 q 497 0 522 0 l 69 0 m 125 1290 q 121 1304 121 1297 q 142 1328 121 1319 q 199 1338 163 1338 q 250 1328 226 1338 q 281 1301 274 1319 l 360 1104 q 363 1090 363 1099 q 351 1071 363 1078 q 324 1064 340 1064 q 294 1070 308 1064 q 272 1086 281 1076 l 125 1290 z "},"Ỉ":{"ha":567,"x_min":28,"x_max":539,"o":"m 69 0 q 36 9 44 0 q 28 33 28 18 q 40 63 28 51 q 83 74 51 74 l 208 74 l 208 911 l 83 911 q 40 922 51 911 q 28 951 28 933 q 36 976 28 967 q 69 985 44 985 l 497 985 q 531 976 522 985 q 539 951 539 967 q 527 922 539 933 q 483 911 515 911 l 358 911 l 358 74 l 483 74 q 527 63 515 74 q 539 33 539 51 q 531 9 539 18 q 497 0 522 0 l 69 0 m 257 1099 q 322 1163 308 1146 q 336 1206 336 1181 q 322 1246 336 1231 q 279 1261 307 1261 q 247 1256 260 1261 q 218 1243 235 1251 q 182 1231 196 1231 q 163 1238 171 1231 q 156 1257 156 1246 q 200 1310 156 1290 q 300 1329 244 1329 q 405 1297 371 1329 q 439 1222 439 1265 q 415 1149 439 1183 q 362 1088 390 1115 q 325 1051 333 1060 q 268 1026 301 1026 q 235 1035 249 1026 q 222 1056 222 1043 q 236 1079 222 1067 l 257 1099 z "},"Ȋ":{"ha":567,"x_min":28,"x_max":539,"o":"m 69 0 q 36 9 44 0 q 28 33 28 18 q 40 63 28 51 q 83 74 51 74 l 208 74 l 208 911 l 83 911 q 40 922 51 911 q 28 951 28 933 q 36 976 28 967 q 69 985 44 985 l 497 985 q 531 976 522 985 q 539 951 539 967 q 527 922 539 933 q 483 911 515 911 l 358 911 l 358 74 l 483 74 q 527 63 515 74 q 539 33 539 51 q 531 9 539 18 q 497 0 522 0 l 69 0 m 486 1099 q 476 1071 486 1082 q 449 1060 467 1060 q 419 1070 432 1060 q 399 1097 406 1081 q 352 1165 381 1147 q 282 1183 324 1183 q 213 1165 240 1183 q 167 1097 185 1147 q 147 1070 160 1081 q 117 1060 133 1060 q 89 1071 99 1060 q 79 1099 79 1082 q 135 1224 79 1174 q 282 1275 192 1275 q 430 1224 374 1275 q 486 1099 486 1174 z "},"Ī":{"ha":567,"x_min":28,"x_max":539,"o":"m 69 0 q 36 9 44 0 q 28 33 28 18 q 40 63 28 51 q 83 74 51 74 l 208 74 l 208 911 l 83 911 q 40 922 51 911 q 28 951 28 933 q 36 976 28 967 q 69 985 44 985 l 497 985 q 531 976 522 985 q 539 951 539 967 q 527 922 539 933 q 483 911 515 911 l 358 911 l 358 74 l 483 74 q 527 63 515 74 q 539 33 539 51 q 531 9 539 18 q 497 0 522 0 l 69 0 m 107 1093 q 83 1105 93 1093 q 74 1135 74 1117 q 83 1166 74 1154 q 107 1178 93 1178 l 460 1178 q 483 1166 472 1178 q 493 1135 493 1154 q 484 1104 493 1115 q 460 1093 475 1093 l 107 1093 z "},"Į":{"ha":567,"x_min":28,"x_max":654,"o":"m 628 -178 q 647 -185 639 -178 q 654 -204 654 -193 q 605 -256 654 -236 q 501 -276 556 -276 q 403 -243 435 -276 q 371 -162 371 -210 q 486 0 371 -75 l 69 0 q 36 9 44 0 q 28 33 28 18 q 40 63 28 51 q 83 74 51 74 l 208 74 l 208 911 l 83 911 q 40 922 51 911 q 28 951 28 933 q 36 976 28 967 q 69 985 44 985 l 497 985 q 531 976 522 985 q 539 951 539 967 q 527 922 539 933 q 483 911 515 911 l 358 911 l 358 74 l 483 74 q 527 63 515 74 q 539 33 539 51 q 535 14 539 22 l 583 14 q 476 -149 476 -75 q 492 -192 476 -175 q 535 -208 508 -208 q 567 -203 554 -208 q 594 -190 581 -199 q 628 -178 613 -178 z "},"Ĩ":{"ha":567,"x_min":28,"x_max":539,"o":"m 69 0 q 36 9 44 0 q 28 33 28 18 q 40 63 28 51 q 83 74 51 74 l 208 74 l 208 911 l 83 911 q 40 922 51 911 q 28 951 28 933 q 36 976 28 967 q 69 985 44 985 l 497 985 q 531 976 522 985 q 539 951 539 967 q 527 922 539 933 q 483 911 515 911 l 358 911 l 358 74 l 483 74 q 527 63 515 74 q 539 33 539 51 q 531 9 539 18 q 497 0 522 0 l 69 0 m 190 1129 q 160 1122 169 1129 q 144 1099 151 1114 q 131 1078 138 1085 q 107 1071 124 1071 q 68 1099 68 1071 q 85 1156 68 1125 q 133 1208 101 1186 q 207 1229 165 1229 q 294 1208 249 1225 q 318 1198 300 1206 q 351 1187 336 1190 q 381 1183 367 1183 q 422 1207 410 1183 q 428 1219 424 1210 q 442 1235 433 1229 q 467 1240 451 1240 q 490 1233 482 1240 q 497 1214 497 1225 q 488 1176 497 1196 q 435 1106 467 1128 q 369 1083 404 1083 q 324 1089 344 1083 q 274 1107 303 1094 q 190 1129 214 1129 z "},"J":{"ha":672,"x_min":49,"x_max":567,"o":"m 503 985 q 551 968 535 985 q 567 915 567 951 l 567 363 q 500 112 567 224 q 244 0 433 0 q 152 9 206 0 q 76 29 99 18 q 49 72 49 43 l 49 165 q 63 218 49 201 q 108 235 78 235 q 169 214 149 235 q 189 144 189 193 l 189 76 q 247 72 214 72 q 378 136 340 72 q 417 289 417 200 l 417 894 q 438 964 417 943 q 503 985 458 985 z "},"Ĵ":{"ha":672,"x_min":49,"x_max":718,"o":"m 503 985 q 551 968 535 985 q 567 915 567 951 l 567 363 q 500 112 567 224 q 244 0 433 0 q 152 9 206 0 q 76 29 99 18 q 49 72 49 43 l 49 165 q 63 218 49 201 q 108 235 78 235 q 169 214 149 235 q 189 144 189 193 l 189 76 q 247 72 214 72 q 378 136 340 72 q 417 289 417 200 l 417 894 q 438 964 417 943 q 503 985 458 985 m 431 1103 q 340 1061 390 1061 q 303 1070 318 1061 q 288 1090 288 1079 q 293 1103 288 1097 l 435 1250 q 503 1275 458 1275 q 571 1250 549 1275 l 713 1103 q 718 1090 718 1097 q 703 1070 718 1079 q 665 1061 688 1061 q 575 1103 615 1061 l 503 1175 l 431 1103 z "},"K":{"ha":849,"x_min":139,"x_max":842,"o":"m 719 957 q 775 985 746 985 q 810 971 796 985 q 825 940 825 957 q 818 924 825 931 l 421 542 l 822 92 q 842 51 842 69 q 826 15 842 31 q 785 0 810 0 q 724 14 753 0 q 660 68 694 28 l 314 464 l 289 438 l 289 90 q 268 21 289 42 q 203 0 247 0 q 155 17 171 0 q 139 69 139 33 l 139 915 q 153 969 139 953 q 200 985 167 985 q 266 958 243 985 q 289 878 289 931 l 289 531 l 719 957 z "},"Ķ":{"ha":849,"x_min":139,"x_max":842,"o":"m 719 957 q 775 985 746 985 q 810 971 796 985 q 825 940 825 957 q 818 924 825 931 l 421 542 l 822 92 q 842 51 842 69 q 826 15 842 31 q 785 0 810 0 q 724 14 753 0 q 660 68 694 28 l 314 464 l 289 438 l 289 90 q 268 21 289 42 q 203 0 247 0 q 155 17 171 0 q 139 69 139 33 l 139 915 q 153 969 139 953 q 200 985 167 985 q 266 958 243 985 q 289 878 289 931 l 289 531 l 719 957 m 410 -314 q 380 -342 394 -333 q 346 -350 365 -350 q 320 -342 331 -350 q 310 -319 310 -333 l 343 -137 q 422 -78 354 -78 q 497 -137 497 -78 q 477 -213 497 -172 q 410 -314 457 -254 z "},"L":{"ha":793,"x_min":139,"x_max":744,"o":"m 685 260 q 730 243 715 260 q 744 190 744 226 l 744 44 q 724 10 744 21 q 661 0 703 0 l 203 0 q 155 17 171 0 q 139 69 139 33 l 139 915 q 153 969 139 953 q 200 985 167 985 q 266 958 243 985 q 289 878 289 931 l 289 74 l 604 74 l 604 169 q 624 239 604 218 q 685 260 644 260 z "},"Ǉ":{"ha":1465,"x_min":139,"x_max":1360,"o":"m 685 260 q 730 243 715 260 q 744 190 744 226 l 744 44 q 724 10 744 21 q 661 0 703 0 l 203 0 q 155 17 171 0 q 139 69 139 33 l 139 915 q 153 969 139 953 q 200 985 167 985 q 266 958 243 985 q 289 878 289 931 l 289 74 l 604 74 l 604 169 q 624 239 604 218 q 685 260 644 260 m 1296 985 q 1344 968 1328 985 q 1360 915 1360 951 l 1360 363 q 1293 112 1360 224 q 1038 0 1226 0 q 945 9 999 0 q 869 29 892 18 q 842 72 842 43 l 842 165 q 856 218 842 201 q 901 235 871 235 q 962 214 942 235 q 982 144 982 193 l 982 76 q 1040 72 1007 72 q 1172 136 1133 72 q 1210 289 1210 200 l 1210 894 q 1231 964 1210 943 q 1296 985 1251 985 z "},"Ĺ":{"ha":793,"x_min":139,"x_max":744,"o":"m 685 260 q 730 243 715 260 q 744 190 744 226 l 744 44 q 724 10 744 21 q 661 0 703 0 l 203 0 q 155 17 171 0 q 139 69 139 33 l 139 915 q 153 969 139 953 q 200 985 167 985 q 266 958 243 985 q 289 878 289 931 l 289 74 l 604 74 l 604 169 q 624 239 604 218 q 685 260 644 260 m 421 1086 q 399 1070 414 1076 q 369 1064 385 1064 q 341 1072 351 1064 q 331 1092 331 1079 q 333 1104 331 1096 l 413 1301 q 444 1328 421 1319 q 494 1338 467 1338 q 551 1328 529 1338 q 574 1304 574 1319 q 568 1290 574 1301 l 421 1086 z "},"Ľ":{"ha":793,"x_min":139,"x_max":744,"o":"m 685 260 q 730 243 715 260 q 744 190 744 226 l 744 44 q 724 10 744 21 q 661 0 703 0 l 203 0 q 155 17 171 0 q 139 69 139 33 l 139 915 q 153 969 139 953 q 200 985 167 985 q 266 958 243 985 q 289 878 289 931 l 289 74 l 604 74 l 604 169 q 624 239 604 218 q 685 260 644 260 m 515 796 q 464 767 492 767 q 443 774 451 767 q 435 792 435 781 l 461 938 q 525 985 471 985 q 585 938 585 985 q 569 876 585 910 q 515 796 553 843 z "},"Ļ":{"ha":793,"x_min":139,"x_max":744,"o":"m 685 260 q 730 243 715 260 q 744 190 744 226 l 744 44 q 724 10 744 21 q 661 0 703 0 l 203 0 q 155 17 171 0 q 139 69 139 33 l 139 915 q 153 969 139 953 q 200 985 167 985 q 266 958 243 985 q 289 878 289 931 l 289 74 l 604 74 l 604 169 q 624 239 604 218 q 685 260 644 260 m 382 -314 q 352 -342 367 -333 q 318 -350 338 -350 q 292 -342 303 -350 q 282 -319 282 -333 l 315 -137 q 394 -78 326 -78 q 469 -137 469 -78 q 449 -213 469 -172 q 382 -314 429 -254 z "},"Ŀ":{"ha":833,"x_min":139,"x_max":744,"o":"m 685 260 q 730 243 715 260 q 744 190 744 226 l 744 44 q 724 10 744 21 q 661 0 703 0 l 203 0 q 155 17 171 0 q 139 69 139 33 l 139 915 q 153 969 139 953 q 200 985 167 985 q 266 958 243 985 q 289 878 289 931 l 289 74 l 604 74 l 604 169 q 624 239 604 218 q 685 260 644 260 m 389 506 q 419 585 389 554 q 494 615 450 615 q 569 584 539 615 q 600 506 600 553 q 569 429 600 460 q 494 399 539 399 q 419 429 450 399 q 389 506 389 460 z "},"ǈ":{"ha":1163,"x_min":139,"x_max":1067,"o":"m 685 260 q 730 243 715 260 q 744 190 744 226 l 744 44 q 724 10 744 21 q 661 0 703 0 l 203 0 q 155 17 171 0 q 139 69 139 33 l 139 915 q 153 969 139 953 q 200 985 167 985 q 266 958 243 985 q 289 878 289 931 l 289 74 l 604 74 l 604 169 q 624 239 604 218 q 685 260 644 260 m 911 632 q 923 681 911 665 q 967 697 935 697 q 1034 674 1013 697 q 1056 603 1056 651 l 1056 168 q 1006 -97 1056 28 q 871 -282 957 -221 q 807 -306 838 -306 q 780 -296 790 -306 q 769 -271 769 -286 q 777 -244 769 -254 q 801 -225 785 -233 q 890 -128 868 -192 q 911 61 911 -64 l 911 632 m 894 874 q 919 935 894 910 q 981 960 944 960 q 1041 935 1015 960 q 1067 874 1067 910 q 1041 813 1067 839 q 981 788 1015 788 q 919 813 944 788 q 894 874 894 839 z "},"Ł":{"ha":826,"x_min":-3,"x_max":778,"o":"m 322 74 l 638 74 l 638 169 q 658 239 638 218 q 718 260 678 260 q 763 243 749 260 q 778 190 778 226 l 778 44 q 757 10 778 21 q 694 0 736 0 l 236 0 q 188 17 204 0 q 172 69 172 33 l 172 357 l 53 282 q 44 279 47 279 q 15 297 31 279 q -3 329 -1 314 q 4 342 -3 338 l 172 449 l 172 915 q 186 969 172 953 q 233 985 200 985 q 299 958 276 985 q 322 878 322 931 l 322 544 l 543 685 q 550 686 546 686 q 579 668 564 686 q 596 633 594 650 q 589 618 596 622 l 322 450 l 322 74 z "},"M":{"ha":1218,"x_min":139,"x_max":1079,"o":"m 1022 0 q 939 107 939 0 l 939 779 l 929 779 l 643 51 q 585 0 622 0 q 525 51 546 0 l 258 779 l 249 779 l 249 78 q 231 19 249 38 q 192 0 214 0 q 154 15 169 0 q 139 63 139 31 l 139 911 q 165 965 139 946 q 228 985 192 985 q 288 969 258 985 q 332 918 318 953 l 599 181 l 606 181 l 896 911 q 941 967 910 950 q 1008 985 972 985 q 1062 967 1044 985 q 1079 911 1079 949 l 1079 69 q 1067 15 1079 31 q 1022 0 1054 0 z "},"N":{"ha":1032,"x_min":139,"x_max":893,"o":"m 192 0 q 154 15 169 0 q 139 63 139 31 l 139 910 q 163 965 139 944 q 222 985 188 985 q 277 972 253 985 q 322 926 301 960 l 776 206 l 783 206 l 783 907 q 801 966 783 947 q 840 985 818 985 q 878 969 863 985 q 893 922 893 954 l 893 81 q 870 21 893 42 q 813 0 847 0 q 711 56 747 0 l 257 779 l 249 779 l 249 78 q 231 19 249 38 q 192 0 214 0 z "},"Ǌ":{"ha":1704,"x_min":139,"x_max":1599,"o":"m 192 0 q 154 15 169 0 q 139 63 139 31 l 139 910 q 163 965 139 944 q 222 985 188 985 q 277 972 253 985 q 322 926 301 960 l 776 206 l 783 206 l 783 907 q 801 966 783 947 q 840 985 818 985 q 878 969 863 985 q 893 922 893 954 l 893 81 q 870 21 893 42 q 813 0 847 0 q 711 56 747 0 l 257 779 l 249 779 l 249 78 q 231 19 249 38 q 192 0 214 0 m 1535 985 q 1583 968 1567 985 q 1599 915 1599 951 l 1599 363 q 1532 112 1599 224 q 1276 0 1465 0 q 1184 9 1238 0 q 1108 29 1131 18 q 1081 72 1081 43 l 1081 165 q 1095 218 1081 201 q 1140 235 1110 235 q 1201 214 1181 235 q 1221 144 1221 193 l 1221 76 q 1279 72 1246 72 q 1410 136 1372 72 q 1449 289 1449 200 l 1449 894 q 1469 964 1449 943 q 1535 985 1490 985 z "},"Ń":{"ha":1032,"x_min":139,"x_max":893,"o":"m 192 0 q 154 15 169 0 q 139 63 139 31 l 139 910 q 163 965 139 944 q 222 985 188 985 q 277 972 253 985 q 322 926 301 960 l 776 206 l 783 206 l 783 907 q 801 966 783 947 q 840 985 818 985 q 878 969 863 985 q 893 922 893 954 l 893 81 q 870 21 893 42 q 813 0 847 0 q 711 56 747 0 l 257 779 l 249 779 l 249 78 q 231 19 249 38 q 192 0 214 0 m 540 1086 q 519 1070 533 1076 q 489 1064 504 1064 q 460 1072 471 1064 q 450 1092 450 1079 q 453 1104 450 1096 l 532 1301 q 563 1328 540 1319 q 614 1338 586 1338 q 671 1328 649 1338 q 693 1304 693 1319 q 688 1290 693 1301 l 540 1086 z "},"Ň":{"ha":1032,"x_min":139,"x_max":893,"o":"m 192 0 q 154 15 169 0 q 139 63 139 31 l 139 910 q 163 965 139 944 q 222 985 188 985 q 277 972 253 985 q 322 926 301 960 l 776 206 l 783 206 l 783 907 q 801 966 783 947 q 840 985 818 985 q 878 969 863 985 q 893 922 893 954 l 893 81 q 870 21 893 42 q 813 0 847 0 q 711 56 747 0 l 257 779 l 249 779 l 249 78 q 231 19 249 38 q 192 0 214 0 m 593 1233 q 690 1276 638 1276 q 731 1267 715 1276 q 747 1246 747 1258 q 742 1233 747 1239 l 589 1082 q 521 1056 563 1056 q 443 1082 469 1056 l 290 1233 q 285 1246 285 1239 q 301 1267 285 1258 q 342 1276 317 1276 q 439 1233 394 1276 l 515 1158 l 593 1233 z "},"Ņ":{"ha":1032,"x_min":139,"x_max":893,"o":"m 192 0 q 154 15 169 0 q 139 63 139 31 l 139 910 q 163 965 139 944 q 222 985 188 985 q 277 972 253 985 q 322 926 301 960 l 776 206 l 783 206 l 783 907 q 801 966 783 947 q 840 985 818 985 q 878 969 863 985 q 893 922 893 954 l 893 81 q 870 21 893 42 q 813 0 847 0 q 711 56 747 0 l 257 779 l 249 779 l 249 78 q 231 19 249 38 q 192 0 214 0 m 501 -314 q 472 -342 486 -333 q 438 -350 457 -350 q 412 -342 422 -350 q 401 -319 401 -333 l 435 -137 q 514 -78 446 -78 q 589 -137 589 -78 q 569 -213 589 -172 q 501 -314 549 -254 z "},"Ŋ":{"ha":1032,"x_min":139,"x_max":893,"o":"m 840 985 q 878 969 863 985 q 893 922 893 954 l 893 -43 q 851 -178 893 -118 q 733 -272 810 -237 q 551 -306 656 -306 q 335 -167 335 -306 q 355 -106 335 -132 q 401 -65 375 -79 q 446 -50 428 -50 q 465 -57 458 -50 q 472 -72 472 -64 q 462 -92 472 -79 q 445 -120 451 -106 q 439 -158 439 -135 q 476 -217 439 -196 q 569 -237 514 -237 q 671 -219 621 -237 q 752 -167 721 -201 q 783 -83 783 -132 l 783 -42 l 257 779 l 249 779 l 249 78 q 231 19 249 38 q 192 0 214 0 q 154 15 169 0 q 139 63 139 31 l 139 910 q 163 965 139 944 q 222 985 188 985 q 277 972 253 985 q 322 926 301 960 l 776 206 l 783 206 l 783 907 q 801 966 783 947 q 840 985 818 985 z "},"ǋ":{"ha":1401,"x_min":139,"x_max":1306,"o":"m 192 0 q 154 15 169 0 q 139 63 139 31 l 139 910 q 163 965 139 944 q 222 985 188 985 q 277 972 253 985 q 322 926 301 960 l 776 206 l 783 206 l 783 907 q 801 966 783 947 q 840 985 818 985 q 878 969 863 985 q 893 922 893 954 l 893 81 q 870 21 893 42 q 813 0 847 0 q 711 56 747 0 l 257 779 l 249 779 l 249 78 q 231 19 249 38 q 192 0 214 0 m 1150 632 q 1162 681 1150 665 q 1206 697 1174 697 q 1273 674 1251 697 q 1294 603 1294 651 l 1294 168 q 1245 -97 1294 28 q 1110 -282 1196 -221 q 1046 -306 1076 -306 q 1019 -296 1029 -306 q 1008 -271 1008 -286 q 1016 -244 1008 -254 q 1040 -225 1024 -233 q 1128 -128 1107 -192 q 1150 61 1150 -64 l 1150 632 m 1133 874 q 1158 935 1133 910 q 1219 960 1183 960 q 1280 935 1254 960 q 1306 874 1306 910 q 1280 813 1306 839 q 1219 788 1254 788 q 1158 813 1183 788 q 1133 874 1133 839 z "},"Ñ":{"ha":1032,"x_min":139,"x_max":893,"o":"m 192 0 q 154 15 169 0 q 139 63 139 31 l 139 910 q 163 965 139 944 q 222 985 188 985 q 277 972 253 985 q 322 926 301 960 l 776 206 l 783 206 l 783 907 q 801 966 783 947 q 840 985 818 985 q 878 969 863 985 q 893 922 893 954 l 893 81 q 870 21 893 42 q 813 0 847 0 q 711 56 747 0 l 257 779 l 249 779 l 249 78 q 231 19 249 38 q 192 0 214 0 m 424 1129 q 394 1122 403 1129 q 378 1099 385 1114 q 364 1078 371 1085 q 340 1071 357 1071 q 301 1099 301 1071 q 318 1156 301 1125 q 367 1208 335 1186 q 440 1229 399 1229 q 528 1208 482 1225 q 551 1198 533 1206 q 585 1187 569 1190 q 614 1183 600 1183 q 656 1207 643 1183 q 662 1219 657 1210 q 676 1235 667 1229 q 700 1240 685 1240 q 723 1233 715 1240 q 731 1214 731 1225 q 721 1176 731 1196 q 669 1106 700 1128 q 603 1083 638 1083 q 557 1089 578 1083 q 507 1107 536 1094 q 424 1129 447 1129 z "},"O":{"ha":994,"x_min":74,"x_max":921,"o":"m 921 492 q 890 278 921 388 q 764 84 858 168 q 496 0 669 0 q 228 84 322 0 q 104 278 135 168 q 74 492 74 388 q 104 706 74 596 q 228 900 135 815 q 496 985 322 985 q 764 900 669 985 q 890 705 858 815 q 921 492 921 594 m 764 492 q 710 783 764 653 q 496 914 656 914 q 285 783 339 914 q 231 492 231 653 q 285 201 231 332 q 496 71 339 71 q 710 201 656 71 q 764 492 764 331 z "},"Ó":{"ha":994,"x_min":74,"x_max":921,"o":"m 921 492 q 890 278 921 388 q 764 84 858 168 q 496 0 669 0 q 228 84 322 0 q 104 278 135 168 q 74 492 74 388 q 104 706 74 596 q 228 900 135 815 q 496 985 322 985 q 764 900 669 985 q 890 705 858 815 q 921 492 921 594 m 764 492 q 710 783 764 653 q 496 914 656 914 q 285 783 339 914 q 231 492 231 653 q 285 201 231 332 q 496 71 339 71 q 710 201 656 71 q 764 492 764 331 m 521 1086 q 499 1070 514 1076 q 469 1064 485 1064 q 441 1072 451 1064 q 431 1092 431 1079 q 433 1104 431 1096 l 513 1301 q 544 1328 521 1319 q 594 1338 567 1338 q 651 1328 629 1338 q 674 1304 674 1319 q 668 1290 674 1301 l 521 1086 z "},"Ŏ":{"ha":994,"x_min":74,"x_max":921,"o":"m 921 492 q 890 278 921 388 q 764 84 858 168 q 496 0 669 0 q 228 84 322 0 q 104 278 135 168 q 74 492 74 388 q 104 706 74 596 q 228 900 135 815 q 496 985 322 985 q 764 900 669 985 q 890 705 858 815 q 921 492 921 594 m 764 492 q 710 783 764 653 q 496 914 656 914 q 285 783 339 914 q 231 492 231 653 q 285 201 231 332 q 496 71 339 71 q 710 201 656 71 q 764 492 764 331 m 700 1236 q 644 1110 700 1161 q 496 1060 588 1060 q 349 1110 406 1060 q 293 1236 293 1161 q 303 1264 293 1253 q 331 1275 313 1275 q 360 1265 347 1275 q 381 1238 374 1254 q 426 1169 399 1188 q 496 1151 454 1151 q 566 1169 538 1151 q 613 1238 594 1188 q 633 1265 619 1254 q 663 1275 646 1275 q 690 1264 681 1275 q 700 1236 700 1253 z "},"Ô":{"ha":994,"x_min":74,"x_max":921,"o":"m 921 492 q 890 278 921 388 q 764 84 858 168 q 496 0 669 0 q 228 84 322 0 q 104 278 135 168 q 74 492 74 388 q 104 706 74 596 q 228 900 135 815 q 496 985 322 985 q 764 900 669 985 q 890 705 858 815 q 921 492 921 594 m 764 492 q 710 783 764 653 q 496 914 656 914 q 285 783 339 914 q 231 492 231 653 q 285 201 231 332 q 496 71 339 71 q 710 201 656 71 q 764 492 764 331 m 425 1103 q 335 1061 385 1061 q 297 1070 313 1061 q 282 1090 282 1079 q 288 1103 282 1097 l 429 1250 q 497 1275 453 1275 q 565 1250 543 1275 l 707 1103 q 713 1090 713 1097 q 697 1070 713 1079 q 660 1061 682 1061 q 569 1103 610 1061 l 497 1175 l 425 1103 z "},"Ố":{"ha":994,"x_min":74,"x_max":921,"o":"m 703 1233 q 656 1214 686 1214 q 632 1220 642 1214 q 622 1238 622 1226 q 625 1249 622 1244 l 690 1406 q 717 1429 697 1421 q 761 1438 736 1438 q 810 1429 792 1438 q 828 1407 828 1421 q 825 1396 828 1399 l 703 1233 m 425 1103 q 335 1061 385 1061 q 297 1070 313 1061 q 282 1090 282 1079 q 288 1103 282 1097 l 429 1250 q 497 1275 451 1275 q 565 1250 543 1275 l 707 1103 q 713 1090 713 1097 q 697 1070 713 1079 q 660 1061 682 1061 q 569 1103 610 1061 l 497 1175 l 425 1103 m 921 492 q 890 278 921 388 q 764 84 858 168 q 496 0 669 0 q 228 84 322 0 q 104 278 135 168 q 74 492 74 388 q 104 706 74 596 q 228 900 135 815 q 496 985 322 985 q 764 900 669 985 q 890 705 858 815 q 921 492 921 594 m 764 492 q 710 783 764 653 q 496 914 656 914 q 285 783 339 914 q 231 492 231 653 q 285 201 231 332 q 496 71 339 71 q 710 201 656 71 q 764 492 764 331 z "},"Ộ":{"ha":994,"x_min":74,"x_max":921,"o":"m 921 492 q 890 278 921 388 q 764 84 858 168 q 496 0 669 0 q 228 84 322 0 q 104 278 135 168 q 74 492 74 388 q 104 706 74 596 q 228 900 135 815 q 496 985 322 985 q 764 900 669 985 q 890 705 858 815 q 921 492 921 594 m 764 492 q 710 783 764 653 q 496 914 656 914 q 285 783 339 914 q 231 492 231 653 q 285 201 231 332 q 496 71 339 71 q 710 201 656 71 q 764 492 764 331 m 425 1103 q 335 1061 385 1061 q 297 1070 313 1061 q 282 1090 282 1079 q 288 1103 282 1097 l 429 1250 q 497 1275 453 1275 q 565 1250 543 1275 l 707 1103 q 713 1090 713 1097 q 697 1070 713 1079 q 660 1061 682 1061 q 569 1103 610 1061 l 497 1175 l 425 1103 m 411 -182 q 436 -122 411 -147 q 497 -96 461 -96 q 558 -122 532 -96 q 583 -182 583 -147 q 558 -243 583 -218 q 497 -268 532 -268 q 436 -243 461 -268 q 411 -182 411 -218 z "},"Ồ":{"ha":994,"x_min":74,"x_max":921,"o":"m 521 1396 q 518 1407 518 1399 q 536 1429 518 1421 q 585 1438 554 1438 q 629 1429 610 1438 q 656 1406 649 1421 l 721 1249 q 724 1238 724 1244 q 714 1220 724 1226 q 690 1214 704 1214 q 643 1233 660 1214 l 521 1396 m 425 1103 q 335 1061 385 1061 q 297 1070 313 1061 q 282 1090 282 1079 q 288 1103 282 1097 l 429 1250 q 497 1275 451 1275 q 565 1250 543 1275 l 707 1103 q 713 1090 713 1097 q 697 1070 713 1079 q 660 1061 682 1061 q 569 1103 610 1061 l 497 1175 l 425 1103 m 921 492 q 890 278 921 388 q 764 84 858 168 q 496 0 669 0 q 228 84 322 0 q 104 278 135 168 q 74 492 74 388 q 104 706 74 596 q 228 900 135 815 q 496 985 322 985 q 764 900 669 985 q 890 705 858 815 q 921 492 921 594 m 764 492 q 710 783 764 653 q 496 914 656 914 q 285 783 339 914 q 231 492 231 653 q 285 201 231 332 q 496 71 339 71 q 710 201 656 71 q 764 492 764 331 z "},"Ổ":{"ha":994,"x_min":74,"x_max":921,"o":"m 921 492 q 890 278 921 388 q 764 84 858 168 q 496 0 669 0 q 228 84 322 0 q 104 278 135 168 q 74 492 74 388 q 104 706 74 596 q 228 900 135 815 q 496 985 322 985 q 764 900 669 985 q 890 705 858 815 q 921 492 921 594 m 764 492 q 710 783 764 653 q 496 914 656 914 q 285 783 339 914 q 231 492 231 653 q 285 201 231 332 q 496 71 339 71 q 710 201 656 71 q 764 492 764 331 m 425 1103 q 335 1061 385 1061 q 297 1070 313 1061 q 282 1090 282 1079 q 288 1103 282 1097 l 429 1250 q 497 1275 453 1275 q 565 1250 543 1275 l 707 1103 q 713 1090 713 1097 q 697 1070 713 1079 q 660 1061 682 1061 q 569 1103 610 1061 l 497 1175 l 425 1103 m 674 1268 q 739 1333 725 1315 q 753 1375 753 1350 q 738 1415 753 1400 q 696 1431 724 1431 q 664 1426 676 1431 q 635 1413 651 1421 q 599 1400 613 1400 q 580 1408 588 1400 q 572 1426 572 1415 q 617 1479 572 1460 q 717 1499 661 1499 q 822 1467 788 1499 q 856 1392 856 1435 q 831 1319 856 1353 q 778 1257 807 1285 q 742 1221 750 1229 q 685 1196 718 1196 q 652 1204 665 1196 q 639 1225 639 1213 q 653 1249 639 1236 l 674 1268 z "},"Ỗ":{"ha":994,"x_min":74,"x_max":921,"o":"m 921 492 q 890 278 921 388 q 764 84 858 168 q 496 0 669 0 q 228 84 322 0 q 104 278 135 168 q 74 492 74 388 q 104 706 74 596 q 228 900 135 815 q 496 985 322 985 q 764 900 669 985 q 890 705 858 815 q 921 492 921 594 m 764 492 q 710 783 764 653 q 496 914 656 914 q 285 783 339 914 q 231 492 231 653 q 285 201 231 332 q 496 71 339 71 q 710 201 656 71 q 764 492 764 331 m 425 1103 q 335 1061 385 1061 q 297 1070 313 1061 q 282 1090 282 1079 q 288 1103 282 1097 l 429 1250 q 497 1275 453 1275 q 565 1250 543 1275 l 707 1103 q 713 1090 713 1097 q 697 1070 713 1079 q 660 1061 682 1061 q 569 1103 610 1061 l 497 1175 l 425 1103 m 404 1364 q 374 1356 383 1364 q 358 1333 365 1349 q 344 1313 351 1319 q 321 1306 338 1306 q 282 1333 282 1306 q 299 1390 282 1360 q 347 1442 315 1421 q 421 1464 379 1464 q 508 1443 463 1460 q 532 1433 514 1440 q 565 1422 550 1425 q 594 1418 581 1418 q 636 1442 624 1418 q 642 1454 638 1444 q 656 1469 647 1464 q 681 1475 665 1475 q 703 1467 696 1475 q 711 1449 711 1460 q 701 1411 711 1431 q 649 1340 681 1363 q 583 1318 618 1318 q 538 1324 558 1318 q 488 1342 517 1329 q 404 1364 428 1364 z "},"Ȍ":{"ha":994,"x_min":74,"x_max":921,"o":"m 274 1282 q 269 1294 269 1286 q 288 1319 269 1310 q 338 1328 307 1328 q 381 1319 361 1328 q 408 1292 401 1310 l 474 1118 q 475 1106 475 1113 q 466 1086 475 1093 q 442 1079 457 1079 q 416 1085 429 1079 q 396 1101 403 1092 l 274 1282 m 468 1282 q 464 1294 464 1286 q 483 1319 464 1310 q 532 1328 501 1328 q 576 1319 556 1328 q 603 1292 596 1310 l 668 1118 q 669 1106 669 1113 q 660 1086 669 1093 q 636 1079 651 1079 q 610 1085 624 1079 q 590 1101 597 1092 l 468 1282 m 921 492 q 890 278 921 388 q 764 84 858 168 q 496 0 669 0 q 228 84 322 0 q 104 278 135 168 q 74 492 74 388 q 104 706 74 596 q 228 900 135 815 q 496 985 322 985 q 764 900 669 985 q 890 705 858 815 q 921 492 921 594 m 764 492 q 710 783 764 653 q 496 914 656 914 q 285 783 339 914 q 231 492 231 653 q 285 201 231 332 q 496 71 339 71 q 710 201 656 71 q 764 492 764 331 z "},"Ö":{"ha":994,"x_min":74,"x_max":921,"o":"m 921 492 q 890 278 921 388 q 764 84 858 168 q 496 0 669 0 q 228 84 322 0 q 104 278 135 168 q 74 492 74 388 q 104 706 74 596 q 228 900 135 815 q 496 985 322 985 q 764 900 669 985 q 890 705 858 815 q 921 492 921 594 m 764 492 q 710 783 764 653 q 496 914 656 914 q 285 783 339 914 q 231 492 231 653 q 285 201 231 332 q 496 71 339 71 q 710 201 656 71 q 764 492 764 331 m 258 1183 q 287 1250 258 1221 q 351 1279 315 1279 q 419 1251 390 1279 q 449 1183 449 1222 q 419 1117 449 1146 q 351 1089 390 1089 q 287 1118 315 1089 q 258 1183 258 1147 m 546 1182 q 574 1249 546 1221 q 640 1278 603 1278 q 707 1249 678 1278 q 736 1182 736 1221 q 707 1117 736 1146 q 640 1088 678 1088 q 574 1117 603 1088 q 546 1182 546 1146 z "},"Ȫ":{"ha":994,"x_min":74,"x_max":921,"o":"m 921 492 q 890 278 921 388 q 764 84 858 168 q 496 0 669 0 q 228 84 322 0 q 104 278 135 168 q 74 492 74 388 q 104 706 74 596 q 228 900 135 815 q 496 985 322 985 q 764 900 669 985 q 890 705 858 815 q 921 492 921 594 m 764 492 q 710 783 764 653 q 496 914 656 914 q 285 783 339 914 q 231 492 231 653 q 285 201 231 332 q 496 71 339 71 q 710 201 656 71 q 764 492 764 331 m 258 1183 q 287 1250 258 1221 q 351 1279 315 1279 q 419 1251 390 1279 q 449 1183 449 1222 q 419 1117 449 1146 q 351 1089 390 1089 q 287 1118 315 1089 q 258 1183 258 1147 m 546 1182 q 574 1249 546 1221 q 640 1278 603 1278 q 707 1249 678 1278 q 736 1182 736 1221 q 707 1117 736 1146 q 640 1088 678 1088 q 574 1117 603 1088 q 546 1182 546 1146 m 321 1346 q 297 1358 307 1346 q 288 1388 288 1369 q 297 1419 288 1407 q 321 1431 307 1431 l 674 1431 q 697 1419 686 1431 q 707 1388 707 1407 q 698 1357 707 1368 q 674 1346 689 1346 l 321 1346 z "},"Ȱ":{"ha":994,"x_min":74,"x_max":921,"o":"m 921 492 q 890 278 921 388 q 764 84 858 168 q 496 0 669 0 q 228 84 322 0 q 104 278 135 168 q 74 492 74 388 q 104 706 74 596 q 228 900 135 815 q 496 985 322 985 q 764 900 669 985 q 890 705 858 815 q 921 492 921 594 m 764 492 q 710 783 764 653 q 496 914 656 914 q 285 783 339 914 q 231 492 231 653 q 285 201 231 332 q 496 71 339 71 q 710 201 656 71 q 764 492 764 331 m 411 1161 q 436 1222 411 1197 q 497 1247 461 1247 q 558 1222 532 1247 q 583 1161 583 1197 q 558 1101 583 1126 q 497 1075 532 1075 q 436 1101 461 1075 q 411 1161 411 1126 m 321 1300 q 297 1312 307 1300 q 288 1342 288 1324 q 297 1373 288 1361 q 321 1385 307 1385 l 674 1385 q 697 1373 686 1385 q 707 1342 707 1361 q 698 1311 707 1322 q 674 1300 689 1300 l 321 1300 z "},"Ọ":{"ha":994,"x_min":74,"x_max":921,"o":"m 921 492 q 890 278 921 388 q 764 84 858 168 q 496 0 669 0 q 228 84 322 0 q 104 278 135 168 q 74 492 74 388 q 104 706 74 596 q 228 900 135 815 q 496 985 322 985 q 764 900 669 985 q 890 705 858 815 q 921 492 921 594 m 764 492 q 710 783 764 653 q 496 914 656 914 q 285 783 339 914 q 231 492 231 653 q 285 201 231 332 q 496 71 339 71 q 710 201 656 71 q 764 492 764 331 m 411 -182 q 436 -122 411 -147 q 497 -96 461 -96 q 558 -122 532 -96 q 583 -182 583 -147 q 558 -243 583 -218 q 497 -268 532 -268 q 436 -243 461 -268 q 411 -182 411 -218 z "},"Ò":{"ha":994,"x_min":74,"x_max":921,"o":"m 921 492 q 890 278 921 388 q 764 84 858 168 q 496 0 669 0 q 228 84 322 0 q 104 278 135 168 q 74 492 74 388 q 104 706 74 596 q 228 900 135 815 q 496 985 322 985 q 764 900 669 985 q 890 705 858 815 q 921 492 921 594 m 764 492 q 710 783 764 653 q 496 914 656 914 q 285 783 339 914 q 231 492 231 653 q 285 201 231 332 q 496 71 339 71 q 710 201 656 71 q 764 492 764 331 m 339 1290 q 335 1304 335 1297 q 356 1328 335 1319 q 413 1338 376 1338 q 464 1328 440 1338 q 494 1301 488 1319 l 574 1104 q 576 1090 576 1099 q 565 1071 576 1078 q 538 1064 554 1064 q 508 1070 522 1064 q 486 1086 494 1076 l 339 1290 z "},"Ỏ":{"ha":994,"x_min":74,"x_max":921,"o":"m 921 492 q 890 278 921 388 q 764 84 858 168 q 496 0 669 0 q 228 84 322 0 q 104 278 135 168 q 74 492 74 388 q 104 706 74 596 q 228 900 135 815 q 496 985 322 985 q 764 900 669 985 q 890 705 858 815 q 921 492 921 594 m 764 492 q 710 783 764 653 q 496 914 656 914 q 285 783 339 914 q 231 492 231 653 q 285 201 231 332 q 496 71 339 71 q 710 201 656 71 q 764 492 764 331 m 471 1099 q 536 1163 522 1146 q 550 1206 550 1181 q 535 1246 550 1231 q 493 1261 521 1261 q 461 1256 474 1261 q 432 1243 449 1251 q 396 1231 410 1231 q 377 1238 385 1231 q 369 1257 369 1246 q 414 1310 369 1290 q 514 1329 458 1329 q 619 1297 585 1329 q 653 1222 653 1265 q 628 1149 653 1183 q 576 1088 604 1115 q 539 1051 547 1060 q 482 1026 515 1026 q 449 1035 463 1026 q 436 1056 436 1043 q 450 1079 436 1067 l 471 1099 z "},"Ơ":{"ha":994,"x_min":74,"x_max":938,"o":"m 774 890 q 889 705 857 815 q 921 492 921 594 q 890 278 921 388 q 764 84 858 168 q 496 0 669 0 q 228 84 322 0 q 104 278 135 168 q 74 492 74 388 q 104 706 74 596 q 228 900 135 815 q 496 985 322 985 q 701 940 615 985 l 751 940 q 786 966 776 940 q 796 1051 796 992 q 812 1099 796 1083 q 868 1114 828 1114 q 922 1097 907 1114 q 938 1042 938 1081 q 892 944 938 983 q 774 890 847 904 m 496 71 q 710 201 656 71 q 764 492 764 331 q 710 783 764 653 q 496 914 656 914 q 285 783 339 914 q 231 492 231 653 q 285 201 231 332 q 496 71 339 71 z "},"Ớ":{"ha":994,"x_min":74,"x_max":938,"o":"m 774 890 q 889 705 857 815 q 921 492 921 594 q 890 278 921 388 q 764 84 858 168 q 496 0 669 0 q 228 84 322 0 q 104 278 135 168 q 74 492 74 388 q 104 706 74 596 q 228 900 135 815 q 496 985 322 985 q 701 940 615 985 l 751 940 q 786 966 776 940 q 796 1051 796 992 q 812 1099 796 1083 q 868 1114 828 1114 q 922 1097 907 1114 q 938 1042 938 1081 q 892 944 938 983 q 774 890 847 904 m 496 71 q 710 201 656 71 q 764 492 764 331 q 710 783 764 653 q 496 914 656 914 q 285 783 339 914 q 231 492 231 653 q 285 201 231 332 q 496 71 339 71 m 521 1086 q 499 1070 514 1076 q 469 1064 485 1064 q 441 1072 451 1064 q 431 1092 431 1079 q 433 1104 431 1096 l 513 1301 q 544 1328 521 1319 q 594 1338 567 1338 q 651 1328 629 1338 q 674 1304 674 1319 q 668 1290 674 1301 l 521 1086 z "},"Ợ":{"ha":994,"x_min":74,"x_max":938,"o":"m 774 890 q 889 705 857 815 q 921 492 921 594 q 890 278 921 388 q 764 84 858 168 q 496 0 669 0 q 228 84 322 0 q 104 278 135 168 q 74 492 74 388 q 104 706 74 596 q 228 900 135 815 q 496 985 322 985 q 701 940 615 985 l 751 940 q 786 966 776 940 q 796 1051 796 992 q 812 1099 796 1083 q 868 1114 828 1114 q 922 1097 907 1114 q 938 1042 938 1081 q 892 944 938 983 q 774 890 847 904 m 496 71 q 710 201 656 71 q 764 492 764 331 q 710 783 764 653 q 496 914 656 914 q 285 783 339 914 q 231 492 231 653 q 285 201 231 332 q 496 71 339 71 m 411 -182 q 436 -122 411 -147 q 497 -96 461 -96 q 558 -122 532 -96 q 583 -182 583 -147 q 558 -243 583 -218 q 497 -268 532 -268 q 436 -243 461 -268 q 411 -182 411 -218 z "},"Ờ":{"ha":994,"x_min":74,"x_max":938,"o":"m 774 890 q 889 705 857 815 q 921 492 921 594 q 890 278 921 388 q 764 84 858 168 q 496 0 669 0 q 228 84 322 0 q 104 278 135 168 q 74 492 74 388 q 104 706 74 596 q 228 900 135 815 q 496 985 322 985 q 701 940 615 985 l 751 940 q 786 966 776 940 q 796 1051 796 992 q 812 1099 796 1083 q 868 1114 828 1114 q 922 1097 907 1114 q 938 1042 938 1081 q 892 944 938 983 q 774 890 847 904 m 496 71 q 710 201 656 71 q 764 492 764 331 q 710 783 764 653 q 496 914 656 914 q 285 783 339 914 q 231 492 231 653 q 285 201 231 332 q 496 71 339 71 m 339 1290 q 335 1304 335 1297 q 356 1328 335 1319 q 413 1338 376 1338 q 464 1328 440 1338 q 494 1301 488 1319 l 574 1104 q 576 1090 576 1099 q 565 1071 576 1078 q 538 1064 554 1064 q 508 1070 522 1064 q 486 1086 494 1076 l 339 1290 z "},"Ở":{"ha":994,"x_min":74,"x_max":938,"o":"m 774 890 q 889 705 857 815 q 921 492 921 594 q 890 278 921 388 q 764 84 858 168 q 496 0 669 0 q 228 84 322 0 q 104 278 135 168 q 74 492 74 388 q 104 706 74 596 q 228 900 135 815 q 496 985 322 985 q 701 940 615 985 l 751 940 q 786 966 776 940 q 796 1051 796 992 q 812 1099 796 1083 q 868 1114 828 1114 q 922 1097 907 1114 q 938 1042 938 1081 q 892 944 938 983 q 774 890 847 904 m 496 71 q 710 201 656 71 q 764 492 764 331 q 710 783 764 653 q 496 914 656 914 q 285 783 339 914 q 231 492 231 653 q 285 201 231 332 q 496 71 339 71 m 471 1099 q 536 1163 522 1146 q 550 1206 550 1181 q 535 1246 550 1231 q 493 1261 521 1261 q 461 1256 474 1261 q 432 1243 449 1251 q 396 1231 410 1231 q 377 1238 385 1231 q 369 1257 369 1246 q 414 1310 369 1290 q 514 1329 458 1329 q 619 1297 585 1329 q 653 1222 653 1265 q 628 1149 653 1183 q 576 1088 604 1115 q 539 1051 547 1060 q 482 1026 515 1026 q 449 1035 463 1026 q 436 1056 436 1043 q 450 1079 436 1067 l 471 1099 z "},"Ỡ":{"ha":994,"x_min":74,"x_max":938,"o":"m 774 890 q 889 705 857 815 q 921 492 921 594 q 890 278 921 388 q 764 84 858 168 q 496 0 669 0 q 228 84 322 0 q 104 278 135 168 q 74 492 74 388 q 104 706 74 596 q 228 900 135 815 q 496 985 322 985 q 701 940 615 985 l 751 940 q 786 966 776 940 q 796 1051 796 992 q 812 1099 796 1083 q 868 1114 828 1114 q 922 1097 907 1114 q 938 1042 938 1081 q 892 944 938 983 q 774 890 847 904 m 496 71 q 710 201 656 71 q 764 492 764 331 q 710 783 764 653 q 496 914 656 914 q 285 783 339 914 q 231 492 231 653 q 285 201 231 332 q 496 71 339 71 m 404 1129 q 374 1122 383 1129 q 358 1099 365 1114 q 344 1078 351 1085 q 321 1071 338 1071 q 282 1099 282 1071 q 299 1156 282 1125 q 347 1208 315 1186 q 421 1229 379 1229 q 508 1208 463 1225 q 532 1198 514 1206 q 565 1187 550 1190 q 594 1183 581 1183 q 636 1207 624 1183 q 642 1219 638 1210 q 656 1235 647 1229 q 681 1240 665 1240 q 703 1233 696 1240 q 711 1214 711 1225 q 701 1176 711 1196 q 649 1106 681 1128 q 583 1083 618 1083 q 538 1089 558 1083 q 488 1107 517 1094 q 404 1129 428 1129 z "},"Ő":{"ha":994,"x_min":74,"x_max":921,"o":"m 921 492 q 890 278 921 388 q 764 84 858 168 q 496 0 669 0 q 228 84 322 0 q 104 278 135 168 q 74 492 74 388 q 104 706 74 596 q 228 900 135 815 q 496 985 322 985 q 764 900 669 985 q 890 705 858 815 q 921 492 921 594 m 764 492 q 710 783 764 653 q 496 914 656 914 q 285 783 339 914 q 231 492 231 653 q 285 201 231 332 q 496 71 339 71 q 710 201 656 71 q 764 492 764 331 m 414 1046 q 394 1033 407 1038 q 368 1028 381 1028 q 343 1033 353 1028 q 333 1049 333 1039 q 336 1060 333 1051 l 392 1200 q 472 1250 413 1250 q 515 1237 499 1250 q 532 1201 532 1224 q 528 1192 532 1196 l 414 1046 m 639 1046 q 619 1033 632 1038 q 593 1028 606 1028 q 568 1033 578 1028 q 558 1049 558 1039 q 561 1060 558 1051 l 631 1200 q 664 1239 644 1228 q 711 1250 683 1250 q 754 1237 738 1250 q 771 1201 771 1224 q 767 1192 771 1196 l 639 1046 z "},"Ȏ":{"ha":994,"x_min":74,"x_max":921,"o":"m 921 492 q 890 278 921 388 q 764 84 858 168 q 496 0 669 0 q 228 84 322 0 q 104 278 135 168 q 74 492 74 388 q 104 706 74 596 q 228 900 135 815 q 496 985 322 985 q 764 900 669 985 q 890 705 858 815 q 921 492 921 594 m 764 492 q 710 783 764 653 q 496 914 656 914 q 285 783 339 914 q 231 492 231 653 q 285 201 231 332 q 496 71 339 71 q 710 201 656 71 q 764 492 764 331 m 700 1099 q 690 1071 700 1082 q 663 1060 681 1060 q 633 1070 646 1060 q 613 1097 619 1081 q 566 1165 594 1147 q 496 1183 538 1183 q 426 1165 454 1183 q 381 1097 399 1147 q 360 1070 374 1081 q 331 1060 347 1060 q 303 1071 313 1060 q 293 1099 293 1082 q 349 1224 293 1174 q 496 1275 406 1275 q 644 1224 588 1275 q 700 1099 700 1174 z "},"Ō":{"ha":994,"x_min":74,"x_max":921,"o":"m 921 492 q 890 278 921 388 q 764 84 858 168 q 496 0 669 0 q 228 84 322 0 q 104 278 135 168 q 74 492 74 388 q 104 706 74 596 q 228 900 135 815 q 496 985 322 985 q 764 900 669 985 q 890 705 858 815 q 921 492 921 594 m 764 492 q 710 783 764 653 q 496 914 656 914 q 285 783 339 914 q 231 492 231 653 q 285 201 231 332 q 496 71 339 71 q 710 201 656 71 q 764 492 764 331 m 321 1093 q 297 1105 307 1093 q 288 1135 288 1117 q 297 1166 288 1154 q 321 1178 307 1178 l 674 1178 q 697 1166 686 1178 q 707 1135 707 1154 q 698 1104 707 1115 q 674 1093 689 1093 l 321 1093 z "},"Ǫ":{"ha":994,"x_min":74,"x_max":921,"o":"m 689 39 q 609 -49 633 -10 q 585 -122 585 -87 q 601 -165 585 -149 q 643 -182 617 -182 q 676 -177 663 -182 q 703 -164 689 -172 q 736 -151 721 -151 q 755 -159 747 -151 q 763 -178 763 -167 q 713 -231 763 -211 q 610 -250 664 -250 q 511 -217 543 -250 q 479 -136 479 -183 q 563 4 479 -62 q 496 0 532 0 q 228 84 322 0 q 104 278 135 168 q 74 492 74 388 q 104 706 74 596 q 228 900 135 815 q 496 985 322 985 q 764 900 669 985 q 890 705 858 815 q 921 492 921 594 q 872 231 921 361 q 689 39 822 100 m 231 492 q 285 201 231 332 q 496 71 339 71 q 710 201 656 71 q 764 492 764 331 q 710 783 764 653 q 496 914 656 914 q 285 783 339 914 q 231 492 231 653 z "},"Ø":{"ha":994,"x_min":74,"x_max":921,"o":"m 775 889 q 890 704 858 814 q 921 492 921 594 q 890 278 921 388 q 764 84 858 168 q 496 0 669 0 q 290 44 376 0 l 210 -97 q 192 -106 204 -106 q 153 -91 172 -106 q 133 -62 133 -76 q 135 -56 133 -58 l 218 93 q 104 276 135 167 q 74 492 74 386 q 104 706 74 596 q 228 900 135 815 q 496 985 322 985 q 700 940 614 985 l 781 1082 q 797 1090 785 1090 q 838 1074 817 1090 q 858 1042 858 1057 q 857 1033 858 1036 l 775 889 m 231 492 q 283 206 231 311 l 653 857 q 496 914 589 914 q 285 783 339 914 q 231 492 231 653 m 764 492 q 711 778 764 672 l 339 128 q 496 71 400 71 q 710 201 656 71 q 764 492 764 331 z "},"Ǿ":{"ha":994,"x_min":74,"x_max":921,"o":"m 775 889 q 890 704 858 814 q 921 492 921 594 q 890 278 921 388 q 764 84 858 168 q 496 0 669 0 q 290 44 376 0 l 210 -97 q 192 -106 204 -106 q 153 -91 172 -106 q 133 -62 133 -76 q 135 -56 133 -58 l 218 93 q 104 276 135 167 q 74 492 74 386 q 104 706 74 596 q 228 900 135 815 q 496 985 322 985 q 700 940 614 985 l 781 1082 q 797 1090 785 1090 q 838 1074 817 1090 q 858 1042 858 1057 q 857 1033 858 1036 l 775 889 m 231 492 q 283 206 231 311 l 653 857 q 496 914 589 914 q 285 783 339 914 q 231 492 231 653 m 764 492 q 711 778 764 672 l 339 128 q 496 71 400 71 q 710 201 656 71 q 764 492 764 331 m 521 1086 q 499 1070 514 1076 q 469 1064 485 1064 q 441 1072 451 1064 q 431 1092 431 1079 q 433 1104 431 1096 l 513 1301 q 544 1328 521 1319 q 594 1338 567 1338 q 651 1328 629 1338 q 674 1304 674 1319 q 668 1290 674 1301 l 521 1086 z "},"Õ":{"ha":994,"x_min":74,"x_max":921,"o":"m 921 492 q 890 278 921 388 q 764 84 858 168 q 496 0 669 0 q 228 84 322 0 q 104 278 135 168 q 74 492 74 388 q 104 706 74 596 q 228 900 135 815 q 496 985 322 985 q 764 900 669 985 q 890 705 858 815 q 921 492 921 594 m 764 492 q 710 783 764 653 q 496 914 656 914 q 285 783 339 914 q 231 492 231 653 q 285 201 231 332 q 496 71 339 71 q 710 201 656 71 q 764 492 764 331 m 404 1129 q 374 1122 383 1129 q 358 1099 365 1114 q 344 1078 351 1085 q 321 1071 338 1071 q 282 1099 282 1071 q 299 1156 282 1125 q 347 1208 315 1186 q 421 1229 379 1229 q 508 1208 463 1225 q 532 1198 514 1206 q 565 1187 550 1190 q 594 1183 581 1183 q 636 1207 624 1183 q 642 1219 638 1210 q 656 1235 647 1229 q 681 1240 665 1240 q 703 1233 696 1240 q 711 1214 711 1225 q 701 1176 711 1196 q 649 1106 681 1128 q 583 1083 618 1083 q 538 1089 558 1083 q 488 1107 517 1094 q 404 1129 428 1129 z "},"Ȭ":{"ha":994,"x_min":74,"x_max":921,"o":"m 921 492 q 890 278 921 388 q 764 84 858 168 q 496 0 669 0 q 228 84 322 0 q 104 278 135 168 q 74 492 74 388 q 104 706 74 596 q 228 900 135 815 q 496 985 322 985 q 764 900 669 985 q 890 705 858 815 q 921 492 921 594 m 764 492 q 710 783 764 653 q 496 914 656 914 q 285 783 339 914 q 231 492 231 653 q 285 201 231 332 q 496 71 339 71 q 710 201 656 71 q 764 492 764 331 m 404 1129 q 374 1122 383 1129 q 358 1099 365 1114 q 344 1078 351 1085 q 321 1071 338 1071 q 282 1099 282 1071 q 299 1156 282 1125 q 347 1208 315 1186 q 421 1229 379 1229 q 508 1208 463 1225 q 532 1198 514 1206 q 565 1187 550 1190 q 594 1183 581 1183 q 636 1207 624 1183 q 642 1219 638 1210 q 656 1235 647 1229 q 681 1240 665 1240 q 703 1233 696 1240 q 711 1214 711 1225 q 701 1176 711 1196 q 649 1106 681 1128 q 583 1083 618 1083 q 538 1089 558 1083 q 488 1107 517 1094 q 404 1129 428 1129 m 311 1293 q 288 1305 297 1293 q 278 1335 278 1317 q 288 1366 278 1354 q 311 1378 297 1378 l 664 1378 q 687 1366 676 1378 q 697 1335 697 1354 q 688 1304 697 1315 q 664 1293 679 1293 l 311 1293 z "},"Œ":{"ha":1440,"x_min":74,"x_max":1385,"o":"m 1325 242 q 1370 225 1356 242 q 1385 172 1385 208 l 1385 51 q 1365 11 1385 22 q 1301 0 1344 0 l 808 0 q 760 17 776 0 q 744 69 744 33 l 744 106 q 496 0 653 0 q 228 84 322 0 q 104 278 135 168 q 74 492 74 388 q 104 706 74 596 q 228 900 135 815 q 496 985 322 985 q 744 878 654 985 l 744 915 q 760 968 744 951 q 808 985 776 985 l 1281 985 q 1344 974 1324 985 q 1364 933 1364 963 l 1364 813 q 1349 760 1364 776 q 1304 743 1335 743 q 1244 764 1264 743 q 1224 833 1224 785 l 1224 911 l 894 911 l 894 547 l 1186 547 q 1215 535 1204 547 q 1225 508 1225 524 q 1213 483 1225 494 q 1186 471 1200 471 l 894 471 l 894 74 l 1244 74 l 1244 151 q 1265 221 1244 200 q 1325 242 1285 242 m 496 71 q 694 201 644 71 q 744 492 744 331 q 694 783 744 653 q 496 914 644 914 q 285 783 339 914 q 231 492 231 653 q 285 201 231 332 q 496 71 339 71 z "},"P":{"ha":857,"x_min":139,"x_max":808,"o":"m 289 90 q 268 21 289 42 q 203 0 247 0 q 155 17 171 0 q 139 69 139 33 l 139 915 q 153 969 139 953 q 200 985 167 985 l 432 985 q 598 968 518 985 q 743 888 678 951 q 808 697 808 825 q 767 537 808 608 q 641 424 725 465 q 433 382 557 382 l 289 382 l 289 90 m 289 456 l 432 456 q 594 515 536 456 q 651 697 651 574 q 601 856 651 800 q 432 911 550 911 l 289 911 l 289 456 z "},"Þ":{"ha":857,"x_min":139,"x_max":808,"o":"m 289 90 q 268 21 289 42 q 203 0 247 0 q 155 17 171 0 q 139 69 139 33 l 139 915 q 153 969 139 953 q 200 985 167 985 l 432 985 q 598 968 518 985 q 743 888 678 951 q 808 697 808 825 q 767 537 808 608 q 641 424 725 465 q 433 382 557 382 l 289 382 l 289 90 m 289 456 l 432 456 q 594 515 536 456 q 651 697 651 574 q 601 856 651 800 q 432 911 550 911 l 289 911 l 289 456 z "},"Q":{"ha":994,"x_min":74,"x_max":921,"o":"m 921 492 q 884 267 921 381 q 749 79 847 154 l 838 -28 q 846 -49 846 -39 q 828 -75 846 -64 q 786 -86 811 -86 q 703 -44 738 -86 l 646 22 q 496 0 576 0 q 228 84 322 0 q 104 278 135 168 q 74 492 74 388 q 104 706 74 596 q 228 900 135 815 q 496 985 322 985 q 764 900 669 985 q 890 705 858 815 q 921 492 921 594 m 764 492 q 710 783 764 653 q 496 914 656 914 q 285 783 339 914 q 231 492 231 653 q 285 201 231 332 q 496 71 339 71 q 590 88 551 71 l 489 210 q 472 247 472 231 q 488 278 472 265 q 525 290 503 290 q 610 244 574 290 l 681 160 q 747 312 729 226 q 764 492 764 397 z "},"R":{"ha":893,"x_min":139,"x_max":814,"o":"m 139 915 q 153 969 139 953 q 200 985 167 985 l 463 985 q 718 926 622 985 q 814 717 814 867 q 778 592 814 649 q 687 499 743 535 q 571 453 631 463 l 801 82 q 814 46 814 64 q 796 13 814 25 q 743 0 778 0 q 690 13 715 0 q 649 53 665 25 l 415 443 l 289 443 l 289 90 q 268 21 289 42 q 203 0 247 0 q 155 17 171 0 q 139 69 139 33 l 139 915 m 289 517 l 438 517 q 590 567 524 517 q 657 725 657 618 q 596 875 657 839 q 449 911 535 911 l 289 911 l 289 517 z "},"Ŕ":{"ha":893,"x_min":139,"x_max":814,"o":"m 139 915 q 153 969 139 953 q 200 985 167 985 l 463 985 q 718 926 622 985 q 814 717 814 867 q 778 592 814 649 q 687 499 743 535 q 571 453 631 463 l 801 82 q 814 46 814 64 q 796 13 814 25 q 743 0 778 0 q 690 13 715 0 q 649 53 665 25 l 415 443 l 289 443 l 289 90 q 268 21 289 42 q 203 0 247 0 q 155 17 171 0 q 139 69 139 33 l 139 915 m 289 517 l 438 517 q 590 567 524 517 q 657 725 657 618 q 596 875 657 839 q 449 911 535 911 l 289 911 l 289 517 m 471 1086 q 449 1070 464 1076 q 419 1064 435 1064 q 391 1072 401 1064 q 381 1092 381 1079 q 383 1104 381 1096 l 463 1301 q 494 1328 471 1319 q 544 1338 517 1338 q 601 1328 579 1338 q 624 1304 624 1319 q 618 1290 624 1301 l 471 1086 z "},"Ř":{"ha":893,"x_min":139,"x_max":814,"o":"m 139 915 q 153 969 139 953 q 200 985 167 985 l 463 985 q 718 926 622 985 q 814 717 814 867 q 778 592 814 649 q 687 499 743 535 q 571 453 631 463 l 801 82 q 814 46 814 64 q 796 13 814 25 q 743 0 778 0 q 690 13 715 0 q 649 53 665 25 l 415 443 l 289 443 l 289 90 q 268 21 289 42 q 203 0 247 0 q 155 17 171 0 q 139 69 139 33 l 139 915 m 289 517 l 438 517 q 590 567 524 517 q 657 725 657 618 q 596 875 657 839 q 449 911 535 911 l 289 911 l 289 517 m 524 1233 q 621 1276 568 1276 q 662 1267 646 1276 q 678 1246 678 1258 q 672 1233 678 1239 l 519 1082 q 451 1056 493 1056 q 374 1082 400 1056 l 221 1233 q 215 1246 215 1239 q 231 1267 215 1258 q 272 1276 247 1276 q 369 1233 325 1276 l 446 1158 l 524 1233 z "},"Ŗ":{"ha":893,"x_min":139,"x_max":814,"o":"m 139 915 q 153 969 139 953 q 200 985 167 985 l 463 985 q 718 926 622 985 q 814 717 814 867 q 778 592 814 649 q 687 499 743 535 q 571 453 631 463 l 801 82 q 814 46 814 64 q 796 13 814 25 q 743 0 778 0 q 690 13 715 0 q 649 53 665 25 l 415 443 l 289 443 l 289 90 q 268 21 289 42 q 203 0 247 0 q 155 17 171 0 q 139 69 139 33 l 139 915 m 289 517 l 438 517 q 590 567 524 517 q 657 725 657 618 q 596 875 657 839 q 449 911 535 911 l 289 911 l 289 517 m 432 -314 q 402 -342 417 -333 q 368 -350 388 -350 q 342 -342 353 -350 q 332 -319 332 -333 l 365 -137 q 444 -78 376 -78 q 519 -137 519 -78 q 499 -213 519 -172 q 432 -314 479 -254 z "},"Ȑ":{"ha":893,"x_min":139,"x_max":814,"o":"m 224 1282 q 219 1294 219 1286 q 238 1319 219 1310 q 288 1328 257 1328 q 331 1319 311 1328 q 358 1292 351 1310 l 424 1118 q 425 1106 425 1113 q 416 1086 425 1093 q 392 1079 407 1079 q 366 1085 379 1079 q 346 1101 353 1092 l 224 1282 m 418 1282 q 414 1294 414 1286 q 433 1319 414 1310 q 482 1328 451 1328 q 526 1319 506 1328 q 553 1292 546 1310 l 618 1118 q 619 1106 619 1113 q 610 1086 619 1093 q 586 1079 601 1079 q 560 1085 574 1079 q 540 1101 547 1092 l 418 1282 m 139 915 q 153 969 139 953 q 200 985 167 985 l 463 985 q 718 926 622 985 q 814 717 814 867 q 778 592 814 649 q 687 499 743 535 q 571 453 631 463 l 801 82 q 814 46 814 64 q 796 13 814 25 q 743 0 778 0 q 690 13 715 0 q 649 53 665 25 l 415 443 l 289 443 l 289 90 q 268 21 289 42 q 203 0 247 0 q 155 17 171 0 q 139 69 139 33 l 139 915 m 289 517 l 438 517 q 590 567 524 517 q 657 725 657 618 q 596 875 657 839 q 449 911 535 911 l 289 911 l 289 517 z "},"Ȓ":{"ha":893,"x_min":139,"x_max":814,"o":"m 139 915 q 153 969 139 953 q 200 985 167 985 l 463 985 q 718 926 622 985 q 814 717 814 867 q 778 592 814 649 q 687 499 743 535 q 571 453 631 463 l 801 82 q 814 46 814 64 q 796 13 814 25 q 743 0 778 0 q 690 13 715 0 q 649 53 665 25 l 415 443 l 289 443 l 289 90 q 268 21 289 42 q 203 0 247 0 q 155 17 171 0 q 139 69 139 33 l 139 915 m 289 517 l 438 517 q 590 567 524 517 q 657 725 657 618 q 596 875 657 839 q 449 911 535 911 l 289 911 l 289 517 m 650 1099 q 640 1071 650 1082 q 613 1060 631 1060 q 583 1070 596 1060 q 563 1097 569 1081 q 516 1165 544 1147 q 446 1183 488 1183 q 376 1165 404 1183 q 331 1097 349 1147 q 310 1070 324 1081 q 281 1060 297 1060 q 253 1071 263 1060 q 243 1099 243 1082 q 299 1224 243 1174 q 446 1275 356 1275 q 594 1224 538 1275 q 650 1099 650 1174 z "},"S":{"ha":876,"x_min":85,"x_max":793,"o":"m 669 732 q 609 752 629 732 q 589 818 589 772 l 589 889 q 565 896 583 890 q 425 914 501 914 q 322 888 364 914 q 260 823 281 863 q 240 742 240 783 q 258 664 240 694 q 314 611 275 633 q 428 561 353 589 q 646 475 576 508 q 754 394 715 442 q 793 269 793 346 q 748 131 793 192 q 615 35 703 69 q 404 0 526 0 q 267 13 342 0 q 143 46 193 26 q 100 72 111 60 q 89 113 89 83 l 89 196 q 149 263 89 263 q 209 242 189 263 q 229 175 229 222 l 229 100 q 399 71 317 71 q 528 97 474 71 q 610 165 582 124 q 638 254 638 207 q 613 332 638 300 q 540 389 589 364 q 404 446 492 414 q 223 522 286 490 q 122 603 160 553 q 85 733 85 654 q 172 916 85 847 q 415 985 260 985 q 547 974 488 985 q 672 944 607 964 q 717 921 706 933 q 729 879 729 908 l 729 799 q 669 732 729 732 z "},"Ś":{"ha":876,"x_min":85,"x_max":793,"o":"m 669 732 q 609 752 629 732 q 589 818 589 772 l 589 889 q 565 896 583 890 q 425 914 501 914 q 322 888 364 914 q 260 823 281 863 q 240 742 240 783 q 258 664 240 694 q 314 611 275 633 q 428 561 353 589 q 646 475 576 508 q 754 394 715 442 q 793 269 793 346 q 748 131 793 192 q 615 35 703 69 q 404 0 526 0 q 267 13 342 0 q 143 46 193 26 q 100 72 111 60 q 89 113 89 83 l 89 196 q 149 263 89 263 q 209 242 189 263 q 229 175 229 222 l 229 100 q 399 71 317 71 q 528 97 474 71 q 610 165 582 124 q 638 254 638 207 q 613 332 638 300 q 540 389 589 364 q 404 446 492 414 q 223 522 286 490 q 122 603 160 553 q 85 733 85 654 q 172 916 85 847 q 415 985 260 985 q 547 974 488 985 q 672 944 607 964 q 717 921 706 933 q 729 879 729 908 l 729 799 q 669 732 729 732 m 463 1086 q 441 1070 456 1076 q 411 1064 426 1064 q 383 1072 393 1064 q 372 1092 372 1079 q 375 1104 372 1096 l 454 1301 q 485 1328 463 1319 q 536 1338 508 1338 q 593 1328 571 1338 q 615 1304 615 1319 q 610 1290 615 1301 l 463 1086 z "},"Š":{"ha":876,"x_min":85,"x_max":793,"o":"m 669 732 q 609 752 629 732 q 589 818 589 772 l 589 889 q 565 896 583 890 q 425 914 501 914 q 322 888 364 914 q 260 823 281 863 q 240 742 240 783 q 258 664 240 694 q 314 611 275 633 q 428 561 353 589 q 646 475 576 508 q 754 394 715 442 q 793 269 793 346 q 748 131 793 192 q 615 35 703 69 q 404 0 526 0 q 267 13 342 0 q 143 46 193 26 q 100 72 111 60 q 89 113 89 83 l 89 196 q 149 263 89 263 q 209 242 189 263 q 229 175 229 222 l 229 100 q 399 71 317 71 q 528 97 474 71 q 610 165 582 124 q 638 254 638 207 q 613 332 638 300 q 540 389 589 364 q 404 446 492 414 q 223 522 286 490 q 122 603 160 553 q 85 733 85 654 q 172 916 85 847 q 415 985 260 985 q 547 974 488 985 q 672 944 607 964 q 717 921 706 933 q 729 879 729 908 l 729 799 q 669 732 729 732 m 515 1233 q 613 1276 560 1276 q 653 1267 638 1276 q 669 1246 669 1258 q 664 1233 669 1239 l 511 1082 q 443 1056 485 1056 q 365 1082 392 1056 l 213 1233 q 207 1246 207 1239 q 223 1267 207 1258 q 264 1276 239 1276 q 361 1233 317 1276 l 438 1158 l 515 1233 z "},"Ş":{"ha":876,"x_min":85,"x_max":793,"o":"m 793 269 q 710 90 793 163 q 476 3 628 18 l 476 -53 q 617 -156 617 -53 q 574 -243 617 -211 q 463 -275 531 -275 q 378 -260 419 -275 q 336 -218 336 -244 q 344 -199 336 -207 q 365 -192 353 -192 q 397 -199 376 -192 q 446 -207 428 -207 q 495 -193 479 -207 q 511 -160 511 -179 q 486 -115 511 -125 q 404 -104 461 -104 l 404 0 q 267 13 342 0 q 143 46 193 26 q 100 72 111 60 q 89 113 89 83 l 89 196 q 149 263 89 263 q 209 242 189 263 q 229 175 229 222 l 229 100 q 399 71 317 71 q 528 97 474 71 q 610 165 582 124 q 638 254 638 207 q 613 332 638 300 q 540 389 589 364 q 404 446 492 414 q 223 522 286 490 q 122 603 160 553 q 85 733 85 654 q 172 916 85 847 q 415 985 260 985 q 547 974 488 985 q 672 944 607 964 q 717 921 706 933 q 729 879 729 908 l 729 799 q 669 732 729 732 q 609 752 629 732 q 589 818 589 772 l 589 889 q 565 896 583 890 q 425 914 501 914 q 322 888 364 914 q 260 823 281 863 q 240 742 240 783 q 258 664 240 694 q 314 611 275 633 q 428 561 353 589 q 646 475 576 508 q 754 394 715 442 q 793 269 793 346 z "},"Ŝ":{"ha":876,"x_min":85,"x_max":793,"o":"m 669 732 q 609 752 629 732 q 589 818 589 772 l 589 889 q 565 896 583 890 q 425 914 501 914 q 322 888 364 914 q 260 823 281 863 q 240 742 240 783 q 258 664 240 694 q 314 611 275 633 q 428 561 353 589 q 646 475 576 508 q 754 394 715 442 q 793 269 793 346 q 748 131 793 192 q 615 35 703 69 q 404 0 526 0 q 267 13 342 0 q 143 46 193 26 q 100 72 111 60 q 89 113 89 83 l 89 196 q 149 263 89 263 q 209 242 189 263 q 229 175 229 222 l 229 100 q 399 71 317 71 q 528 97 474 71 q 610 165 582 124 q 638 254 638 207 q 613 332 638 300 q 540 389 589 364 q 404 446 492 414 q 223 522 286 490 q 122 603 160 553 q 85 733 85 654 q 172 916 85 847 q 415 985 260 985 q 547 974 488 985 q 672 944 607 964 q 717 921 706 933 q 729 879 729 908 l 729 799 q 669 732 729 732 m 367 1103 q 276 1061 326 1061 q 239 1070 254 1061 q 224 1090 224 1079 q 229 1103 224 1097 l 371 1250 q 439 1275 394 1275 q 507 1250 485 1275 l 649 1103 q 654 1090 654 1097 q 639 1070 654 1079 q 601 1061 624 1061 q 511 1103 551 1061 l 439 1175 l 367 1103 z "},"Ș":{"ha":876,"x_min":85,"x_max":793,"o":"m 669 732 q 609 752 629 732 q 589 818 589 772 l 589 889 q 565 896 583 890 q 425 914 501 914 q 322 888 364 914 q 260 823 281 863 q 240 742 240 783 q 258 664 240 694 q 314 611 275 633 q 428 561 353 589 q 646 475 576 508 q 754 394 715 442 q 793 269 793 346 q 748 131 793 192 q 615 35 703 69 q 404 0 526 0 q 267 13 342 0 q 143 46 193 26 q 100 72 111 60 q 89 113 89 83 l 89 196 q 149 263 89 263 q 209 242 189 263 q 229 175 229 222 l 229 100 q 399 71 317 71 q 528 97 474 71 q 610 165 582 124 q 638 254 638 207 q 613 332 638 300 q 540 389 589 364 q 404 446 492 414 q 223 522 286 490 q 122 603 160 553 q 85 733 85 654 q 172 916 85 847 q 415 985 260 985 q 547 974 488 985 q 672 944 607 964 q 717 921 706 933 q 729 879 729 908 l 729 799 q 669 732 729 732 m 424 -314 q 394 -342 408 -333 q 360 -350 379 -350 q 334 -342 344 -350 q 324 -319 324 -333 l 357 -137 q 436 -78 368 -78 q 511 -137 511 -78 q 491 -213 511 -172 q 424 -314 471 -254 z "},"ẞ":{"ha":833,"x_min":111,"x_max":764,"o":"m 481 782 q 516 651 481 706 q 622 528 551 597 q 697 449 669 482 q 744 372 725 415 q 764 274 764 328 q 733 130 764 192 q 648 34 701 68 q 529 0 594 0 q 379 40 451 0 q 304 131 304 81 q 322 172 304 157 q 365 188 340 188 q 435 138 408 188 q 483 73 454 94 q 540 51 511 51 q 613 92 586 51 q 640 204 640 132 q 607 337 640 282 q 508 460 574 392 q 436 544 463 510 q 391 625 410 578 q 372 731 372 672 q 514 999 372 907 l 400 999 q 285 941 314 999 q 256 797 256 883 l 256 99 q 235 19 256 39 q 167 0 215 0 q 123 16 135 0 q 111 65 111 32 l 111 718 q 170 961 111 867 q 400 1056 229 1056 l 646 1056 q 671 1028 671 1056 q 646 1000 671 1000 l 644 1000 q 563 969 600 1000 q 503 889 525 939 q 481 782 481 839 z "},"Ə":{"ha":924,"x_min":58,"x_max":850,"o":"m 436 985 q 749 858 647 985 q 850 492 850 731 q 821 278 850 388 q 703 84 792 168 q 453 0 615 0 q 169 118 265 0 q 60 472 72 236 q 79 526 58 504 q 132 547 100 547 l 692 547 q 609 831 683 750 q 397 913 535 913 q 215 872 311 913 l 189 861 q 178 858 181 858 q 154 872 164 858 q 144 900 144 885 q 163 928 144 919 l 186 938 q 301 973 243 961 q 436 985 358 985 m 453 71 q 641 192 592 71 q 693 471 690 313 l 271 471 q 229 456 246 471 q 214 421 213 442 q 276 174 222 278 q 453 71 329 71 z "},"T":{"ha":903,"x_min":28,"x_max":875,"o":"m 526 83 q 506 18 526 36 q 440 0 486 0 q 392 17 408 0 q 376 69 376 33 l 376 911 l 168 911 l 168 813 q 148 743 168 764 q 88 722 128 722 q 42 739 57 722 q 28 792 28 756 l 28 933 q 48 974 28 963 q 111 985 68 985 l 792 985 q 855 974 835 985 q 875 933 875 963 l 875 792 q 860 739 875 756 q 815 722 846 722 q 755 743 775 722 q 735 813 735 764 l 735 911 l 526 911 l 526 83 z "},"Ŧ":{"ha":903,"x_min":28,"x_max":875,"o":"m 792 985 q 855 974 835 985 q 875 933 875 963 l 875 792 q 860 739 875 756 q 815 722 846 722 q 755 743 775 722 q 735 813 735 764 l 735 911 l 526 911 l 526 526 l 696 526 q 720 516 711 526 q 729 492 729 506 q 720 468 729 478 q 696 458 711 458 l 526 458 l 526 83 q 506 18 526 36 q 440 0 486 0 q 392 17 408 0 q 376 69 376 33 l 376 458 l 207 458 q 182 468 190 458 q 174 492 174 478 q 182 517 174 507 q 207 526 190 526 l 376 526 l 376 911 l 168 911 l 168 813 q 148 743 168 764 q 88 722 128 722 q 42 739 57 722 q 28 792 28 756 l 28 933 q 48 974 28 963 q 111 985 68 985 l 792 985 z "},"Ť":{"ha":903,"x_min":28,"x_max":875,"o":"m 526 83 q 506 18 526 36 q 440 0 486 0 q 392 17 408 0 q 376 69 376 33 l 376 911 l 168 911 l 168 813 q 148 743 168 764 q 88 722 128 722 q 42 739 57 722 q 28 792 28 756 l 28 933 q 48 974 28 963 q 111 985 68 985 l 792 985 q 855 974 835 985 q 875 933 875 963 l 875 792 q 860 739 875 756 q 815 722 846 722 q 755 743 775 722 q 735 813 735 764 l 735 911 l 526 911 l 526 83 m 528 1233 q 625 1276 572 1276 q 666 1267 650 1276 q 682 1246 682 1258 q 676 1233 682 1239 l 524 1082 q 456 1056 497 1056 q 378 1082 404 1056 l 225 1233 q 219 1246 219 1239 q 235 1267 219 1258 q 276 1276 251 1276 q 374 1233 329 1276 l 450 1158 l 528 1233 z "},"Ţ":{"ha":903,"x_min":28,"x_max":875,"o":"m 792 985 q 855 974 835 985 q 875 933 875 963 l 875 792 q 860 739 875 756 q 815 722 846 722 q 755 743 775 722 q 735 813 735 764 l 735 911 l 526 911 l 526 83 q 517 32 526 50 q 489 7 508 14 l 489 -53 q 629 -156 629 -53 q 586 -243 629 -211 q 475 -275 543 -275 q 390 -260 432 -275 q 349 -218 349 -244 q 357 -199 349 -207 q 378 -192 365 -192 q 410 -199 389 -192 q 458 -207 440 -207 q 508 -193 492 -207 q 524 -160 524 -179 q 499 -115 524 -125 q 417 -104 474 -104 l 417 3 q 376 69 376 13 l 376 911 l 168 911 l 168 813 q 148 743 168 764 q 88 722 128 722 q 42 739 57 722 q 28 792 28 756 l 28 933 q 48 974 28 963 q 111 985 68 985 l 792 985 z "},"Ț":{"ha":903,"x_min":28,"x_max":875,"o":"m 526 83 q 506 18 526 36 q 440 0 486 0 q 392 17 408 0 q 376 69 376 33 l 376 911 l 168 911 l 168 813 q 148 743 168 764 q 88 722 128 722 q 42 739 57 722 q 28 792 28 756 l 28 933 q 48 974 28 963 q 111 985 68 985 l 792 985 q 855 974 835 985 q 875 933 875 963 l 875 792 q 860 739 875 756 q 815 722 846 722 q 755 743 775 722 q 735 813 735 764 l 735 911 l 526 911 l 526 83 m 436 -314 q 406 -342 421 -333 q 372 -350 392 -350 q 347 -342 357 -350 q 336 -319 336 -333 l 369 -137 q 449 -78 381 -78 q 524 -137 524 -78 q 503 -213 524 -172 q 436 -314 483 -254 z "},"U":{"ha":997,"x_min":129,"x_max":868,"o":"m 279 304 q 344 128 279 192 q 525 64 410 64 q 695 133 632 64 q 758 310 758 203 l 758 907 q 776 966 758 947 q 815 985 793 985 q 853 969 838 985 q 868 922 868 954 l 868 353 q 839 185 868 269 q 727 40 810 101 q 497 -21 644 -21 q 203 92 278 -21 q 129 349 129 204 l 129 915 q 143 969 129 953 q 190 985 157 985 q 256 958 233 985 q 279 878 279 931 l 279 304 z "},"Ú":{"ha":997,"x_min":129,"x_max":868,"o":"m 279 304 q 344 128 279 192 q 525 64 410 64 q 695 133 632 64 q 758 310 758 203 l 758 907 q 776 966 758 947 q 815 985 793 985 q 853 969 838 985 q 868 922 868 954 l 868 353 q 839 185 868 269 q 727 40 810 101 q 497 -21 644 -21 q 203 92 278 -21 q 129 349 129 204 l 129 915 q 143 969 129 953 q 190 985 157 985 q 256 958 233 985 q 279 878 279 931 l 279 304 m 536 1086 q 515 1070 529 1076 q 485 1064 500 1064 q 456 1072 467 1064 q 446 1092 446 1079 q 449 1104 446 1096 l 528 1301 q 559 1328 536 1319 q 610 1338 582 1338 q 667 1328 644 1338 q 689 1304 689 1319 q 683 1290 689 1301 l 536 1086 z "},"Ŭ":{"ha":997,"x_min":129,"x_max":868,"o":"m 279 304 q 344 128 279 192 q 525 64 410 64 q 695 133 632 64 q 758 310 758 203 l 758 907 q 776 966 758 947 q 815 985 793 985 q 853 969 838 985 q 868 922 868 954 l 868 353 q 839 185 868 269 q 727 40 810 101 q 497 -21 644 -21 q 203 92 278 -21 q 129 349 129 204 l 129 915 q 143 969 129 953 q 190 985 157 985 q 256 958 233 985 q 279 878 279 931 l 279 304 m 715 1236 q 659 1110 715 1161 q 511 1060 603 1060 q 365 1110 421 1060 q 308 1236 308 1161 q 318 1264 308 1253 q 346 1275 328 1275 q 376 1265 363 1275 q 396 1238 389 1254 q 442 1169 414 1188 q 511 1151 469 1151 q 581 1169 553 1151 q 628 1238 610 1188 q 648 1265 635 1254 q 678 1275 661 1275 q 706 1264 696 1275 q 715 1236 715 1253 z "},"Û":{"ha":997,"x_min":129,"x_max":868,"o":"m 279 304 q 344 128 279 192 q 525 64 410 64 q 695 133 632 64 q 758 310 758 203 l 758 907 q 776 966 758 947 q 815 985 793 985 q 853 969 838 985 q 868 922 868 954 l 868 353 q 839 185 868 269 q 727 40 810 101 q 497 -21 644 -21 q 203 92 278 -21 q 129 349 129 204 l 129 915 q 143 969 129 953 q 190 985 157 985 q 256 958 233 985 q 279 878 279 931 l 279 304 m 440 1103 q 350 1061 400 1061 q 313 1070 328 1061 q 297 1090 297 1079 q 303 1103 297 1097 l 444 1250 q 513 1275 468 1275 q 581 1250 558 1275 l 722 1103 q 728 1090 728 1097 q 713 1070 728 1079 q 675 1061 697 1061 q 585 1103 625 1061 l 513 1175 l 440 1103 z "},"Ȕ":{"ha":997,"x_min":129,"x_max":868,"o":"m 289 1282 q 285 1294 285 1286 q 303 1319 285 1310 q 353 1328 322 1328 q 397 1319 376 1328 q 424 1292 417 1310 l 489 1118 q 490 1106 490 1113 q 481 1086 490 1093 q 457 1079 472 1079 q 431 1085 444 1079 q 411 1101 418 1092 l 289 1282 m 483 1282 q 479 1294 479 1286 q 498 1319 479 1310 q 547 1328 517 1328 q 591 1319 571 1328 q 618 1292 611 1310 l 683 1118 q 685 1106 685 1113 q 676 1086 685 1093 q 651 1079 667 1079 q 626 1085 639 1079 q 606 1101 613 1092 l 483 1282 m 279 304 q 344 128 279 192 q 525 64 410 64 q 695 133 632 64 q 758 310 758 203 l 758 907 q 776 966 758 947 q 815 985 793 985 q 853 969 838 985 q 868 922 868 954 l 868 353 q 839 185 868 269 q 727 40 810 101 q 497 -21 644 -21 q 203 92 278 -21 q 129 349 129 204 l 129 915 q 143 969 129 953 q 190 985 157 985 q 256 958 233 985 q 279 878 279 931 l 279 304 z "},"Ü":{"ha":997,"x_min":129,"x_max":868,"o":"m 279 304 q 344 128 279 192 q 525 64 410 64 q 695 133 632 64 q 758 310 758 203 l 758 907 q 776 966 758 947 q 815 985 793 985 q 853 969 838 985 q 868 922 868 954 l 868 353 q 839 185 868 269 q 727 40 810 101 q 497 -21 644 -21 q 203 92 278 -21 q 129 349 129 204 l 129 915 q 143 969 129 953 q 190 985 157 985 q 256 958 233 985 q 279 878 279 931 l 279 304 m 274 1183 q 302 1250 274 1221 q 367 1279 331 1279 q 435 1251 406 1279 q 464 1183 464 1222 q 435 1117 464 1146 q 367 1089 406 1089 q 302 1118 331 1089 q 274 1183 274 1147 m 561 1182 q 590 1249 561 1221 q 656 1278 618 1278 q 722 1249 693 1278 q 751 1182 751 1221 q 722 1117 751 1146 q 656 1088 693 1088 q 590 1117 618 1088 q 561 1182 561 1146 z "},"Ụ":{"ha":997,"x_min":129,"x_max":868,"o":"m 279 304 q 344 128 279 192 q 525 64 410 64 q 695 133 632 64 q 758 310 758 203 l 758 907 q 776 966 758 947 q 815 985 793 985 q 853 969 838 985 q 868 922 868 954 l 868 353 q 839 185 868 269 q 727 40 810 101 q 497 -21 644 -21 q 203 92 278 -21 q 129 349 129 204 l 129 915 q 143 969 129 953 q 190 985 157 985 q 256 958 233 985 q 279 878 279 931 l 279 304 m 413 -182 q 438 -122 413 -147 q 499 -96 463 -96 q 559 -122 533 -96 q 585 -182 585 -147 q 559 -243 585 -218 q 499 -268 533 -268 q 438 -243 463 -268 q 413 -182 413 -218 z "},"Ù":{"ha":997,"x_min":129,"x_max":868,"o":"m 279 304 q 344 128 279 192 q 525 64 410 64 q 695 133 632 64 q 758 310 758 203 l 758 907 q 776 966 758 947 q 815 985 793 985 q 853 969 838 985 q 868 922 868 954 l 868 353 q 839 185 868 269 q 727 40 810 101 q 497 -21 644 -21 q 203 92 278 -21 q 129 349 129 204 l 129 915 q 143 969 129 953 q 190 985 157 985 q 256 958 233 985 q 279 878 279 931 l 279 304 m 354 1290 q 350 1304 350 1297 q 371 1328 350 1319 q 428 1338 392 1338 q 479 1328 456 1338 q 510 1301 503 1319 l 589 1104 q 592 1090 592 1099 q 581 1071 592 1078 q 553 1064 569 1064 q 524 1070 538 1064 q 501 1086 510 1076 l 354 1290 z "},"Ủ":{"ha":997,"x_min":129,"x_max":868,"o":"m 279 304 q 344 128 279 192 q 525 64 410 64 q 695 133 632 64 q 758 310 758 203 l 758 907 q 776 966 758 947 q 815 985 793 985 q 853 969 838 985 q 868 922 868 954 l 868 353 q 839 185 868 269 q 727 40 810 101 q 497 -21 644 -21 q 203 92 278 -21 q 129 349 129 204 l 129 915 q 143 969 129 953 q 190 985 157 985 q 256 958 233 985 q 279 878 279 931 l 279 304 m 486 1099 q 551 1163 538 1146 q 565 1206 565 1181 q 551 1246 565 1231 q 508 1261 536 1261 q 476 1256 489 1261 q 447 1243 464 1251 q 411 1231 425 1231 q 392 1238 400 1231 q 385 1257 385 1246 q 429 1310 385 1290 q 529 1329 474 1329 q 634 1297 600 1329 q 668 1222 668 1265 q 644 1149 668 1183 q 591 1088 619 1115 q 554 1051 563 1060 q 497 1026 531 1026 q 465 1035 478 1026 q 451 1056 451 1043 q 465 1079 451 1067 l 486 1099 z "},"Ư":{"ha":997,"x_min":129,"x_max":1054,"o":"m 1054 1086 q 1002 983 1054 1024 q 868 931 950 942 l 868 922 l 868 353 q 839 185 868 269 q 727 40 810 101 q 497 -21 644 -21 q 203 92 278 -21 q 129 349 129 204 l 129 915 q 143 969 129 953 q 190 985 157 985 q 256 958 233 985 q 279 878 279 931 l 279 304 q 344 128 279 192 q 525 64 410 64 q 695 133 632 64 q 758 310 758 203 l 758 907 q 776 966 758 947 q 815 985 793 985 l 868 985 q 903 1010 893 985 q 913 1096 913 1036 q 928 1143 913 1128 q 985 1158 944 1158 q 1039 1142 1024 1158 q 1054 1086 1054 1125 z "},"Ứ":{"ha":997,"x_min":129,"x_max":1054,"o":"m 1054 1086 q 1002 983 1054 1024 q 868 931 950 942 l 868 922 l 868 353 q 839 185 868 269 q 727 40 810 101 q 497 -21 644 -21 q 203 92 278 -21 q 129 349 129 204 l 129 915 q 143 969 129 953 q 190 985 157 985 q 256 958 233 985 q 279 878 279 931 l 279 304 q 344 128 279 192 q 525 64 410 64 q 695 133 632 64 q 758 310 758 203 l 758 907 q 776 966 758 947 q 815 985 793 985 l 868 985 q 903 1010 893 985 q 913 1096 913 1036 q 928 1143 913 1128 q 985 1158 944 1158 q 1039 1142 1024 1158 q 1054 1086 1054 1125 m 536 1086 q 515 1070 529 1076 q 485 1064 500 1064 q 456 1072 467 1064 q 446 1092 446 1079 q 449 1104 446 1096 l 528 1301 q 559 1328 536 1319 q 610 1338 582 1338 q 667 1328 644 1338 q 689 1304 689 1319 q 683 1290 689 1301 l 536 1086 z "},"Ự":{"ha":997,"x_min":129,"x_max":1054,"o":"m 1054 1086 q 1002 983 1054 1024 q 868 931 950 942 l 868 922 l 868 353 q 839 185 868 269 q 727 40 810 101 q 497 -21 644 -21 q 203 92 278 -21 q 129 349 129 204 l 129 915 q 143 969 129 953 q 190 985 157 985 q 256 958 233 985 q 279 878 279 931 l 279 304 q 344 128 279 192 q 525 64 410 64 q 695 133 632 64 q 758 310 758 203 l 758 907 q 776 966 758 947 q 815 985 793 985 l 868 985 q 903 1010 893 985 q 913 1096 913 1036 q 928 1143 913 1128 q 985 1158 944 1158 q 1039 1142 1024 1158 q 1054 1086 1054 1125 m 413 -182 q 438 -122 413 -147 q 499 -96 463 -96 q 559 -122 533 -96 q 585 -182 585 -147 q 559 -243 585 -218 q 499 -268 533 -268 q 438 -243 463 -268 q 413 -182 413 -218 z "},"Ừ":{"ha":997,"x_min":129,"x_max":1054,"o":"m 1054 1086 q 1002 983 1054 1024 q 868 931 950 942 l 868 922 l 868 353 q 839 185 868 269 q 727 40 810 101 q 497 -21 644 -21 q 203 92 278 -21 q 129 349 129 204 l 129 915 q 143 969 129 953 q 190 985 157 985 q 256 958 233 985 q 279 878 279 931 l 279 304 q 344 128 279 192 q 525 64 410 64 q 695 133 632 64 q 758 310 758 203 l 758 907 q 776 966 758 947 q 815 985 793 985 l 868 985 q 903 1010 893 985 q 913 1096 913 1036 q 928 1143 913 1128 q 985 1158 944 1158 q 1039 1142 1024 1158 q 1054 1086 1054 1125 m 354 1290 q 350 1304 350 1297 q 371 1328 350 1319 q 428 1338 392 1338 q 479 1328 456 1338 q 510 1301 503 1319 l 589 1104 q 592 1090 592 1099 q 581 1071 592 1078 q 553 1064 569 1064 q 524 1070 538 1064 q 501 1086 510 1076 l 354 1290 z "},"Ử":{"ha":997,"x_min":129,"x_max":1054,"o":"m 1054 1086 q 1002 983 1054 1024 q 868 931 950 942 l 868 922 l 868 353 q 839 185 868 269 q 727 40 810 101 q 497 -21 644 -21 q 203 92 278 -21 q 129 349 129 204 l 129 915 q 143 969 129 953 q 190 985 157 985 q 256 958 233 985 q 279 878 279 931 l 279 304 q 344 128 279 192 q 525 64 410 64 q 695 133 632 64 q 758 310 758 203 l 758 907 q 776 966 758 947 q 815 985 793 985 l 868 985 q 903 1010 893 985 q 913 1096 913 1036 q 928 1143 913 1128 q 985 1158 944 1158 q 1039 1142 1024 1158 q 1054 1086 1054 1125 m 486 1099 q 551 1163 538 1146 q 565 1206 565 1181 q 551 1246 565 1231 q 508 1261 536 1261 q 476 1256 489 1261 q 447 1243 464 1251 q 411 1231 425 1231 q 392 1238 400 1231 q 385 1257 385 1246 q 429 1310 385 1290 q 529 1329 474 1329 q 634 1297 600 1329 q 668 1222 668 1265 q 644 1149 668 1183 q 591 1088 619 1115 q 554 1051 563 1060 q 497 1026 531 1026 q 465 1035 478 1026 q 451 1056 451 1043 q 465 1079 451 1067 l 486 1099 z "},"Ữ":{"ha":997,"x_min":129,"x_max":1054,"o":"m 1054 1086 q 1002 983 1054 1024 q 868 931 950 942 l 868 922 l 868 353 q 839 185 868 269 q 727 40 810 101 q 497 -21 644 -21 q 203 92 278 -21 q 129 349 129 204 l 129 915 q 143 969 129 953 q 190 985 157 985 q 256 958 233 985 q 279 878 279 931 l 279 304 q 344 128 279 192 q 525 64 410 64 q 695 133 632 64 q 758 310 758 203 l 758 907 q 776 966 758 947 q 815 985 793 985 l 868 985 q 903 1010 893 985 q 913 1096 913 1036 q 928 1143 913 1128 q 985 1158 944 1158 q 1039 1142 1024 1158 q 1054 1086 1054 1125 m 419 1129 q 390 1122 399 1129 q 374 1099 381 1114 q 360 1078 367 1085 q 336 1071 353 1071 q 297 1099 297 1071 q 314 1156 297 1125 q 363 1208 331 1186 q 436 1229 394 1229 q 524 1208 478 1225 q 547 1198 529 1206 q 581 1187 565 1190 q 610 1183 596 1183 q 651 1207 639 1183 q 658 1219 653 1210 q 672 1235 663 1229 q 696 1240 681 1240 q 719 1233 711 1240 q 726 1214 726 1225 q 717 1176 726 1196 q 665 1106 696 1128 q 599 1083 633 1083 q 553 1089 574 1083 q 503 1107 532 1094 q 419 1129 443 1129 z "},"Ű":{"ha":997,"x_min":129,"x_max":868,"o":"m 279 304 q 344 128 279 192 q 525 64 410 64 q 695 133 632 64 q 758 310 758 203 l 758 907 q 776 966 758 947 q 815 985 793 985 q 853 969 838 985 q 868 922 868 954 l 868 353 q 839 185 868 269 q 727 40 810 101 q 497 -21 644 -21 q 203 92 278 -21 q 129 349 129 204 l 129 915 q 143 969 129 953 q 190 985 157 985 q 256 958 233 985 q 279 878 279 931 l 279 304 m 429 1046 q 409 1033 422 1038 q 383 1028 396 1028 q 358 1033 368 1028 q 349 1049 349 1039 q 351 1060 349 1051 l 407 1200 q 488 1250 428 1250 q 531 1237 514 1250 q 547 1201 547 1224 q 543 1192 547 1196 l 429 1046 m 654 1046 q 634 1033 647 1038 q 608 1028 621 1028 q 583 1033 593 1028 q 574 1049 574 1039 q 576 1060 574 1051 l 646 1200 q 679 1239 660 1228 q 726 1250 699 1250 q 769 1237 753 1250 q 786 1201 786 1224 q 782 1192 786 1196 l 654 1046 z "},"Ȗ":{"ha":997,"x_min":129,"x_max":868,"o":"m 279 304 q 344 128 279 192 q 525 64 410 64 q 695 133 632 64 q 758 310 758 203 l 758 907 q 776 966 758 947 q 815 985 793 985 q 853 969 838 985 q 868 922 868 954 l 868 353 q 839 185 868 269 q 727 40 810 101 q 497 -21 644 -21 q 203 92 278 -21 q 129 349 129 204 l 129 915 q 143 969 129 953 q 190 985 157 985 q 256 958 233 985 q 279 878 279 931 l 279 304 m 715 1099 q 706 1071 715 1082 q 678 1060 696 1060 q 648 1070 661 1060 q 628 1097 635 1081 q 581 1165 610 1147 q 511 1183 553 1183 q 442 1165 469 1183 q 396 1097 414 1147 q 376 1070 389 1081 q 346 1060 363 1060 q 318 1071 328 1060 q 308 1099 308 1082 q 365 1224 308 1174 q 511 1275 421 1275 q 659 1224 603 1275 q 715 1099 715 1174 z "},"Ū":{"ha":997,"x_min":129,"x_max":868,"o":"m 279 304 q 344 128 279 192 q 525 64 410 64 q 695 133 632 64 q 758 310 758 203 l 758 907 q 776 966 758 947 q 815 985 793 985 q 853 969 838 985 q 868 922 868 954 l 868 353 q 839 185 868 269 q 727 40 810 101 q 497 -21 644 -21 q 203 92 278 -21 q 129 349 129 204 l 129 915 q 143 969 129 953 q 190 985 157 985 q 256 958 233 985 q 279 878 279 931 l 279 304 m 336 1093 q 313 1105 322 1093 q 303 1135 303 1117 q 313 1166 303 1154 q 336 1178 322 1178 l 689 1178 q 712 1166 701 1178 q 722 1135 722 1154 q 713 1104 722 1115 q 689 1093 704 1093 l 336 1093 z "},"Ų":{"ha":997,"x_min":129,"x_max":868,"o":"m 815 985 q 853 969 838 985 q 868 922 868 954 l 868 353 q 826 157 868 253 q 676 13 783 61 q 571 -149 571 -75 q 587 -192 571 -175 q 629 -208 603 -208 q 662 -203 649 -208 q 689 -190 675 -199 q 722 -178 707 -178 q 741 -185 733 -178 q 749 -204 749 -193 q 699 -257 749 -237 q 596 -276 650 -276 q 497 -243 529 -276 q 465 -162 465 -210 q 556 -18 465 -83 q 497 -21 517 -21 q 203 92 278 -21 q 129 349 129 204 l 129 915 q 143 969 129 953 q 190 985 157 985 q 256 958 233 985 q 279 878 279 931 l 279 304 q 344 128 279 192 q 525 64 410 64 q 695 133 632 64 q 758 310 758 203 l 758 907 q 776 966 758 947 q 815 985 793 985 z "},"Ů":{"ha":997,"x_min":129,"x_max":868,"o":"m 279 304 q 344 128 279 192 q 525 64 410 64 q 695 133 632 64 q 758 310 758 203 l 758 907 q 776 966 758 947 q 815 985 793 985 q 853 969 838 985 q 868 922 868 954 l 868 353 q 839 185 868 269 q 727 40 810 101 q 497 -21 644 -21 q 203 92 278 -21 q 129 349 129 204 l 129 915 q 143 969 129 953 q 190 985 157 985 q 256 958 233 985 q 279 878 279 931 l 279 304 m 363 1207 q 406 1314 363 1271 q 513 1357 449 1357 q 619 1314 575 1357 q 663 1207 663 1271 q 619 1101 663 1144 q 513 1057 575 1057 q 406 1101 449 1057 q 363 1207 363 1144 m 439 1207 q 461 1156 439 1178 q 513 1135 483 1135 q 563 1156 540 1135 q 585 1207 585 1178 q 563 1258 585 1236 q 513 1281 540 1281 q 461 1258 483 1281 q 439 1207 439 1236 z "},"Ũ":{"ha":997,"x_min":129,"x_max":868,"o":"m 279 304 q 344 128 279 192 q 525 64 410 64 q 695 133 632 64 q 758 310 758 203 l 758 907 q 776 966 758 947 q 815 985 793 985 q 853 969 838 985 q 868 922 868 954 l 868 353 q 839 185 868 269 q 727 40 810 101 q 497 -21 644 -21 q 203 92 278 -21 q 129 349 129 204 l 129 915 q 143 969 129 953 q 190 985 157 985 q 256 958 233 985 q 279 878 279 931 l 279 304 m 419 1129 q 390 1122 399 1129 q 374 1099 381 1114 q 360 1078 367 1085 q 336 1071 353 1071 q 297 1099 297 1071 q 314 1156 297 1125 q 363 1208 331 1186 q 436 1229 394 1229 q 524 1208 478 1225 q 547 1198 529 1206 q 581 1187 565 1190 q 610 1183 596 1183 q 651 1207 639 1183 q 658 1219 653 1210 q 672 1235 663 1229 q 696 1240 681 1240 q 719 1233 711 1240 q 726 1214 726 1225 q 717 1176 726 1196 q 665 1106 696 1128 q 599 1083 633 1083 q 553 1089 574 1083 q 503 1107 532 1094 q 419 1129 443 1129 z "},"V":{"ha":757,"x_min":-7,"x_max":778,"o":"m 656 911 q 690 970 671 956 q 735 985 710 985 q 766 974 754 985 q 778 947 778 964 q 771 913 778 931 l 468 56 q 381 0 449 0 q 329 12 353 0 q 297 50 306 24 l -1 903 q -7 933 -7 918 q 8 970 -7 956 q 53 985 22 985 q 149 911 124 985 l 396 157 l 404 157 l 656 911 z "},"W":{"ha":1179,"x_min":36,"x_max":1149,"o":"m 1029 911 q 1063 970 1043 956 q 1107 985 1082 985 q 1137 974 1125 985 q 1149 947 1149 963 q 1142 913 1149 931 l 910 56 q 824 0 893 0 q 772 13 796 0 q 742 50 749 25 l 596 718 l 593 718 l 432 56 q 400 13 424 26 q 346 0 376 0 q 294 12 318 0 q 264 50 271 24 l 42 903 q 36 933 36 918 q 51 970 36 956 q 94 985 65 985 q 189 911 165 985 l 361 157 l 369 157 l 535 897 q 563 964 546 943 q 610 985 579 985 q 681 901 664 985 l 839 157 l 847 157 l 1029 911 z "},"Ẃ":{"ha":1179,"x_min":36,"x_max":1149,"o":"m 1029 911 q 1063 970 1043 956 q 1107 985 1082 985 q 1137 974 1125 985 q 1149 947 1149 963 q 1142 913 1149 931 l 910 56 q 824 0 893 0 q 772 13 796 0 q 742 50 749 25 l 596 718 l 593 718 l 432 56 q 400 13 424 26 q 346 0 376 0 q 294 12 318 0 q 264 50 271 24 l 42 903 q 36 933 36 918 q 51 970 36 956 q 94 985 65 985 q 189 911 165 985 l 361 157 l 369 157 l 535 897 q 563 964 546 943 q 610 985 579 985 q 681 901 664 985 l 839 157 l 847 157 l 1029 911 m 614 1086 q 592 1070 607 1076 q 563 1064 578 1064 q 534 1072 544 1064 q 524 1092 524 1079 q 526 1104 524 1096 l 606 1301 q 637 1328 614 1319 q 688 1338 660 1338 q 744 1328 722 1338 q 767 1304 767 1319 q 761 1290 767 1301 l 614 1086 z "},"Ŵ":{"ha":1179,"x_min":36,"x_max":1149,"o":"m 1029 911 q 1063 970 1043 956 q 1107 985 1082 985 q 1137 974 1125 985 q 1149 947 1149 963 q 1142 913 1149 931 l 910 56 q 824 0 893 0 q 772 13 796 0 q 742 50 749 25 l 596 718 l 593 718 l 432 56 q 400 13 424 26 q 346 0 376 0 q 294 12 318 0 q 264 50 271 24 l 42 903 q 36 933 36 918 q 51 970 36 956 q 94 985 65 985 q 189 911 165 985 l 361 157 l 369 157 l 535 897 q 563 964 546 943 q 610 985 579 985 q 681 901 664 985 l 839 157 l 847 157 l 1029 911 m 518 1103 q 428 1061 478 1061 q 390 1070 406 1061 q 375 1090 375 1079 q 381 1103 375 1097 l 522 1250 q 590 1275 546 1275 q 658 1250 636 1275 l 800 1103 q 806 1090 806 1097 q 790 1070 806 1079 q 753 1061 775 1061 q 663 1103 703 1061 l 590 1175 l 518 1103 z "},"Ẅ":{"ha":1179,"x_min":36,"x_max":1149,"o":"m 1029 911 q 1063 970 1043 956 q 1107 985 1082 985 q 1137 974 1125 985 q 1149 947 1149 963 q 1142 913 1149 931 l 910 56 q 824 0 893 0 q 772 13 796 0 q 742 50 749 25 l 596 718 l 593 718 l 432 56 q 400 13 424 26 q 346 0 376 0 q 294 12 318 0 q 264 50 271 24 l 42 903 q 36 933 36 918 q 51 970 36 956 q 94 985 65 985 q 189 911 165 985 l 361 157 l 369 157 l 535 897 q 563 964 546 943 q 610 985 579 985 q 681 901 664 985 l 839 157 l 847 157 l 1029 911 m 351 1183 q 380 1250 351 1221 q 444 1279 408 1279 q 513 1251 483 1279 q 542 1183 542 1222 q 513 1117 542 1146 q 444 1089 483 1089 q 380 1118 408 1089 q 351 1183 351 1147 m 639 1182 q 667 1249 639 1221 q 733 1278 696 1278 q 800 1249 771 1278 q 829 1182 829 1221 q 800 1117 829 1146 q 733 1088 771 1088 q 667 1117 696 1088 q 639 1182 639 1146 z "},"Ẁ":{"ha":1179,"x_min":36,"x_max":1149,"o":"m 1029 911 q 1063 970 1043 956 q 1107 985 1082 985 q 1137 974 1125 985 q 1149 947 1149 963 q 1142 913 1149 931 l 910 56 q 824 0 893 0 q 772 13 796 0 q 742 50 749 25 l 596 718 l 593 718 l 432 56 q 400 13 424 26 q 346 0 376 0 q 294 12 318 0 q 264 50 271 24 l 42 903 q 36 933 36 918 q 51 970 36 956 q 94 985 65 985 q 189 911 165 985 l 361 157 l 369 157 l 535 897 q 563 964 546 943 q 610 985 579 985 q 681 901 664 985 l 839 157 l 847 157 l 1029 911 m 432 1290 q 428 1304 428 1297 q 449 1328 428 1319 q 506 1338 469 1338 q 557 1328 533 1338 q 588 1301 581 1319 l 667 1104 q 669 1090 669 1099 q 658 1071 669 1078 q 631 1064 647 1064 q 601 1070 615 1064 q 579 1086 588 1076 l 432 1290 z "},"X":{"ha":818,"x_min":42,"x_max":776,"o":"m 610 911 q 653 967 633 950 q 699 985 674 985 q 728 976 715 985 q 740 951 740 967 q 725 910 740 931 l 492 531 l 765 83 q 776 44 776 65 q 761 13 776 26 q 722 0 746 0 q 656 17 681 0 q 610 72 632 33 l 401 426 l 396 426 l 178 75 q 128 15 150 29 q 83 0 107 0 q 52 9 63 0 q 42 31 42 18 q 57 75 42 50 l 335 508 l 97 904 q 88 938 88 919 q 103 971 88 957 q 142 985 119 985 q 250 911 210 985 l 424 603 l 432 603 l 610 911 z "},"Y":{"ha":760,"x_min":25,"x_max":740,"o":"m 372 0 q 307 69 307 0 l 307 372 l 33 901 q 25 936 25 921 q 39 971 25 957 q 75 985 53 985 q 136 969 111 985 q 182 913 161 954 l 403 476 l 408 476 l 617 911 q 701 985 651 985 q 731 972 721 985 q 740 939 740 958 q 733 908 740 922 l 457 372 l 457 83 q 437 17 457 35 q 372 0 417 0 z "},"Ý":{"ha":760,"x_min":25,"x_max":740,"o":"m 372 0 q 307 69 307 0 l 307 372 l 33 901 q 25 936 25 921 q 39 971 25 957 q 75 985 53 985 q 136 969 111 985 q 182 913 161 954 l 403 476 l 408 476 l 617 911 q 701 985 651 985 q 731 972 721 985 q 740 939 740 958 q 733 908 740 922 l 457 372 l 457 83 q 437 17 457 35 q 372 0 417 0 m 418 1086 q 397 1070 411 1076 q 367 1064 382 1064 q 338 1072 349 1064 q 328 1092 328 1079 q 331 1104 328 1096 l 410 1301 q 441 1328 418 1319 q 492 1338 464 1338 q 549 1328 526 1338 q 571 1304 571 1319 q 565 1290 571 1301 l 418 1086 z "},"Ŷ":{"ha":760,"x_min":25,"x_max":740,"o":"m 372 0 q 307 69 307 0 l 307 372 l 33 901 q 25 936 25 921 q 39 971 25 957 q 75 985 53 985 q 136 969 111 985 q 182 913 161 954 l 403 476 l 408 476 l 617 911 q 701 985 651 985 q 731 972 721 985 q 740 939 740 958 q 733 908 740 922 l 457 372 l 457 83 q 437 17 457 35 q 372 0 417 0 m 322 1103 q 232 1061 282 1061 q 194 1070 210 1061 q 179 1090 179 1079 q 185 1103 179 1097 l 326 1250 q 394 1275 350 1275 q 463 1250 440 1275 l 604 1103 q 610 1090 610 1097 q 594 1070 610 1079 q 557 1061 579 1061 q 467 1103 507 1061 l 394 1175 l 322 1103 z "},"Ÿ":{"ha":760,"x_min":25,"x_max":740,"o":"m 372 0 q 307 69 307 0 l 307 372 l 33 901 q 25 936 25 921 q 39 971 25 957 q 75 985 53 985 q 136 969 111 985 q 182 913 161 954 l 403 476 l 408 476 l 617 911 q 701 985 651 985 q 731 972 721 985 q 740 939 740 958 q 733 908 740 922 l 457 372 l 457 83 q 437 17 457 35 q 372 0 417 0 m 156 1183 q 184 1250 156 1221 q 249 1279 213 1279 q 317 1251 288 1279 q 346 1183 346 1222 q 317 1117 346 1146 q 249 1089 288 1089 q 184 1118 213 1089 q 156 1183 156 1147 m 443 1182 q 472 1249 443 1221 q 538 1278 500 1278 q 604 1249 575 1278 q 633 1182 633 1221 q 604 1117 633 1146 q 538 1088 575 1088 q 472 1117 500 1088 q 443 1182 443 1146 z "},"Ỵ":{"ha":760,"x_min":25,"x_max":740,"o":"m 372 0 q 307 69 307 0 l 307 372 l 33 901 q 25 936 25 921 q 39 971 25 957 q 75 985 53 985 q 136 969 111 985 q 182 913 161 954 l 403 476 l 408 476 l 617 911 q 701 985 651 985 q 731 972 721 985 q 740 939 740 958 q 733 908 740 922 l 457 372 l 457 83 q 437 17 457 35 q 372 0 417 0 m 294 -182 q 319 -122 294 -147 q 381 -96 344 -96 q 441 -122 415 -96 q 467 -182 467 -147 q 441 -243 467 -218 q 381 -268 415 -268 q 319 -243 344 -268 q 294 -182 294 -218 z "},"Ỳ":{"ha":760,"x_min":25,"x_max":740,"o":"m 372 0 q 307 69 307 0 l 307 372 l 33 901 q 25 936 25 921 q 39 971 25 957 q 75 985 53 985 q 136 969 111 985 q 182 913 161 954 l 403 476 l 408 476 l 617 911 q 701 985 651 985 q 731 972 721 985 q 740 939 740 958 q 733 908 740 922 l 457 372 l 457 83 q 437 17 457 35 q 372 0 417 0 m 236 1290 q 232 1304 232 1297 q 253 1328 232 1319 q 310 1338 274 1338 q 361 1328 338 1338 q 392 1301 385 1319 l 471 1104 q 474 1090 474 1099 q 463 1071 474 1078 q 435 1064 451 1064 q 406 1070 419 1064 q 383 1086 392 1076 l 236 1290 z "},"Ỷ":{"ha":760,"x_min":25,"x_max":740,"o":"m 372 0 q 307 69 307 0 l 307 372 l 33 901 q 25 936 25 921 q 39 971 25 957 q 75 985 53 985 q 136 969 111 985 q 182 913 161 954 l 403 476 l 408 476 l 617 911 q 701 985 651 985 q 731 972 721 985 q 740 939 740 958 q 733 908 740 922 l 457 372 l 457 83 q 437 17 457 35 q 372 0 417 0 m 368 1099 q 433 1163 419 1146 q 447 1206 447 1181 q 433 1246 447 1231 q 390 1261 418 1261 q 358 1256 371 1261 q 329 1243 346 1251 q 293 1231 307 1231 q 274 1238 282 1231 q 267 1257 267 1246 q 311 1310 267 1290 q 411 1329 356 1329 q 516 1297 482 1329 q 550 1222 550 1265 q 526 1149 550 1183 q 473 1088 501 1115 q 436 1051 444 1060 q 379 1026 413 1026 q 347 1035 360 1026 q 333 1056 333 1043 q 347 1079 333 1067 l 368 1099 z "},"Ȳ":{"ha":760,"x_min":25,"x_max":740,"o":"m 372 0 q 307 69 307 0 l 307 372 l 33 901 q 25 936 25 921 q 39 971 25 957 q 75 985 53 985 q 136 969 111 985 q 182 913 161 954 l 403 476 l 408 476 l 617 911 q 701 985 651 985 q 731 972 721 985 q 740 939 740 958 q 733 908 740 922 l 457 372 l 457 83 q 437 17 457 35 q 372 0 417 0 m 218 1093 q 194 1105 204 1093 q 185 1135 185 1117 q 194 1166 185 1154 q 218 1178 204 1178 l 571 1178 q 594 1166 583 1178 q 604 1135 604 1154 q 595 1104 604 1115 q 571 1093 586 1093 l 218 1093 z "},"Ỹ":{"ha":760,"x_min":25,"x_max":740,"o":"m 372 0 q 307 69 307 0 l 307 372 l 33 901 q 25 936 25 921 q 39 971 25 957 q 75 985 53 985 q 136 969 111 985 q 182 913 161 954 l 403 476 l 408 476 l 617 911 q 701 985 651 985 q 731 972 721 985 q 740 939 740 958 q 733 908 740 922 l 457 372 l 457 83 q 437 17 457 35 q 372 0 417 0 m 301 1129 q 272 1122 281 1129 q 256 1099 263 1114 q 242 1078 249 1085 q 218 1071 235 1071 q 179 1099 179 1071 q 196 1156 179 1125 q 244 1208 213 1186 q 318 1229 276 1229 q 406 1208 360 1225 q 429 1198 411 1206 q 463 1187 447 1190 q 492 1183 478 1183 q 533 1207 521 1183 q 540 1219 535 1210 q 553 1235 544 1229 q 578 1240 563 1240 q 601 1233 593 1240 q 608 1214 608 1225 q 599 1176 608 1196 q 547 1106 578 1128 q 481 1083 515 1083 q 435 1089 456 1083 q 385 1107 414 1094 q 301 1129 325 1129 z "},"Z":{"ha":822,"x_min":56,"x_max":767,"o":"m 118 0 q 72 19 88 0 q 56 68 56 39 q 58 95 56 81 q 67 118 61 110 l 599 911 l 226 911 l 226 833 q 206 764 226 785 q 146 743 186 743 q 101 760 115 743 q 86 813 86 776 l 86 933 q 106 974 86 963 q 169 985 126 985 l 693 985 q 740 964 724 985 q 756 914 756 943 q 753 888 756 901 q 744 867 750 874 l 200 74 l 626 74 l 626 151 q 647 221 626 200 q 707 242 667 242 q 752 225 738 242 q 767 172 767 208 l 767 51 q 747 11 767 22 q 683 0 726 0 l 118 0 z "},"Ź":{"ha":822,"x_min":56,"x_max":767,"o":"m 118 0 q 72 19 88 0 q 56 68 56 39 q 58 95 56 81 q 67 118 61 110 l 599 911 l 226 911 l 226 833 q 206 764 226 785 q 146 743 186 743 q 101 760 115 743 q 86 813 86 776 l 86 933 q 106 974 86 963 q 169 985 126 985 l 693 985 q 740 964 724 985 q 756 914 756 943 q 753 888 756 901 q 744 867 750 874 l 200 74 l 626 74 l 626 151 q 647 221 626 200 q 707 242 667 242 q 752 225 738 242 q 767 172 767 208 l 767 51 q 747 11 767 22 q 683 0 726 0 l 118 0 m 435 1086 q 413 1070 428 1076 q 383 1064 399 1064 q 355 1072 365 1064 q 344 1092 344 1079 q 347 1104 344 1096 l 426 1301 q 458 1328 435 1319 q 508 1338 481 1338 q 565 1328 543 1338 q 588 1304 588 1319 q 582 1290 588 1301 l 435 1086 z "},"Ž":{"ha":822,"x_min":56,"x_max":767,"o":"m 118 0 q 72 19 88 0 q 56 68 56 39 q 58 95 56 81 q 67 118 61 110 l 599 911 l 226 911 l 226 833 q 206 764 226 785 q 146 743 186 743 q 101 760 115 743 q 86 813 86 776 l 86 933 q 106 974 86 963 q 169 985 126 985 l 693 985 q 740 964 724 985 q 756 914 756 943 q 753 888 756 901 q 744 867 750 874 l 200 74 l 626 74 l 626 151 q 647 221 626 200 q 707 242 667 242 q 752 225 738 242 q 767 172 767 208 l 767 51 q 747 11 767 22 q 683 0 726 0 l 118 0 m 488 1233 q 585 1276 532 1276 q 626 1267 610 1276 q 642 1246 642 1258 q 636 1233 642 1239 l 483 1082 q 415 1056 457 1056 q 338 1082 364 1056 l 185 1233 q 179 1246 179 1239 q 195 1267 179 1258 q 236 1276 211 1276 q 333 1233 289 1276 l 410 1158 l 488 1233 z "},"Ż":{"ha":822,"x_min":56,"x_max":767,"o":"m 118 0 q 72 19 88 0 q 56 68 56 39 q 58 95 56 81 q 67 118 61 110 l 599 911 l 226 911 l 226 833 q 206 764 226 785 q 146 743 186 743 q 101 760 115 743 q 86 813 86 776 l 86 933 q 106 974 86 963 q 169 985 126 985 l 693 985 q 740 964 724 985 q 756 914 756 943 q 753 888 756 901 q 744 867 750 874 l 200 74 l 626 74 l 626 151 q 647 221 626 200 q 707 242 667 242 q 752 225 738 242 q 767 172 767 208 l 767 51 q 747 11 767 22 q 683 0 726 0 l 118 0 m 325 1161 q 350 1222 325 1197 q 411 1247 375 1247 q 472 1222 446 1247 q 497 1161 497 1197 q 472 1101 497 1126 q 411 1075 446 1075 q 350 1101 375 1075 q 325 1161 325 1126 z "},"a":{"ha":758,"x_min":60,"x_max":657,"o":"m 514 132 q 409 32 468 64 q 269 0 350 0 q 113 51 167 0 q 60 188 60 101 q 138 362 60 293 q 410 431 217 431 l 511 431 l 511 469 q 478 603 511 564 q 372 642 446 642 q 250 583 303 642 q 165 535 206 535 q 129 548 142 535 q 117 582 117 561 q 136 626 117 608 q 193 660 156 644 q 294 688 238 678 q 400 697 350 697 q 556 669 500 697 q 635 588 613 642 q 657 446 657 533 l 657 65 q 646 16 657 32 q 603 0 635 0 q 538 31 557 0 q 518 131 518 63 l 514 132 m 432 372 q 204 207 204 372 q 325 93 204 93 q 406 112 363 93 q 481 167 450 131 q 513 256 513 204 l 513 372 l 432 372 z "},"á":{"ha":758,"x_min":60,"x_max":657,"o":"m 514 132 q 409 32 468 64 q 269 0 350 0 q 113 51 167 0 q 60 188 60 101 q 138 362 60 293 q 410 431 217 431 l 511 431 l 511 469 q 478 603 511 564 q 372 642 446 642 q 250 583 303 642 q 165 535 206 535 q 129 548 142 535 q 117 582 117 561 q 136 626 117 608 q 193 660 156 644 q 294 688 238 678 q 400 697 350 697 q 556 669 500 697 q 635 588 613 642 q 657 446 657 533 l 657 65 q 646 16 657 32 q 603 0 635 0 q 538 31 557 0 q 518 131 518 63 l 514 132 m 432 372 q 204 207 204 372 q 325 93 204 93 q 406 112 363 93 q 481 167 450 131 q 513 256 513 204 l 513 372 l 432 372 m 408 814 q 386 798 400 804 q 357 792 372 792 q 330 799 340 792 q 319 818 319 806 q 322 831 319 825 l 394 1004 q 425 1031 403 1022 q 474 1040 447 1040 q 528 1031 507 1040 q 549 1007 549 1022 q 544 994 549 999 l 408 814 z "},"ă":{"ha":758,"x_min":60,"x_max":657,"o":"m 514 132 q 409 32 468 64 q 269 0 350 0 q 113 51 167 0 q 60 188 60 101 q 138 362 60 293 q 410 431 217 431 l 511 431 l 511 469 q 478 603 511 564 q 372 642 446 642 q 250 583 303 642 q 165 535 206 535 q 129 548 142 535 q 117 582 117 561 q 136 626 117 608 q 193 660 156 644 q 294 688 238 678 q 400 697 350 697 q 556 669 500 697 q 635 588 613 642 q 657 446 657 533 l 657 65 q 646 16 657 32 q 603 0 635 0 q 538 31 557 0 q 518 131 518 63 l 514 132 m 432 372 q 204 207 204 372 q 325 93 204 93 q 406 112 363 93 q 481 167 450 131 q 513 256 513 204 l 513 372 l 432 372 m 582 949 q 526 823 582 874 q 378 772 469 772 q 231 823 288 772 q 175 949 175 874 q 185 976 175 965 q 213 988 194 988 q 242 977 229 988 q 263 950 256 967 q 308 882 281 900 q 378 864 336 864 q 448 882 419 864 q 494 950 476 900 q 515 977 501 967 q 544 988 528 988 q 572 976 563 988 q 582 949 582 965 z "},"ắ":{"ha":758,"x_min":60,"x_max":657,"o":"m 514 132 q 409 32 468 64 q 269 0 350 0 q 113 51 167 0 q 60 188 60 101 q 138 362 60 293 q 410 431 217 431 l 511 431 l 511 469 q 478 603 511 564 q 372 642 446 642 q 250 583 303 642 q 165 535 206 535 q 129 548 142 535 q 117 582 117 561 q 136 626 117 608 q 193 660 156 644 q 294 688 238 678 q 400 697 350 697 q 556 669 500 697 q 635 588 613 642 q 657 446 657 533 l 657 65 q 646 16 657 32 q 603 0 635 0 q 538 31 557 0 q 518 131 518 63 l 514 132 m 432 372 q 204 207 204 372 q 325 93 204 93 q 406 112 363 93 q 481 167 450 131 q 513 256 513 204 l 513 372 l 432 372 m 582 949 q 526 823 582 874 q 378 772 469 772 q 231 823 288 772 q 175 949 175 874 q 185 976 175 965 q 213 988 194 988 q 242 977 229 988 q 263 950 256 967 q 308 882 281 900 q 378 864 336 864 q 448 882 419 864 q 494 950 476 900 q 515 977 501 967 q 544 988 528 988 q 572 976 563 988 q 582 949 582 965 m 408 979 q 386 963 400 969 q 357 957 372 957 q 330 964 340 957 q 319 983 319 971 q 322 996 319 990 l 394 1169 q 425 1197 403 1188 q 474 1206 447 1206 q 528 1197 507 1206 q 549 1172 549 1188 q 544 1160 549 1164 l 408 979 z "},"ặ":{"ha":758,"x_min":60,"x_max":657,"o":"m 514 132 q 409 32 468 64 q 269 0 350 0 q 113 51 167 0 q 60 188 60 101 q 138 362 60 293 q 410 431 217 431 l 511 431 l 511 469 q 478 603 511 564 q 372 642 446 642 q 250 583 303 642 q 165 535 206 535 q 129 548 142 535 q 117 582 117 561 q 136 626 117 608 q 193 660 156 644 q 294 688 238 678 q 400 697 350 697 q 556 669 500 697 q 635 588 613 642 q 657 446 657 533 l 657 65 q 646 16 657 32 q 603 0 635 0 q 538 31 557 0 q 518 131 518 63 l 514 132 m 432 372 q 204 207 204 372 q 325 93 204 93 q 406 112 363 93 q 481 167 450 131 q 513 256 513 204 l 513 372 l 432 372 m 582 949 q 526 823 582 874 q 378 772 469 772 q 231 823 288 772 q 175 949 175 874 q 185 976 175 965 q 213 988 194 988 q 242 977 229 988 q 263 950 256 967 q 308 882 281 900 q 378 864 336 864 q 448 882 419 864 q 494 950 476 900 q 515 977 501 967 q 544 988 528 988 q 572 976 563 988 q 582 949 582 965 m 293 -182 q 318 -122 293 -147 q 379 -96 343 -96 q 440 -122 414 -96 q 465 -182 465 -147 q 440 -243 465 -218 q 379 -268 414 -268 q 318 -243 343 -268 q 293 -182 293 -218 z "},"ằ":{"ha":758,"x_min":60,"x_max":657,"o":"m 514 132 q 409 32 468 64 q 269 0 350 0 q 113 51 167 0 q 60 188 60 101 q 138 362 60 293 q 410 431 217 431 l 511 431 l 511 469 q 478 603 511 564 q 372 642 446 642 q 250 583 303 642 q 165 535 206 535 q 129 548 142 535 q 117 582 117 561 q 136 626 117 608 q 193 660 156 644 q 294 688 238 678 q 400 697 350 697 q 556 669 500 697 q 635 588 613 642 q 657 446 657 533 l 657 65 q 646 16 657 32 q 603 0 635 0 q 538 31 557 0 q 518 131 518 63 l 514 132 m 432 372 q 204 207 204 372 q 325 93 204 93 q 406 112 363 93 q 481 167 450 131 q 513 256 513 204 l 513 372 l 432 372 m 582 949 q 526 823 582 874 q 378 772 469 772 q 231 823 288 772 q 175 949 175 874 q 185 976 175 965 q 213 988 194 988 q 242 977 229 988 q 263 950 256 967 q 308 882 281 900 q 378 864 336 864 q 448 882 419 864 q 494 950 476 900 q 515 977 501 967 q 544 988 528 988 q 572 976 563 988 q 582 949 582 965 m 189 1160 q 185 1172 185 1164 q 206 1197 185 1188 q 260 1206 226 1206 q 308 1197 286 1206 q 339 1169 331 1188 l 411 996 q 414 983 414 990 q 403 964 414 971 q 376 957 393 957 q 347 963 361 957 q 325 979 333 969 l 189 1160 z "},"ẳ":{"ha":758,"x_min":60,"x_max":657,"o":"m 514 132 q 409 32 468 64 q 269 0 350 0 q 113 51 167 0 q 60 188 60 101 q 138 362 60 293 q 410 431 217 431 l 511 431 l 511 469 q 478 603 511 564 q 372 642 446 642 q 250 583 303 642 q 165 535 206 535 q 129 548 142 535 q 117 582 117 561 q 136 626 117 608 q 193 660 156 644 q 294 688 238 678 q 400 697 350 697 q 556 669 500 697 q 635 588 613 642 q 657 446 657 533 l 657 65 q 646 16 657 32 q 603 0 635 0 q 538 31 557 0 q 518 131 518 63 l 514 132 m 432 372 q 204 207 204 372 q 325 93 204 93 q 406 112 363 93 q 481 167 450 131 q 513 256 513 204 l 513 372 l 432 372 m 582 949 q 526 823 582 874 q 378 772 469 772 q 231 823 288 772 q 175 949 175 874 q 185 976 175 965 q 213 988 194 988 q 242 977 229 988 q 263 950 256 967 q 308 882 281 900 q 378 864 336 864 q 448 882 419 864 q 494 950 476 900 q 515 977 501 967 q 544 988 528 988 q 572 976 563 988 q 582 949 582 965 m 365 1018 q 431 1083 417 1065 q 444 1125 444 1100 q 430 1165 444 1150 q 388 1181 415 1181 q 356 1176 368 1181 q 326 1163 343 1171 q 290 1150 304 1150 q 272 1158 279 1150 q 264 1176 264 1165 q 308 1229 264 1210 q 408 1249 353 1249 q 513 1217 479 1249 q 547 1142 547 1185 q 523 1069 547 1103 q 470 1007 499 1035 q 433 971 442 979 q 376 946 410 946 q 344 954 357 946 q 331 975 331 963 q 344 999 331 986 l 365 1018 z "},"ẵ":{"ha":758,"x_min":60,"x_max":657,"o":"m 514 132 q 409 32 468 64 q 269 0 350 0 q 113 51 167 0 q 60 188 60 101 q 138 362 60 293 q 410 431 217 431 l 511 431 l 511 469 q 478 603 511 564 q 372 642 446 642 q 250 583 303 642 q 165 535 206 535 q 129 548 142 535 q 117 582 117 561 q 136 626 117 608 q 193 660 156 644 q 294 688 238 678 q 400 697 350 697 q 556 669 500 697 q 635 588 613 642 q 657 446 657 533 l 657 65 q 646 16 657 32 q 603 0 635 0 q 538 31 557 0 q 518 131 518 63 l 514 132 m 432 372 q 204 207 204 372 q 325 93 204 93 q 406 112 363 93 q 481 167 450 131 q 513 256 513 204 l 513 372 l 432 372 m 582 949 q 526 823 582 874 q 378 772 469 772 q 231 823 288 772 q 175 949 175 874 q 185 976 175 965 q 213 988 194 988 q 242 977 229 988 q 263 950 256 967 q 308 882 281 900 q 378 864 336 864 q 448 882 419 864 q 494 950 476 900 q 515 977 501 967 q 544 988 528 988 q 572 976 563 988 q 582 949 582 965 m 294 1104 q 265 1097 274 1104 q 249 1074 256 1089 q 235 1053 242 1060 q 211 1046 228 1046 q 172 1074 172 1046 q 189 1131 172 1100 q 238 1183 206 1161 q 311 1204 269 1204 q 399 1183 353 1200 q 422 1173 404 1181 q 456 1162 440 1165 q 485 1158 471 1158 q 526 1182 514 1158 q 533 1194 528 1185 q 547 1210 538 1204 q 571 1215 556 1215 q 594 1208 586 1215 q 601 1189 601 1200 q 592 1151 601 1171 q 540 1081 571 1103 q 474 1058 508 1058 q 428 1064 449 1058 q 378 1082 407 1069 q 294 1104 318 1104 z "},"â":{"ha":758,"x_min":60,"x_max":657,"o":"m 514 132 q 409 32 468 64 q 269 0 350 0 q 113 51 167 0 q 60 188 60 101 q 138 362 60 293 q 410 431 217 431 l 511 431 l 511 469 q 478 603 511 564 q 372 642 446 642 q 250 583 303 642 q 165 535 206 535 q 129 548 142 535 q 117 582 117 561 q 136 626 117 608 q 193 660 156 644 q 294 688 238 678 q 400 697 350 697 q 556 669 500 697 q 635 588 613 642 q 657 446 657 533 l 657 65 q 646 16 657 32 q 603 0 635 0 q 538 31 557 0 q 518 131 518 63 l 514 132 m 432 372 q 204 207 204 372 q 325 93 204 93 q 406 112 363 93 q 481 167 450 131 q 513 256 513 204 l 513 372 l 432 372 m 307 815 q 217 774 267 774 q 179 783 194 774 q 164 803 164 792 q 169 815 164 810 l 311 963 q 379 988 335 988 q 447 963 425 988 l 589 815 q 594 803 594 810 q 579 783 594 792 q 542 774 564 774 q 451 815 492 774 l 379 888 l 307 815 z "},"ấ":{"ha":758,"x_min":60,"x_max":710,"o":"m 585 946 q 538 926 568 926 q 514 933 524 926 q 504 950 504 939 q 507 961 504 957 l 572 1118 q 599 1142 579 1133 q 643 1150 618 1150 q 692 1142 674 1150 q 710 1119 710 1133 q 707 1108 710 1111 l 585 946 m 307 815 q 217 774 267 774 q 179 783 194 774 q 164 803 164 792 q 169 815 164 810 l 311 963 q 379 988 333 988 q 447 963 425 988 l 589 815 q 594 803 594 810 q 579 783 594 792 q 542 774 564 774 q 451 815 492 774 l 379 888 l 307 815 m 514 132 q 409 32 468 64 q 269 0 350 0 q 113 51 167 0 q 60 188 60 101 q 138 362 60 293 q 410 431 217 431 l 511 431 l 511 469 q 478 603 511 564 q 372 642 446 642 q 250 583 303 642 q 165 535 206 535 q 129 548 142 535 q 117 582 117 561 q 136 626 117 608 q 193 660 156 644 q 294 688 238 678 q 400 697 350 697 q 556 669 500 697 q 635 588 613 642 q 657 446 657 533 l 657 65 q 646 16 657 32 q 603 0 635 0 q 538 31 557 0 q 518 131 518 63 l 514 132 m 432 372 q 204 207 204 372 q 325 93 204 93 q 406 112 363 93 q 481 167 450 131 q 513 256 513 204 l 513 372 l 432 372 z "},"ậ":{"ha":758,"x_min":60,"x_max":657,"o":"m 514 132 q 409 32 468 64 q 269 0 350 0 q 113 51 167 0 q 60 188 60 101 q 138 362 60 293 q 410 431 217 431 l 511 431 l 511 469 q 478 603 511 564 q 372 642 446 642 q 250 583 303 642 q 165 535 206 535 q 129 548 142 535 q 117 582 117 561 q 136 626 117 608 q 193 660 156 644 q 294 688 238 678 q 400 697 350 697 q 556 669 500 697 q 635 588 613 642 q 657 446 657 533 l 657 65 q 646 16 657 32 q 603 0 635 0 q 538 31 557 0 q 518 131 518 63 l 514 132 m 432 372 q 204 207 204 372 q 325 93 204 93 q 406 112 363 93 q 481 167 450 131 q 513 256 513 204 l 513 372 l 432 372 m 307 815 q 217 774 267 774 q 179 783 194 774 q 164 803 164 792 q 169 815 164 810 l 311 963 q 379 988 335 988 q 447 963 425 988 l 589 815 q 594 803 594 810 q 579 783 594 792 q 542 774 564 774 q 451 815 492 774 l 379 888 l 307 815 m 293 -182 q 318 -122 293 -147 q 379 -96 343 -96 q 440 -122 414 -96 q 465 -182 465 -147 q 440 -243 465 -218 q 379 -268 414 -268 q 318 -243 343 -268 q 293 -182 293 -218 z "},"ầ":{"ha":758,"x_min":60,"x_max":657,"o":"m 403 1108 q 400 1119 400 1111 q 418 1142 400 1133 q 467 1150 436 1150 q 511 1142 492 1150 q 538 1118 531 1133 l 603 961 q 606 950 606 957 q 596 933 606 939 q 572 926 586 926 q 525 946 542 926 l 403 1108 m 307 815 q 217 774 267 774 q 179 783 194 774 q 164 803 164 792 q 169 815 164 810 l 311 963 q 379 988 333 988 q 447 963 425 988 l 589 815 q 594 803 594 810 q 579 783 594 792 q 542 774 564 774 q 451 815 492 774 l 379 888 l 307 815 m 514 132 q 409 32 468 64 q 269 0 350 0 q 113 51 167 0 q 60 188 60 101 q 138 362 60 293 q 410 431 217 431 l 511 431 l 511 469 q 478 603 511 564 q 372 642 446 642 q 250 583 303 642 q 165 535 206 535 q 129 548 142 535 q 117 582 117 561 q 136 626 117 608 q 193 660 156 644 q 294 688 238 678 q 400 697 350 697 q 556 669 500 697 q 635 588 613 642 q 657 446 657 533 l 657 65 q 646 16 657 32 q 603 0 635 0 q 538 31 557 0 q 518 131 518 63 l 514 132 m 432 372 q 204 207 204 372 q 325 93 204 93 q 406 112 363 93 q 481 167 450 131 q 513 256 513 204 l 513 372 l 432 372 z "},"ẩ":{"ha":758,"x_min":60,"x_max":738,"o":"m 514 132 q 409 32 468 64 q 269 0 350 0 q 113 51 167 0 q 60 188 60 101 q 138 362 60 293 q 410 431 217 431 l 511 431 l 511 469 q 478 603 511 564 q 372 642 446 642 q 250 583 303 642 q 165 535 206 535 q 129 548 142 535 q 117 582 117 561 q 136 626 117 608 q 193 660 156 644 q 294 688 238 678 q 400 697 350 697 q 556 669 500 697 q 635 588 613 642 q 657 446 657 533 l 657 65 q 646 16 657 32 q 603 0 635 0 q 538 31 557 0 q 518 131 518 63 l 514 132 m 432 372 q 204 207 204 372 q 325 93 204 93 q 406 112 363 93 q 481 167 450 131 q 513 256 513 204 l 513 372 l 432 372 m 307 815 q 217 774 267 774 q 179 783 194 774 q 164 803 164 792 q 169 815 164 810 l 311 963 q 379 988 335 988 q 447 963 425 988 l 589 815 q 594 803 594 810 q 579 783 594 792 q 542 774 564 774 q 451 815 492 774 l 379 888 l 307 815 m 556 981 q 621 1045 607 1028 q 635 1088 635 1063 q 620 1128 635 1113 q 578 1143 606 1143 q 546 1138 558 1143 q 517 1125 533 1133 q 481 1113 494 1113 q 462 1120 469 1113 q 454 1139 454 1128 q 499 1192 454 1172 q 599 1211 543 1211 q 703 1179 669 1211 q 738 1104 738 1147 q 713 1031 738 1065 q 660 969 689 997 q 624 933 632 942 q 567 908 600 908 q 534 917 547 908 q 521 938 521 925 q 535 961 521 949 l 556 981 z "},"ẫ":{"ha":758,"x_min":60,"x_max":657,"o":"m 514 132 q 409 32 468 64 q 269 0 350 0 q 113 51 167 0 q 60 188 60 101 q 138 362 60 293 q 410 431 217 431 l 511 431 l 511 469 q 478 603 511 564 q 372 642 446 642 q 250 583 303 642 q 165 535 206 535 q 129 548 142 535 q 117 582 117 561 q 136 626 117 608 q 193 660 156 644 q 294 688 238 678 q 400 697 350 697 q 556 669 500 697 q 635 588 613 642 q 657 446 657 533 l 657 65 q 646 16 657 32 q 603 0 635 0 q 538 31 557 0 q 518 131 518 63 l 514 132 m 432 372 q 204 207 204 372 q 325 93 204 93 q 406 112 363 93 q 481 167 450 131 q 513 256 513 204 l 513 372 l 432 372 m 307 815 q 217 774 267 774 q 179 783 194 774 q 164 803 164 792 q 169 815 164 810 l 311 963 q 379 988 335 988 q 447 963 425 988 l 589 815 q 594 803 594 810 q 579 783 594 792 q 542 774 564 774 q 451 815 492 774 l 379 888 l 307 815 m 286 1076 q 256 1069 265 1076 q 240 1046 247 1061 q 226 1025 233 1032 q 203 1018 219 1018 q 164 1046 164 1018 q 181 1103 164 1072 q 229 1155 197 1133 q 303 1176 261 1176 q 390 1156 344 1172 q 414 1145 396 1153 q 447 1134 432 1138 q 476 1131 463 1131 q 518 1154 506 1131 q 524 1167 519 1157 q 538 1182 529 1176 q 563 1188 547 1188 q 585 1180 578 1188 q 593 1161 593 1172 q 583 1124 593 1143 q 531 1053 563 1075 q 465 1031 500 1031 q 419 1036 440 1031 q 369 1054 399 1042 q 286 1076 310 1076 z "},"ȁ":{"ha":758,"x_min":60,"x_max":657,"o":"m 156 994 q 151 1007 151 999 q 170 1031 151 1022 q 219 1040 189 1040 q 263 1031 243 1040 q 290 1004 283 1022 l 356 831 q 357 818 357 825 q 348 799 357 806 q 324 792 339 792 q 298 798 311 792 q 278 814 285 804 l 156 994 m 350 994 q 346 1007 346 999 q 365 1031 346 1022 q 414 1040 383 1040 q 458 1031 438 1040 q 485 1004 478 1022 l 550 831 q 551 818 551 825 q 542 799 551 806 q 518 792 533 792 q 492 798 506 792 q 472 814 479 804 l 350 994 m 514 132 q 409 32 468 64 q 269 0 350 0 q 113 51 167 0 q 60 188 60 101 q 138 362 60 293 q 410 431 217 431 l 511 431 l 511 469 q 478 603 511 564 q 372 642 446 642 q 250 583 303 642 q 165 535 206 535 q 129 548 142 535 q 117 582 117 561 q 136 626 117 608 q 193 660 156 644 q 294 688 238 678 q 400 697 350 697 q 556 669 500 697 q 635 588 613 642 q 657 446 657 533 l 657 65 q 646 16 657 32 q 603 0 635 0 q 538 31 557 0 q 518 131 518 63 l 514 132 m 432 372 q 204 207 204 372 q 325 93 204 93 q 406 112 363 93 q 481 167 450 131 q 513 256 513 204 l 513 372 l 432 372 z "},"ä":{"ha":758,"x_min":60,"x_max":657,"o":"m 514 132 q 409 32 468 64 q 269 0 350 0 q 113 51 167 0 q 60 188 60 101 q 138 362 60 293 q 410 431 217 431 l 511 431 l 511 469 q 478 603 511 564 q 372 642 446 642 q 250 583 303 642 q 165 535 206 535 q 129 548 142 535 q 117 582 117 561 q 136 626 117 608 q 193 660 156 644 q 294 688 238 678 q 400 697 350 697 q 556 669 500 697 q 635 588 613 642 q 657 446 657 533 l 657 65 q 646 16 657 32 q 603 0 635 0 q 538 31 557 0 q 518 131 518 63 l 514 132 m 432 372 q 204 207 204 372 q 325 93 204 93 q 406 112 363 93 q 481 167 450 131 q 513 256 513 204 l 513 372 l 432 372 m 158 872 q 183 932 158 907 q 243 957 208 957 q 303 932 278 957 q 328 872 328 907 q 303 813 328 838 q 243 788 278 788 q 183 813 208 788 q 158 872 158 838 m 431 872 q 456 932 431 907 q 515 957 481 957 q 575 932 550 957 q 600 872 600 907 q 575 813 600 838 q 515 788 550 788 q 456 813 481 788 q 431 872 431 838 z "},"ạ":{"ha":758,"x_min":60,"x_max":657,"o":"m 514 132 q 409 32 468 64 q 269 0 350 0 q 113 51 167 0 q 60 188 60 101 q 138 362 60 293 q 410 431 217 431 l 511 431 l 511 469 q 478 603 511 564 q 372 642 446 642 q 250 583 303 642 q 165 535 206 535 q 129 548 142 535 q 117 582 117 561 q 136 626 117 608 q 193 660 156 644 q 294 688 238 678 q 400 697 350 697 q 556 669 500 697 q 635 588 613 642 q 657 446 657 533 l 657 65 q 646 16 657 32 q 603 0 635 0 q 538 31 557 0 q 518 131 518 63 l 514 132 m 432 372 q 204 207 204 372 q 325 93 204 93 q 406 112 363 93 q 481 167 450 131 q 513 256 513 204 l 513 372 l 432 372 m 293 -182 q 318 -122 293 -147 q 379 -96 343 -96 q 440 -122 414 -96 q 465 -182 465 -147 q 440 -243 465 -218 q 379 -268 414 -268 q 318 -243 343 -268 q 293 -182 293 -218 z "},"à":{"ha":758,"x_min":60,"x_max":657,"o":"m 514 132 q 409 32 468 64 q 269 0 350 0 q 113 51 167 0 q 60 188 60 101 q 138 362 60 293 q 410 431 217 431 l 511 431 l 511 469 q 478 603 511 564 q 372 642 446 642 q 250 583 303 642 q 165 535 206 535 q 129 548 142 535 q 117 582 117 561 q 136 626 117 608 q 193 660 156 644 q 294 688 238 678 q 400 697 350 697 q 556 669 500 697 q 635 588 613 642 q 657 446 657 533 l 657 65 q 646 16 657 32 q 603 0 635 0 q 538 31 557 0 q 518 131 518 63 l 514 132 m 432 372 q 204 207 204 372 q 325 93 204 93 q 406 112 363 93 q 481 167 450 131 q 513 256 513 204 l 513 372 l 432 372 m 189 994 q 185 1007 185 999 q 206 1031 185 1022 q 260 1040 226 1040 q 308 1031 286 1040 q 339 1004 331 1022 l 411 831 q 414 818 414 825 q 403 799 414 806 q 376 792 393 792 q 347 798 361 792 q 325 814 333 804 l 189 994 z "},"ả":{"ha":758,"x_min":60,"x_max":657,"o":"m 514 132 q 409 32 468 64 q 269 0 350 0 q 113 51 167 0 q 60 188 60 101 q 138 362 60 293 q 410 431 217 431 l 511 431 l 511 469 q 478 603 511 564 q 372 642 446 642 q 250 583 303 642 q 165 535 206 535 q 129 548 142 535 q 117 582 117 561 q 136 626 117 608 q 193 660 156 644 q 294 688 238 678 q 400 697 350 697 q 556 669 500 697 q 635 588 613 642 q 657 446 657 533 l 657 65 q 646 16 657 32 q 603 0 635 0 q 538 31 557 0 q 518 131 518 63 l 514 132 m 432 372 q 204 207 204 372 q 325 93 204 93 q 406 112 363 93 q 481 167 450 131 q 513 256 513 204 l 513 372 l 432 372 m 353 811 q 418 876 404 858 q 432 918 432 893 q 417 958 432 943 q 375 974 403 974 q 343 969 356 974 q 314 956 331 964 q 278 943 292 943 q 259 951 267 943 q 251 969 251 958 q 296 1022 251 1003 q 396 1042 340 1042 q 501 1010 467 1042 q 535 935 535 978 q 510 862 535 896 q 458 800 486 828 q 421 764 429 772 q 364 739 397 739 q 331 747 344 739 q 318 768 318 756 q 332 792 318 779 l 353 811 z "},"ȃ":{"ha":758,"x_min":60,"x_max":657,"o":"m 514 132 q 409 32 468 64 q 269 0 350 0 q 113 51 167 0 q 60 188 60 101 q 138 362 60 293 q 410 431 217 431 l 511 431 l 511 469 q 478 603 511 564 q 372 642 446 642 q 250 583 303 642 q 165 535 206 535 q 129 548 142 535 q 117 582 117 561 q 136 626 117 608 q 193 660 156 644 q 294 688 238 678 q 400 697 350 697 q 556 669 500 697 q 635 588 613 642 q 657 446 657 533 l 657 65 q 646 16 657 32 q 603 0 635 0 q 538 31 557 0 q 518 131 518 63 l 514 132 m 432 372 q 204 207 204 372 q 325 93 204 93 q 406 112 363 93 q 481 167 450 131 q 513 256 513 204 l 513 372 l 432 372 m 582 811 q 572 783 582 794 q 544 772 563 772 q 515 783 528 772 q 494 810 501 793 q 448 878 476 860 q 378 896 419 896 q 308 878 336 896 q 263 810 281 860 q 242 783 256 793 q 213 772 229 772 q 185 783 194 772 q 175 811 175 794 q 231 937 175 886 q 378 988 288 988 q 526 937 469 988 q 582 811 582 886 z "},"ā":{"ha":758,"x_min":60,"x_max":657,"o":"m 514 132 q 409 32 468 64 q 269 0 350 0 q 113 51 167 0 q 60 188 60 101 q 138 362 60 293 q 410 431 217 431 l 511 431 l 511 469 q 478 603 511 564 q 372 642 446 642 q 250 583 303 642 q 165 535 206 535 q 129 548 142 535 q 117 582 117 561 q 136 626 117 608 q 193 660 156 644 q 294 688 238 678 q 400 697 350 697 q 556 669 500 697 q 635 588 613 642 q 657 446 657 533 l 657 65 q 646 16 657 32 q 603 0 635 0 q 538 31 557 0 q 518 131 518 63 l 514 132 m 432 372 q 204 207 204 372 q 325 93 204 93 q 406 112 363 93 q 481 167 450 131 q 513 256 513 204 l 513 372 l 432 372 m 203 829 q 179 841 189 829 q 169 871 169 853 q 179 902 169 890 q 203 914 189 914 l 556 914 q 578 902 568 914 q 589 871 589 890 q 580 840 589 851 q 556 829 571 829 l 203 829 z "},"ą":{"ha":758,"x_min":60,"x_max":826,"o":"m 514 132 q 409 32 468 64 q 269 0 350 0 q 113 51 167 0 q 60 188 60 101 q 138 362 60 293 q 410 431 217 431 l 511 431 l 511 469 q 478 603 511 564 q 372 642 446 642 q 250 583 303 642 q 165 535 206 535 q 129 548 142 535 q 117 582 117 561 q 136 626 117 608 q 193 660 156 644 q 294 688 238 678 q 400 697 350 697 q 556 669 500 697 q 635 588 613 642 q 657 446 657 533 l 657 65 q 646 16 657 32 q 603 0 635 0 q 538 31 557 0 q 518 131 518 63 l 514 132 m 432 372 q 204 207 204 372 q 325 93 204 93 q 406 112 363 93 q 481 167 450 131 q 513 256 513 204 l 513 372 l 432 372 m 756 14 q 649 -149 649 -75 q 665 -192 649 -175 q 707 -208 681 -208 q 740 -203 726 -208 q 767 -190 753 -199 q 800 -178 785 -178 q 819 -185 811 -178 q 826 -204 826 -193 q 777 -257 826 -237 q 674 -276 728 -276 q 575 -243 607 -276 q 543 -162 543 -210 q 682 14 543 -65 l 756 14 z "},"å":{"ha":758,"x_min":60,"x_max":657,"o":"m 514 132 q 409 32 468 64 q 269 0 350 0 q 113 51 167 0 q 60 188 60 101 q 138 362 60 293 q 410 431 217 431 l 511 431 l 511 469 q 478 603 511 564 q 372 642 446 642 q 250 583 303 642 q 165 535 206 535 q 129 548 142 535 q 117 582 117 561 q 136 626 117 608 q 193 660 156 644 q 294 688 238 678 q 400 697 350 697 q 556 669 500 697 q 635 588 613 642 q 657 446 657 533 l 657 65 q 646 16 657 32 q 603 0 635 0 q 538 31 557 0 q 518 131 518 63 l 514 132 m 432 372 q 204 207 204 372 q 325 93 204 93 q 406 112 363 93 q 481 167 450 131 q 513 256 513 204 l 513 372 l 432 372 m 229 919 q 272 1026 229 983 q 379 1069 315 1069 q 485 1026 442 1069 q 529 919 529 983 q 485 813 529 857 q 379 769 442 769 q 272 813 315 769 q 229 919 229 857 m 306 919 q 328 869 306 890 q 379 847 350 847 q 429 869 407 847 q 451 919 451 890 q 429 971 451 949 q 379 993 407 993 q 328 971 350 993 q 306 919 306 949 z "},"ǻ":{"ha":758,"x_min":60,"x_max":699,"o":"m 574 1068 q 526 1049 557 1049 q 503 1055 513 1049 q 493 1072 493 1061 q 496 1083 493 1079 l 561 1240 q 588 1264 568 1256 q 632 1272 607 1272 q 681 1264 663 1272 q 699 1242 699 1256 q 696 1231 699 1233 l 574 1068 m 229 919 q 272 1026 229 983 q 379 1069 315 1069 q 485 1026 442 1069 q 529 919 529 983 q 485 813 529 857 q 379 769 442 769 q 272 813 315 769 q 229 919 229 857 m 306 919 q 328 869 306 890 q 379 847 350 847 q 429 869 407 847 q 451 919 451 890 q 429 971 451 949 q 379 993 407 993 q 328 971 350 993 q 306 919 306 949 m 514 132 q 409 32 468 64 q 269 0 350 0 q 113 51 167 0 q 60 188 60 101 q 138 362 60 293 q 410 431 217 431 l 511 431 l 511 469 q 478 603 511 564 q 372 642 446 642 q 250 583 303 642 q 165 535 206 535 q 129 548 142 535 q 117 582 117 561 q 136 626 117 608 q 193 660 156 644 q 294 688 238 678 q 400 697 350 697 q 556 669 500 697 q 635 588 613 642 q 657 446 657 533 l 657 65 q 646 16 657 32 q 603 0 635 0 q 538 31 557 0 q 518 131 518 63 l 514 132 m 432 372 q 204 207 204 372 q 325 93 204 93 q 406 112 363 93 q 481 167 450 131 q 513 256 513 204 l 513 372 l 432 372 z "},"ã":{"ha":758,"x_min":60,"x_max":657,"o":"m 514 132 q 409 32 468 64 q 269 0 350 0 q 113 51 167 0 q 60 188 60 101 q 138 362 60 293 q 410 431 217 431 l 511 431 l 511 469 q 478 603 511 564 q 372 642 446 642 q 250 583 303 642 q 165 535 206 535 q 129 548 142 535 q 117 582 117 561 q 136 626 117 608 q 193 660 156 644 q 294 688 238 678 q 400 697 350 697 q 556 669 500 697 q 635 588 613 642 q 657 446 657 533 l 657 65 q 646 16 657 32 q 603 0 635 0 q 538 31 557 0 q 518 131 518 63 l 514 132 m 432 372 q 204 207 204 372 q 325 93 204 93 q 406 112 363 93 q 481 167 450 131 q 513 256 513 204 l 513 372 l 432 372 m 286 842 q 256 834 265 842 q 240 811 247 826 q 226 790 233 797 q 203 783 219 783 q 164 811 164 783 q 181 868 164 838 q 229 920 197 899 q 303 942 261 942 q 390 921 344 938 q 414 910 396 918 q 447 899 432 903 q 476 896 463 896 q 518 919 506 896 q 524 932 519 922 q 538 947 529 942 q 563 953 547 953 q 585 945 578 953 q 593 926 593 938 q 583 889 593 908 q 531 818 563 840 q 465 796 500 796 q 419 801 440 796 q 369 819 399 807 q 286 842 310 842 z "},"æ":{"ha":1172,"x_min":60,"x_max":1117,"o":"m 1082 190 q 1104 182 1094 190 q 1114 161 1114 174 q 1096 114 1114 136 q 840 0 1004 0 q 682 40 746 0 q 586 156 618 81 q 460 40 544 81 q 283 0 375 0 q 115 50 171 0 q 60 188 60 100 q 138 362 60 293 q 410 431 217 431 l 511 431 l 511 469 q 478 603 511 564 q 372 642 446 642 q 250 583 303 642 q 165 535 206 535 q 129 548 142 535 q 117 582 117 561 q 136 626 117 608 q 193 660 156 644 q 294 688 238 678 q 400 697 350 697 q 534 665 488 697 q 599 560 581 633 q 838 697 668 697 q 1040 625 964 697 q 1117 418 1117 553 q 1038 350 1117 350 l 664 350 q 663 319 663 339 q 710 131 663 200 q 856 61 757 61 q 958 88 919 61 q 1018 140 996 114 q 1047 175 1040 167 q 1082 190 1061 190 m 829 642 q 719 585 763 642 q 668 408 676 528 l 928 408 q 964 417 953 408 q 975 449 975 426 q 931 592 975 542 q 829 642 888 642 m 513 372 l 432 372 q 204 207 204 372 q 325 93 204 93 q 406 112 363 93 q 481 167 450 131 q 513 256 513 204 l 513 372 z "},"ǽ":{"ha":1172,"x_min":60,"x_max":1117,"o":"m 1082 190 q 1104 182 1094 190 q 1114 161 1114 174 q 1096 114 1114 136 q 840 0 1004 0 q 682 40 746 0 q 586 156 618 81 q 460 40 544 81 q 283 0 375 0 q 115 50 171 0 q 60 188 60 100 q 138 362 60 293 q 410 431 217 431 l 511 431 l 511 469 q 478 603 511 564 q 372 642 446 642 q 250 583 303 642 q 165 535 206 535 q 129 548 142 535 q 117 582 117 561 q 136 626 117 608 q 193 660 156 644 q 294 688 238 678 q 400 697 350 697 q 534 665 488 697 q 599 560 581 633 q 838 697 668 697 q 1040 625 964 697 q 1117 418 1117 553 q 1038 350 1117 350 l 664 350 q 663 319 663 339 q 710 131 663 200 q 856 61 757 61 q 958 88 919 61 q 1018 140 996 114 q 1047 175 1040 167 q 1082 190 1061 190 m 829 642 q 719 585 763 642 q 668 408 676 528 l 928 408 q 964 417 953 408 q 975 449 975 426 q 931 592 975 542 q 829 642 888 642 m 513 372 l 432 372 q 204 207 204 372 q 325 93 204 93 q 406 112 363 93 q 481 167 450 131 q 513 256 513 204 l 513 372 m 601 814 q 579 798 593 804 q 550 792 565 792 q 523 799 533 792 q 513 818 513 806 q 515 831 513 825 l 588 1004 q 618 1031 596 1022 q 667 1040 640 1040 q 721 1031 700 1040 q 742 1007 742 1022 q 738 994 742 999 l 601 814 z "},"b":{"ha":786,"x_min":111,"x_max":713,"o":"m 258 569 q 475 697 329 697 q 647 629 582 697 q 713 383 713 561 q 625 99 713 197 q 382 0 538 0 q 203 32 286 0 q 135 74 160 47 q 111 153 111 100 l 111 990 q 123 1040 111 1024 q 167 1056 135 1056 q 235 1029 214 1056 q 256 942 256 1003 l 256 569 l 258 569 m 254 129 q 288 77 254 99 q 382 56 322 56 q 563 372 563 56 q 525 556 563 507 q 419 604 488 604 q 346 581 385 604 q 281 522 307 558 q 254 447 254 486 l 254 129 z "},"c":{"ha":681,"x_min":69,"x_max":653,"o":"m 586 175 q 621 190 600 190 q 643 182 633 190 q 653 161 653 174 q 635 114 653 136 q 383 0 543 0 q 144 93 218 0 q 69 347 69 186 q 160 613 69 529 q 399 697 250 697 q 561 656 490 697 q 638 549 638 610 q 619 509 638 524 q 579 494 601 494 q 531 509 549 494 q 504 553 514 524 q 466 617 490 593 q 396 642 442 642 q 263 576 306 642 q 219 347 219 510 q 260 133 219 204 q 399 61 301 61 q 501 88 464 61 q 560 141 539 114 q 586 175 581 168 z "},"ć":{"ha":681,"x_min":69,"x_max":653,"o":"m 586 175 q 621 190 600 190 q 643 182 633 190 q 653 161 653 174 q 635 114 653 136 q 383 0 543 0 q 144 93 218 0 q 69 347 69 186 q 160 613 69 529 q 399 697 250 697 q 561 656 490 697 q 638 549 638 610 q 619 509 638 524 q 579 494 601 494 q 531 509 549 494 q 504 553 514 524 q 466 617 490 593 q 396 642 442 642 q 263 576 306 642 q 219 347 219 510 q 260 133 219 204 q 399 61 301 61 q 501 88 464 61 q 560 141 539 114 q 586 175 581 168 m 425 814 q 403 798 417 804 q 374 792 389 792 q 347 799 357 792 q 336 818 336 806 q 339 831 336 825 l 411 1004 q 442 1031 419 1022 q 490 1040 464 1040 q 544 1031 524 1040 q 565 1007 565 1022 q 561 994 565 999 l 425 814 z "},"č":{"ha":681,"x_min":69,"x_max":653,"o":"m 586 175 q 621 190 600 190 q 643 182 633 190 q 653 161 653 174 q 635 114 653 136 q 383 0 543 0 q 144 93 218 0 q 69 347 69 186 q 160 613 69 529 q 399 697 250 697 q 561 656 490 697 q 638 549 638 610 q 619 509 638 524 q 579 494 601 494 q 531 509 549 494 q 504 553 514 524 q 466 617 490 593 q 396 642 442 642 q 263 576 306 642 q 219 347 219 510 q 260 133 219 204 q 399 61 301 61 q 501 88 464 61 q 560 141 539 114 q 586 175 581 168 m 468 946 q 558 988 508 988 q 596 978 581 988 q 611 958 611 969 q 606 946 611 951 l 464 799 q 396 774 442 774 q 328 799 350 774 l 186 946 q 181 958 181 951 q 196 978 181 969 q 233 988 211 988 q 324 946 283 988 l 396 874 l 468 946 z "},"ç":{"ha":681,"x_min":69,"x_max":653,"o":"m 621 190 q 643 182 633 190 q 653 161 653 174 q 635 114 653 136 q 433 3 557 17 l 433 -53 q 574 -156 574 -53 q 531 -243 574 -211 q 419 -275 488 -275 q 335 -260 376 -275 q 293 -218 293 -244 q 301 -199 293 -207 q 322 -192 310 -192 q 354 -199 333 -192 q 403 -207 385 -207 q 452 -193 436 -207 q 468 -160 468 -179 q 443 -115 468 -125 q 361 -104 418 -104 l 361 0 q 139 100 208 7 q 69 347 69 193 q 160 613 69 529 q 399 697 250 697 q 561 656 490 697 q 638 549 638 610 q 619 509 638 524 q 579 494 601 494 q 531 509 549 494 q 504 553 514 524 q 466 617 490 593 q 396 642 442 642 q 263 576 306 642 q 219 347 219 510 q 260 133 219 204 q 399 61 301 61 q 501 88 464 61 q 560 141 539 114 q 586 175 581 168 q 621 190 600 190 z "},"ĉ":{"ha":681,"x_min":69,"x_max":653,"o":"m 586 175 q 621 190 600 190 q 643 182 633 190 q 653 161 653 174 q 635 114 653 136 q 383 0 543 0 q 144 93 218 0 q 69 347 69 186 q 160 613 69 529 q 399 697 250 697 q 561 656 490 697 q 638 549 638 610 q 619 509 638 524 q 579 494 601 494 q 531 509 549 494 q 504 553 514 524 q 466 617 490 593 q 396 642 442 642 q 263 576 306 642 q 219 347 219 510 q 260 133 219 204 q 399 61 301 61 q 501 88 464 61 q 560 141 539 114 q 586 175 581 168 m 324 815 q 233 774 283 774 q 196 783 211 774 q 181 803 181 792 q 186 815 181 810 l 328 963 q 396 988 351 988 q 464 963 442 988 l 606 815 q 611 803 611 810 q 596 783 611 792 q 558 774 581 774 q 468 815 508 774 l 396 888 l 324 815 z "},"ċ":{"ha":681,"x_min":69,"x_max":653,"o":"m 586 175 q 621 190 600 190 q 643 182 633 190 q 653 161 653 174 q 635 114 653 136 q 383 0 543 0 q 144 93 218 0 q 69 347 69 186 q 160 613 69 529 q 399 697 250 697 q 561 656 490 697 q 638 549 638 610 q 619 509 638 524 q 579 494 601 494 q 531 509 549 494 q 504 553 514 524 q 466 617 490 593 q 396 642 442 642 q 263 576 306 642 q 219 347 219 510 q 260 133 219 204 q 399 61 301 61 q 501 88 464 61 q 560 141 539 114 q 586 175 581 168 m 310 874 q 335 935 310 910 q 396 960 360 960 q 456 935 431 960 q 482 874 482 910 q 456 813 482 839 q 396 788 431 788 q 335 813 360 788 q 310 874 310 839 z "},"d":{"ha":782,"x_min":69,"x_max":671,"o":"m 400 697 q 526 674 468 697 l 526 942 q 547 1029 526 1003 q 615 1056 568 1056 q 659 1040 647 1056 q 671 990 671 1024 l 671 65 q 660 16 671 32 q 617 0 649 0 q 532 144 532 0 l 528 146 q 436 40 488 79 q 307 0 385 0 q 138 76 206 0 q 69 318 69 151 q 156 605 69 513 q 400 697 242 697 m 219 329 q 259 149 219 204 q 363 93 299 93 q 439 120 400 93 q 503 188 478 147 q 528 269 528 229 l 528 560 q 493 616 528 590 q 400 642 458 642 q 265 573 311 642 q 219 329 219 504 z "},"ð":{"ha":801,"x_min":69,"x_max":715,"o":"m 588 928 q 707 476 707 781 q 631 138 707 275 q 382 0 554 0 q 153 93 236 0 q 69 346 69 186 q 106 526 69 447 q 209 649 142 604 q 368 693 276 693 q 556 642 479 693 q 531 763 550 703 q 481 872 513 824 l 322 789 q 310 786 318 786 q 288 798 297 786 q 278 822 278 810 q 293 846 278 839 l 440 922 q 275 994 371 994 q 197 983 231 994 q 163 978 172 978 q 146 985 153 978 q 139 1004 139 993 q 189 1044 139 1033 q 292 1056 239 1056 q 540 975 442 1056 l 672 1044 q 683 1047 681 1047 q 706 1035 697 1047 q 715 1011 715 1024 q 701 988 715 996 l 588 928 m 376 56 q 497 133 457 56 q 548 315 538 211 q 558 550 558 419 q 478 615 524 593 q 392 638 432 638 q 258 553 299 638 q 218 336 218 469 q 263 125 218 194 q 376 56 307 56 z "},"ď":{"ha":782,"x_min":69,"x_max":888,"o":"m 400 697 q 526 674 468 697 l 526 942 q 547 1029 526 1003 q 615 1056 568 1056 q 659 1040 647 1056 q 671 990 671 1024 l 671 65 q 660 16 671 32 q 617 0 649 0 q 532 144 532 0 l 528 146 q 436 40 488 79 q 307 0 385 0 q 138 76 206 0 q 69 318 69 151 q 156 605 69 513 q 400 697 242 697 m 219 329 q 259 149 219 204 q 363 93 299 93 q 439 120 400 93 q 503 188 478 147 q 528 269 528 229 l 528 560 q 493 616 528 590 q 400 642 458 642 q 265 573 311 642 q 219 329 219 504 m 818 836 q 767 807 794 807 q 746 814 754 807 q 738 832 738 821 l 764 978 q 828 1025 774 1025 q 888 978 888 1025 q 872 917 888 950 q 818 836 856 883 z "},"đ":{"ha":782,"x_min":69,"x_max":819,"o":"m 786 885 q 810 874 801 885 q 819 850 819 864 q 810 826 819 836 q 786 817 801 817 l 671 817 l 671 65 q 660 16 671 32 q 617 0 649 0 q 532 144 532 0 l 528 146 q 436 40 488 79 q 307 0 385 0 q 138 76 206 0 q 69 318 69 151 q 156 605 69 513 q 400 697 242 697 q 526 674 468 697 l 526 817 l 297 817 q 272 826 281 817 q 264 850 264 836 q 272 875 264 865 q 297 885 281 885 l 526 885 l 526 942 q 547 1029 526 1003 q 615 1056 568 1056 q 659 1040 647 1056 q 671 990 671 1024 l 671 885 l 786 885 m 528 560 q 493 616 528 590 q 400 642 458 642 q 265 573 311 642 q 219 329 219 504 q 259 149 219 204 q 363 93 299 93 q 439 120 400 93 q 503 188 478 147 q 528 269 528 229 l 528 560 z "},"ǳ":{"ha":1440,"x_min":69,"x_max":1399,"o":"m 400 697 q 526 674 468 697 l 526 942 q 547 1029 526 1003 q 615 1056 568 1056 q 659 1040 647 1056 q 671 990 671 1024 l 671 65 q 660 16 671 32 q 617 0 649 0 q 532 144 532 0 l 528 146 q 436 40 488 79 q 307 0 385 0 q 138 76 206 0 q 69 318 69 151 q 156 605 69 513 q 400 697 242 697 m 219 329 q 259 149 219 204 q 363 93 299 93 q 439 120 400 93 q 503 188 478 147 q 528 269 528 229 l 528 560 q 493 616 528 590 q 400 642 458 642 q 265 573 311 642 q 219 329 219 504 m 1347 697 q 1386 685 1374 697 q 1399 657 1399 674 q 1392 624 1399 640 q 1378 596 1386 607 l 978 65 l 1261 65 l 1261 99 q 1277 170 1261 153 q 1338 188 1293 188 q 1378 173 1367 188 q 1389 129 1389 158 l 1389 43 q 1344 0 1389 0 l 876 0 q 836 12 849 0 q 824 40 824 24 q 844 101 824 72 l 1242 632 l 981 632 l 981 599 q 965 527 981 544 q 904 510 949 510 q 864 524 875 510 q 853 568 853 539 l 853 654 q 897 697 853 697 l 1347 697 z "},"ǆ":{"ha":1440,"x_min":69,"x_max":1399,"o":"m 400 697 q 526 674 468 697 l 526 942 q 547 1029 526 1003 q 615 1056 568 1056 q 659 1040 647 1056 q 671 990 671 1024 l 671 65 q 660 16 671 32 q 617 0 649 0 q 532 144 532 0 l 528 146 q 436 40 488 79 q 307 0 385 0 q 138 76 206 0 q 69 318 69 151 q 156 605 69 513 q 400 697 242 697 m 219 329 q 259 149 219 204 q 363 93 299 93 q 439 120 400 93 q 503 188 478 147 q 528 269 528 229 l 528 560 q 493 616 528 590 q 400 642 458 642 q 265 573 311 642 q 219 329 219 504 m 1347 697 q 1386 685 1374 697 q 1399 657 1399 674 q 1392 624 1399 640 q 1378 596 1386 607 l 978 65 l 1261 65 l 1261 99 q 1277 170 1261 153 q 1338 188 1293 188 q 1378 173 1367 188 q 1389 129 1389 158 l 1389 43 q 1344 0 1389 0 l 876 0 q 836 12 849 0 q 824 40 824 24 q 844 101 824 72 l 1242 632 l 981 632 l 981 599 q 965 527 981 544 q 904 510 949 510 q 864 524 875 510 q 853 568 853 539 l 853 654 q 897 697 853 697 l 1347 697 m 1199 946 q 1289 988 1239 988 q 1326 978 1311 988 q 1342 958 1342 969 q 1336 946 1342 951 l 1194 799 q 1126 774 1172 774 q 1058 799 1081 774 l 917 946 q 911 958 911 951 q 926 978 911 969 q 964 988 942 988 q 1054 946 1014 988 l 1126 874 l 1199 946 z "},"e":{"ha":729,"x_min":69,"x_max":674,"o":"m 604 175 q 639 190 618 190 q 661 182 651 190 q 671 161 671 174 q 653 114 671 136 q 397 0 561 0 q 152 88 235 0 q 69 332 69 176 q 153 603 69 510 q 394 697 236 697 q 597 625 521 697 q 674 418 674 553 q 594 350 674 350 l 221 350 q 219 319 219 339 q 267 131 219 200 q 413 61 314 61 q 518 89 479 61 q 578 142 557 117 q 604 175 599 168 m 386 642 q 276 585 319 642 q 225 408 233 528 l 485 408 q 521 417 510 408 q 532 449 532 426 q 488 592 532 542 q 386 642 444 642 z "},"é":{"ha":729,"x_min":69,"x_max":674,"o":"m 604 175 q 639 190 618 190 q 661 182 651 190 q 671 161 671 174 q 653 114 671 136 q 397 0 561 0 q 152 88 235 0 q 69 332 69 176 q 153 603 69 510 q 394 697 236 697 q 597 625 521 697 q 674 418 674 553 q 594 350 674 350 l 221 350 q 219 319 219 339 q 267 131 219 200 q 413 61 314 61 q 518 89 479 61 q 578 142 557 117 q 604 175 599 168 m 386 642 q 276 585 319 642 q 225 408 233 528 l 485 408 q 521 417 510 408 q 532 449 532 426 q 488 592 532 542 q 386 642 444 642 m 411 814 q 389 798 403 804 q 360 792 375 792 q 333 799 343 792 q 322 818 322 806 q 325 831 322 825 l 397 1004 q 428 1031 406 1022 q 476 1040 450 1040 q 531 1031 510 1040 q 551 1007 551 1022 q 547 994 551 999 l 411 814 z "},"ĕ":{"ha":833,"x_min":69,"x_max":674,"o":"m 604 175 q 639 190 618 190 q 661 182 651 190 q 671 161 671 174 q 653 114 671 136 q 397 0 561 0 q 152 88 235 0 q 69 332 69 176 q 153 603 69 510 q 394 697 236 697 q 597 625 521 697 q 674 418 674 553 q 594 350 674 350 l 221 350 q 219 319 219 339 q 267 131 219 200 q 413 61 314 61 q 518 89 479 61 q 578 142 557 117 q 604 175 599 168 m 386 642 q 276 585 319 642 q 225 408 233 528 l 485 408 q 521 417 510 408 q 532 449 532 426 q 488 592 532 542 q 386 642 444 642 m 581 949 q 524 823 581 874 q 376 772 468 772 q 230 823 286 772 q 174 949 174 874 q 183 976 174 965 q 211 988 193 988 q 241 977 228 988 q 261 950 254 967 q 307 882 279 900 q 376 864 335 864 q 447 882 418 864 q 493 950 475 900 q 513 977 500 967 q 543 988 526 988 q 571 976 561 988 q 581 949 581 965 z "},"ě":{"ha":729,"x_min":69,"x_max":674,"o":"m 604 175 q 639 190 618 190 q 661 182 651 190 q 671 161 671 174 q 653 114 671 136 q 397 0 561 0 q 152 88 235 0 q 69 332 69 176 q 153 603 69 510 q 394 697 236 697 q 597 625 521 697 q 674 418 674 553 q 594 350 674 350 l 221 350 q 219 319 219 339 q 267 131 219 200 q 413 61 314 61 q 518 89 479 61 q 578 142 557 117 q 604 175 599 168 m 386 642 q 276 585 319 642 q 225 408 233 528 l 485 408 q 521 417 510 408 q 532 449 532 426 q 488 592 532 542 q 386 642 444 642 m 454 946 q 544 988 494 988 q 582 978 567 988 q 597 958 597 969 q 592 946 597 951 l 450 799 q 382 774 428 774 q 314 799 336 774 l 172 946 q 167 958 167 951 q 182 978 167 969 q 219 988 197 988 q 310 946 269 988 l 382 874 l 454 946 z "},"ê":{"ha":729,"x_min":69,"x_max":674,"o":"m 604 175 q 639 190 618 190 q 661 182 651 190 q 671 161 671 174 q 653 114 671 136 q 397 0 561 0 q 152 88 235 0 q 69 332 69 176 q 153 603 69 510 q 394 697 236 697 q 597 625 521 697 q 674 418 674 553 q 594 350 674 350 l 221 350 q 219 319 219 339 q 267 131 219 200 q 413 61 314 61 q 518 89 479 61 q 578 142 557 117 q 604 175 599 168 m 386 642 q 276 585 319 642 q 225 408 233 528 l 485 408 q 521 417 510 408 q 532 449 532 426 q 488 592 532 542 q 386 642 444 642 m 310 815 q 219 774 269 774 q 182 783 197 774 q 167 803 167 792 q 172 815 167 810 l 314 963 q 382 988 338 988 q 450 963 428 988 l 592 815 q 597 803 597 810 q 582 783 597 792 q 544 774 567 774 q 454 815 494 774 l 382 888 l 310 815 z "},"ế":{"ha":729,"x_min":69,"x_max":713,"o":"m 588 946 q 540 926 571 926 q 517 933 526 926 q 507 950 507 939 q 510 961 507 957 l 575 1118 q 601 1142 582 1133 q 646 1150 621 1150 q 694 1142 676 1150 q 713 1119 713 1133 q 710 1108 713 1111 l 588 946 m 310 815 q 219 774 269 774 q 182 783 197 774 q 167 803 167 792 q 172 815 167 810 l 314 963 q 382 988 336 988 q 450 963 428 988 l 592 815 q 597 803 597 810 q 582 783 597 792 q 544 774 567 774 q 454 815 494 774 l 382 888 l 310 815 m 604 175 q 639 190 618 190 q 661 182 651 190 q 671 161 671 174 q 653 114 671 136 q 397 0 561 0 q 152 88 235 0 q 69 332 69 176 q 153 603 69 510 q 394 697 236 697 q 597 625 521 697 q 674 418 674 553 q 594 350 674 350 l 221 350 q 219 319 219 339 q 267 131 219 200 q 413 61 314 61 q 518 89 479 61 q 578 142 557 117 q 604 175 599 168 m 386 642 q 276 585 319 642 q 225 408 233 528 l 485 408 q 521 417 510 408 q 532 449 532 426 q 488 592 532 542 q 386 642 444 642 z "},"ệ":{"ha":729,"x_min":69,"x_max":674,"o":"m 604 175 q 639 190 618 190 q 661 182 651 190 q 671 161 671 174 q 653 114 671 136 q 397 0 561 0 q 152 88 235 0 q 69 332 69 176 q 153 603 69 510 q 394 697 236 697 q 597 625 521 697 q 674 418 674 553 q 594 350 674 350 l 221 350 q 219 319 219 339 q 267 131 219 200 q 413 61 314 61 q 518 89 479 61 q 578 142 557 117 q 604 175 599 168 m 386 642 q 276 585 319 642 q 225 408 233 528 l 485 408 q 521 417 510 408 q 532 449 532 426 q 488 592 532 542 q 386 642 444 642 m 310 815 q 219 774 269 774 q 182 783 197 774 q 167 803 167 792 q 172 815 167 810 l 314 963 q 382 988 338 988 q 450 963 428 988 l 592 815 q 597 803 597 810 q 582 783 597 792 q 544 774 567 774 q 454 815 494 774 l 382 888 l 310 815 m 313 -182 q 338 -122 313 -147 q 399 -96 363 -96 q 459 -122 433 -96 q 485 -182 485 -147 q 459 -243 485 -218 q 399 -268 433 -268 q 338 -243 363 -268 q 313 -182 313 -218 z "},"ề":{"ha":729,"x_min":69,"x_max":674,"o":"m 406 1108 q 403 1119 403 1111 q 421 1142 403 1133 q 469 1150 439 1150 q 514 1142 494 1150 q 540 1118 533 1133 l 606 961 q 608 950 608 957 q 599 933 608 939 q 575 926 589 926 q 528 946 544 926 l 406 1108 m 310 815 q 219 774 269 774 q 182 783 197 774 q 167 803 167 792 q 172 815 167 810 l 314 963 q 382 988 336 988 q 450 963 428 988 l 592 815 q 597 803 597 810 q 582 783 597 792 q 544 774 567 774 q 454 815 494 774 l 382 888 l 310 815 m 604 175 q 639 190 618 190 q 661 182 651 190 q 671 161 671 174 q 653 114 671 136 q 397 0 561 0 q 152 88 235 0 q 69 332 69 176 q 153 603 69 510 q 394 697 236 697 q 597 625 521 697 q 674 418 674 553 q 594 350 674 350 l 221 350 q 219 319 219 339 q 267 131 219 200 q 413 61 314 61 q 518 89 479 61 q 578 142 557 117 q 604 175 599 168 m 386 642 q 276 585 319 642 q 225 408 233 528 l 485 408 q 521 417 510 408 q 532 449 532 426 q 488 592 532 542 q 386 642 444 642 z "},"ể":{"ha":729,"x_min":69,"x_max":740,"o":"m 604 175 q 639 190 618 190 q 661 182 651 190 q 671 161 671 174 q 653 114 671 136 q 397 0 561 0 q 152 88 235 0 q 69 332 69 176 q 153 603 69 510 q 394 697 236 697 q 597 625 521 697 q 674 418 674 553 q 594 350 674 350 l 221 350 q 219 319 219 339 q 267 131 219 200 q 413 61 314 61 q 518 89 479 61 q 578 142 557 117 q 604 175 599 168 m 386 642 q 276 585 319 642 q 225 408 233 528 l 485 408 q 521 417 510 408 q 532 449 532 426 q 488 592 532 542 q 386 642 444 642 m 310 815 q 219 774 269 774 q 182 783 197 774 q 167 803 167 792 q 172 815 167 810 l 314 963 q 382 988 338 988 q 450 963 428 988 l 592 815 q 597 803 597 810 q 582 783 597 792 q 544 774 567 774 q 454 815 494 774 l 382 888 l 310 815 m 558 981 q 624 1045 610 1028 q 638 1088 638 1063 q 623 1128 638 1113 q 581 1143 608 1143 q 549 1138 561 1143 q 519 1125 536 1133 q 483 1113 497 1113 q 465 1120 472 1113 q 457 1139 457 1128 q 501 1192 457 1172 q 601 1211 546 1211 q 706 1179 672 1211 q 740 1104 740 1147 q 716 1031 740 1065 q 663 969 692 997 q 626 933 635 942 q 569 908 603 908 q 537 917 550 908 q 524 938 524 925 q 538 961 524 949 l 558 981 z "},"ễ":{"ha":729,"x_min":69,"x_max":674,"o":"m 604 175 q 639 190 618 190 q 661 182 651 190 q 671 161 671 174 q 653 114 671 136 q 397 0 561 0 q 152 88 235 0 q 69 332 69 176 q 153 603 69 510 q 394 697 236 697 q 597 625 521 697 q 674 418 674 553 q 594 350 674 350 l 221 350 q 219 319 219 339 q 267 131 219 200 q 413 61 314 61 q 518 89 479 61 q 578 142 557 117 q 604 175 599 168 m 386 642 q 276 585 319 642 q 225 408 233 528 l 485 408 q 521 417 510 408 q 532 449 532 426 q 488 592 532 542 q 386 642 444 642 m 310 815 q 219 774 269 774 q 182 783 197 774 q 167 803 167 792 q 172 815 167 810 l 314 963 q 382 988 338 988 q 450 963 428 988 l 592 815 q 597 803 597 810 q 582 783 597 792 q 544 774 567 774 q 454 815 494 774 l 382 888 l 310 815 m 289 1076 q 259 1069 268 1076 q 243 1046 250 1061 q 229 1025 236 1032 q 206 1018 222 1018 q 167 1046 167 1018 q 183 1103 167 1072 q 232 1155 200 1133 q 306 1176 264 1176 q 393 1156 347 1172 q 417 1145 399 1153 q 450 1134 435 1138 q 479 1131 465 1131 q 521 1154 508 1131 q 527 1167 522 1157 q 541 1182 532 1176 q 565 1188 550 1188 q 588 1180 581 1188 q 596 1161 596 1172 q 586 1124 596 1143 q 534 1053 565 1075 q 468 1031 503 1031 q 422 1036 443 1031 q 372 1054 401 1042 q 289 1076 313 1076 z "},"ȅ":{"ha":729,"x_min":69,"x_max":674,"o":"m 158 994 q 154 1007 154 999 q 173 1031 154 1022 q 222 1040 192 1040 q 266 1031 246 1040 q 293 1004 286 1022 l 358 831 q 360 818 360 825 q 351 799 360 806 q 326 792 342 792 q 301 798 314 792 q 281 814 288 804 l 158 994 m 353 994 q 349 1007 349 999 q 367 1031 349 1022 q 417 1040 386 1040 q 460 1031 440 1040 q 488 1004 481 1022 l 553 831 q 554 818 554 825 q 545 799 554 806 q 521 792 536 792 q 495 798 508 792 q 475 814 482 804 l 353 994 m 604 175 q 639 190 618 190 q 661 182 651 190 q 671 161 671 174 q 653 114 671 136 q 397 0 561 0 q 152 88 235 0 q 69 332 69 176 q 153 603 69 510 q 394 697 236 697 q 597 625 521 697 q 674 418 674 553 q 594 350 674 350 l 221 350 q 219 319 219 339 q 267 131 219 200 q 413 61 314 61 q 518 89 479 61 q 578 142 557 117 q 604 175 599 168 m 386 642 q 276 585 319 642 q 225 408 233 528 l 485 408 q 521 417 510 408 q 532 449 532 426 q 488 592 532 542 q 386 642 444 642 z "},"ë":{"ha":729,"x_min":69,"x_max":674,"o":"m 604 175 q 639 190 618 190 q 661 182 651 190 q 671 161 671 174 q 653 114 671 136 q 397 0 561 0 q 152 88 235 0 q 69 332 69 176 q 153 603 69 510 q 394 697 236 697 q 597 625 521 697 q 674 418 674 553 q 594 350 674 350 l 221 350 q 219 319 219 339 q 267 131 219 200 q 413 61 314 61 q 518 89 479 61 q 578 142 557 117 q 604 175 599 168 m 386 642 q 276 585 319 642 q 225 408 233 528 l 485 408 q 521 417 510 408 q 532 449 532 426 q 488 592 532 542 q 386 642 444 642 m 161 872 q 186 932 161 907 q 246 957 211 957 q 306 932 281 957 q 331 872 331 907 q 306 813 331 838 q 246 788 281 788 q 186 813 211 788 q 161 872 161 838 m 433 872 q 458 932 433 907 q 518 957 483 957 q 578 932 553 957 q 603 872 603 907 q 578 813 603 838 q 518 788 553 788 q 458 813 483 788 q 433 872 433 838 z "},"ė":{"ha":729,"x_min":69,"x_max":674,"o":"m 604 175 q 639 190 618 190 q 661 182 651 190 q 671 161 671 174 q 653 114 671 136 q 397 0 561 0 q 152 88 235 0 q 69 332 69 176 q 153 603 69 510 q 394 697 236 697 q 597 625 521 697 q 674 418 674 553 q 594 350 674 350 l 221 350 q 219 319 219 339 q 267 131 219 200 q 413 61 314 61 q 518 89 479 61 q 578 142 557 117 q 604 175 599 168 m 386 642 q 276 585 319 642 q 225 408 233 528 l 485 408 q 521 417 510 408 q 532 449 532 426 q 488 592 532 542 q 386 642 444 642 m 296 874 q 321 935 296 910 q 382 960 346 960 q 442 935 417 960 q 468 874 468 910 q 442 813 468 839 q 382 788 417 788 q 321 813 346 788 q 296 874 296 839 z "},"ẹ":{"ha":729,"x_min":69,"x_max":674,"o":"m 604 175 q 639 190 618 190 q 661 182 651 190 q 671 161 671 174 q 653 114 671 136 q 397 0 561 0 q 152 88 235 0 q 69 332 69 176 q 153 603 69 510 q 394 697 236 697 q 597 625 521 697 q 674 418 674 553 q 594 350 674 350 l 221 350 q 219 319 219 339 q 267 131 219 200 q 413 61 314 61 q 518 89 479 61 q 578 142 557 117 q 604 175 599 168 m 386 642 q 276 585 319 642 q 225 408 233 528 l 485 408 q 521 417 510 408 q 532 449 532 426 q 488 592 532 542 q 386 642 444 642 m 313 -182 q 338 -122 313 -147 q 399 -96 363 -96 q 459 -122 433 -96 q 485 -182 485 -147 q 459 -243 485 -218 q 399 -268 433 -268 q 338 -243 363 -268 q 313 -182 313 -218 z "}}}
